<?xml version="1.0" encoding="UTF-8"?>
<svg version="1.1" xmlns="http://www.w3.org/2000/svg" width="500" height="500">
<path d="M0 0 C17.16 0 34.32 0 52 0 C59.71498688 21.98356477 67.39413023 43.97847554 75 66 C75.39218719 67.13549286 75.78437439 68.27098572 76.18844604 69.44088745 C81.02146882 83.43789673 85.84027553 97.43974859 90.6484375 111.4453125 C91.1269571 112.83899647 91.60548289 114.23267832 92.08401489 115.62635803 C92.56236049 117.01954043 93.04070318 118.41272381 93.51904297 119.8059082 C93.87382438 120.83921815 93.87382438 120.83921815 94.23577309 121.89340305 C95.41948333 125.34118249 96.60288792 128.78906633 97.78570557 132.2371521 C102.24261455 145.22871154 106.70241443 158.2187308 111.28125 171.16796875 C111.59712067 172.06177246 111.91299133 172.95557617 112.23843384 173.87646484 C113.65025567 177.86663528 115.06853693 181.85433642 116.49755859 185.83837891 C116.97498192 187.17999629 117.45236159 188.52162921 117.9296875 189.86328125 C118.33429199 190.99032471 118.73889648 192.11736816 119.15576172 193.27856445 C120 196 120 196 120 199 C106.14 199 92.28 199 78 199 C75.89625 192.874375 73.7925 186.74875 71.625 180.4375 C70.9645166 178.51736084 70.3040332 176.59722168 69.62353516 174.61889648 C69.095236 173.07801078 68.56706971 171.53707952 68.0390625 169.99609375 C67.76860107 169.21141724 67.49813965 168.42674072 67.21948242 167.61828613 C66.95578857 166.84762817 66.69209473 166.07697021 66.42041016 165.28295898 C66.19390778 164.62343735 65.9674054 163.96391571 65.73403931 163.28440857 C64.74707917 160.21288342 63.8863049 157.10206716 63 154 C38.25 153.67 13.5 153.34 -12 153 C-12.99 156.63 -13.98 160.26 -15 164 C-15.94533853 166.92467609 -16.90696823 169.82946032 -17.91796875 172.73046875 C-18.15084595 173.40742798 -18.38372314 174.08438721 -18.62365723 174.78186035 C-19.47443264 177.25173257 -20.33129441 179.71950495 -21.1875 182.1875 C-23.105625 187.735625 -25.02375 193.28375 -27 199 C-40.53 199 -54.06 199 -68 199 C-66.68901682 193.10057567 -65.35167126 187.69278612 -63.33203125 182.0703125 C-63.06498886 181.31235382 -62.79794647 180.55439514 -62.52281189 179.77346802 C-61.93583371 178.10835881 -61.34663764 176.44403016 -60.75549316 174.78039551 C-59.06566172 170.02196142 -57.39507234 165.25676451 -55.72265625 160.4921875 C-55.35369232 159.44208496 -54.98472839 158.39198242 -54.60458374 157.31005859 C-49.8295064 143.69823979 -45.16295852 130.04907914 -40.48767471 116.40275574 C-38.26680923 109.92160514 -36.04331844 103.44135416 -33.8203125 96.9609375 C-33.57617174 96.24916855 -33.33203098 95.5373996 -33.08049202 94.80406189 C-28.33914383 80.98152157 -23.58877472 67.16211945 -18.82287598 53.34802246 C-18.04255405 51.08562164 -17.26282058 48.82301774 -16.48376465 46.56018066 C-11.12260568 30.99039026 -5.6035576 15.48438697 0 0 Z M24 42 C17.24679541 61.53464706 10.57578128 81.0925652 4.1875 100.75 C3.92352417 101.55907806 3.65954834 102.36815613 3.38757324 103.20175171 C2.6442994 105.48237273 1.90529263 107.76432439 1.16796875 110.046875 C0.83610817 111.06455711 0.83610817 111.06455711 0.49754333 112.10279846 C-0.62738402 115.48340224 -0.62738402 115.48340224 -1 119 C16.49 119 33.98 119 52 119 C43.88791481 93.25294699 35.6279291 67.5779158 27 42 C26.01 42 25.02 42 24 42 Z " fill="#1D9C30" transform="translate(224,147)"/>
<path d="M0 0 C5.0729373 0.84548955 9.21083547 2.09796222 13.8984375 4.015625 C14.69394516 4.33526215 15.48945282 4.65489929 16.30906677 4.98422241 C19.00004921 6.06711073 21.68745579 7.1586094 24.375 8.25 C26.29493591 9.02449644 28.21510968 9.79840347 30.13549805 10.57177734 C34.51497493 12.33663434 38.89291134 14.10525329 43.27001953 15.87597656 C52.17440263 19.4774945 61.08540195 23.06256388 69.99609375 26.6484375 C73.29836358 27.9774801 76.60060544 29.30659217 79.90283203 30.63574219 C80.72096878 30.96503975 81.53910553 31.29433731 82.3820343 31.63361359 C91.19969791 35.18295351 100.01599746 38.73567663 108.83203125 42.2890625 C109.92313611 42.72883989 109.92313611 42.72883989 111.03628349 43.17750168 C115.02423103 44.78489685 119.01213622 46.39239703 123 48 C123.16349971 51.04553485 123.32613701 54.09111168 123.48828125 57.13671875 C123.53440552 57.99422729 123.58052979 58.85173584 123.62805176 59.73522949 C124.54916984 77.08642663 124.54916984 77.08642663 122 83 C119.76092529 84.48516846 119.76092529 84.48516846 116.88574219 85.55175781 C115.78079407 85.97672546 114.67584595 86.40169312 113.53741455 86.83953857 C112.3030365 87.28952209 111.06865845 87.73950562 109.796875 88.203125 C108.47171094 88.70628087 107.14758325 89.21217307 105.82440186 89.72052002 C103.64498604 90.55717084 101.46490053 91.39162508 99.28165054 92.21822739 C90.27423235 95.6303735 81.35040106 99.24854968 72.41822815 102.85197449 C67.43793024 104.85897398 62.45315024 106.85477818 57.46875 108.8515625 C51.29669677 111.32508692 45.12509199 113.79971263 38.95507812 116.27832031 C33.87724095 118.31810837 28.79808621 120.35458135 23.71797943 122.38871002 C21.79887467 123.15782832 19.88025535 123.92815906 17.96213531 124.69972992 C15.31358232 125.7649116 12.6633672 126.82584654 10.01269531 127.88574219 C9.22545074 128.20351624 8.43820618 128.52129028 7.62710571 128.84869385 C2.22812843 131 2.22812843 131 0 131 C0 119.12 0 107.24 0 95 C2.63742187 93.99582031 5.27484375 92.99164063 7.9921875 91.95703125 C30.66817058 83.32219606 53.33867824 74.67324111 76 66 C76 65.34 76 64.68 76 64 C75.13635834 63.68093185 74.27271667 63.36186371 73.38290405 63.03312683 C65.23076034 60.02066644 57.07984249 57.00491738 48.93027306 53.98549938 C44.74080247 52.43343028 40.5508744 50.88262172 36.35986328 49.3347168 C32.31279813 47.83992357 28.26698417 46.34178942 24.22200394 44.84136391 C22.68114636 44.27046703 21.13984716 43.70076057 19.59809494 43.13228416 C17.43318139 42.33380039 15.26989895 41.53103847 13.10693359 40.72729492 C11.87671478 40.27206955 10.64649597 39.81684418 9.3789978 39.3478241 C6.17831146 38.07112537 3.08212299 36.5410615 0 35 C0 23.45 0 11.9 0 0 Z " fill="#1E9B30" transform="translate(361,184)"/>
<path d="M0 0 C0 11.88 0 23.76 0 36 C-2.7328125 37.01578125 -5.465625 38.0315625 -8.28125 39.078125 C-11.03911307 40.10356979 -13.79691832 41.12916995 -16.55471802 42.15478516 C-18.51338313 42.88312258 -20.47210276 43.61131343 -22.43087769 44.33935547 C-32.59793101 48.11844492 -42.76290791 51.90237296 -52.91015625 55.734375 C-53.65804413 56.01645813 -54.40593201 56.29854126 -55.17648315 56.58917236 C-58.66083472 57.90348995 -62.14394709 59.22091574 -65.625 60.54394531 C-66.84316406 61.00381836 -68.06132813 61.46369141 -69.31640625 61.9375 C-70.37287354 62.33839844 -71.42934082 62.73929688 -72.51782227 63.15234375 C-75 64 -75 64 -77 64 C-75.54579781 66.90840439 -73.74985719 66.99934793 -70.7109375 68.07421875 C-68.98435913 68.69393555 -68.98435913 68.69393555 -67.22290039 69.32617188 C-66.28536423 69.65766235 -66.28536423 69.65766235 -65.32888794 69.99584961 C-61.94876131 71.19236956 -58.57800296 72.41468872 -55.20703125 73.63671875 C-54.11940742 74.03043167 -54.11940742 74.03043167 -53.0098114 74.43209839 C-43.64839778 77.83447163 -34.35649513 81.41849625 -25.0625 85 C-24.21266541 85.32664642 -23.36283081 85.65329285 -22.48724365 85.98983765 C-20.04421816 86.92901501 -17.60201335 87.8702895 -15.16015625 88.8125 C-14.43833664 89.09023758 -13.71651703 89.36797516 -12.9728241 89.65412903 C-12.28835709 89.91908676 -11.60389008 90.18404449 -10.89868164 90.45703125 C-10.31188126 90.68366455 -9.72508087 90.91029785 -9.12049866 91.14379883 C-6.05984001 92.37961169 -3.03385602 93.69977599 0 95 C0 106.88 0 118.76 0 131 C-12.84541766 126.58089708 -25.42567341 121.69623193 -38 116.5625 C-40.00527577 115.7471239 -42.01073307 114.93219408 -44.01635742 114.11767578 C-47.21771707 112.8175372 -50.41896965 111.51714249 -53.61967468 110.21539307 C-62.29870943 106.68640405 -70.98573734 103.17754267 -79.67578125 99.67578125 C-80.99356086 99.14467893 -82.31134041 98.61357643 -83.62911987 98.08247375 C-88.80925907 95.99490217 -93.98957891 93.90777937 -99.17016602 91.82131958 C-102.77657234 90.36877106 -106.38243651 88.91487956 -109.98828125 87.4609375 C-111.61930534 86.80445976 -111.61930534 86.80445976 -113.28327942 86.13471985 C-114.7698127 85.53508675 -114.7698127 85.53508675 -116.28637695 84.92333984 C-117.15277298 84.57427582 -118.01916901 84.22521179 -118.91181946 83.86557007 C-120.29556188 83.29199609 -121.66022981 82.6698851 -123 82 C-123 71.11 -123 60.22 -123 49 C-111.76470142 43.38235071 -111.76470142 43.38235071 -107.39477539 41.7097168 C-106.38410507 41.31855179 -105.37343475 40.92738678 -104.33213806 40.52436829 C-102.70013206 39.89935677 -102.70013206 39.89935677 -101.03515625 39.26171875 C-98.54106024 38.2940736 -96.04761128 37.32492701 -93.55517578 36.35302734 C-92.88583102 36.09226945 -92.21648626 35.83151155 -91.52685833 35.56285191 C-83.37012288 32.37669823 -75.25480863 29.08803322 -67.13798141 25.80185318 C-64.43008276 24.70560989 -61.72166491 23.61065906 -59.01309204 22.51608276 C-51.58146981 19.51245224 -44.15031073 16.50770231 -36.72241211 13.49487305 C-32.10782494 11.62335822 -27.49123961 9.75685359 -22.87327766 7.89368248 C-21.13055609 7.18944457 -19.38859647 6.48331795 -17.64742851 5.77524757 C-15.24137054 4.7969888 -12.83282597 3.82512167 -10.42358398 2.85473633 C-9.71159851 2.56344345 -8.99961304 2.27215057 -8.26605225 1.97203064 C-5.3485535 0.80359267 -3.17476904 0 0 0 Z " fill="#1D9C30" transform="translate(138,184)"/>
<path d="M0 0 C1.32773566 3.98320697 0.05077716 6.50781028 -1.30859375 10.29296875 C-1.63446472 11.23203064 -1.63446472 11.23203064 -1.96691895 12.19006348 C-2.78052583 14.52602112 -3.60996617 16.85643971 -4.4375 19.1875 C-6.273125 24.405625 -8.10875 29.62375 -10 35 C-23.53 35 -37.06 35 -51 35 C-50 29 -50 29 -49 27 C-48.34 27.33 -47.68 27.66 -47 28 C-47.33 29.98 -47.66 31.96 -48 34 C-35.79 33.34 -23.58 32.68 -11 32 C-10.01 28.7 -9.02 25.4 -8 22 C-6.5625 17.625 -6.5625 17.625 -5.82421875 15.4453125 C-5.19162285 13.5685114 -4.57158382 11.68747402 -3.95703125 9.8046875 C-3.59996094 8.71414063 -3.24289063 7.62359375 -2.875 6.5 C-2.54242188 5.4790625 -2.20984375 4.458125 -1.8671875 3.40625 C-1 1 -1 1 0 0 Z " fill="#2C8F3D" transform="translate(207,311)"/>
<path d="M0 0 C0.99 0 1.98 0 3 0 C3.19335938 0.92683594 3.38671875 1.85367187 3.5859375 2.80859375 C3.84632813 4.00613281 4.10671875 5.20367187 4.375 6.4375 C4.63023437 7.63246094 4.88546875 8.82742188 5.1484375 10.05859375 C5.42945313 11.02925781 5.71046875 11.99992187 6 13 C9.10991396 14.55495698 12.43344049 14.24076956 15.8515625 14.31640625 C16.62559418 14.33718735 17.39962585 14.35796844 18.19711304 14.37937927 C20.67298392 14.44483448 23.14896202 14.50374087 25.625 14.5625 C27.30209448 14.60568907 28.97917807 14.64930348 30.65625 14.69335938 C34.77072308 14.80051171 38.88530414 14.90179045 43 15 C43.33 13.35 43.66 11.7 44 10 C44.66 10.33 45.32 10.66 46 11 C46.495 13.97 46.495 13.97 47 17 C33.14 17 19.28 17 5 17 C0 3 0 3 0 0 Z " fill="#2D8C3C" transform="translate(297,329)"/>
<path d="M0 0 C4.83358504 0.80559751 8.40024228 1.78172907 12.875 3.5625 C14.02742188 4.01753906 15.17984375 4.47257813 16.3671875 4.94140625 C17.67042969 5.46541016 17.67042969 5.46541016 19 6 C19 6.33 19 6.66 19 7 C14 7 14 7 2 2 C2 12.56 2 23.12 2 34 C4.97 34.99 7.94 35.98 11 37 C11.33 37.66 11.66 38.32 12 39 C7.09303768 38.41583782 4.69011637 37.34505819 0 35 C0 23.45 0 11.9 0 0 Z " fill="#308940" transform="translate(361,184)"/>
<path d="M0 0 C1.60276374 4.01342464 0.31194454 6.78860055 -1.08984375 10.734375 C-1.498396 11.90194336 -1.90694824 13.06951172 -2.32788086 14.27246094 C-2.85905518 15.75004883 -3.39022949 17.22763672 -3.9375 18.75 C-5.608125 23.4525 -7.27875 28.155 -9 33 C7.83 33 24.66 33 42 33 C42 33.33 42 33.66 42 34 C24.84 34.33 7.68 34.66 -10 35 C-11 33 -11 33 -10.22265625 30.1015625 C-9.64837891 28.38066406 -9.64837891 28.38066406 -9.0625 26.625 C-7.77504292 22.7582645 -7 20.10518383 -7 16 C-6.34 16 -5.68 16 -5 16 C-4.01 11.71 -3.02 7.42 -2 3 C-1.34 3 -0.68 3 0 3 C0 2.01 0 1.02 0 0 Z " fill="#318F40" transform="translate(232,233)"/>
<path d="M0 0 C1.07461739 0.00539291 1.07461739 0.00539291 2.17094421 0.01089478 C2.92211517 0.01074875 3.67328613 0.01060272 4.44721985 0.01045227 C6.94166404 0.01115153 9.43603448 0.01894452 11.9304657 0.02676392 C13.65539509 0.02862805 15.38032501 0.03005197 17.10525513 0.03105164 C21.65418448 0.03487719 26.20308211 0.04470779 30.7519989 0.05575562 C35.39025951 0.06596893 40.02852522 0.07054908 44.66679382 0.07559204 C53.77422967 0.08633003 62.88164192 0.1034069 71.98905945 0.12442017 C72.48405945 2.59942017 72.48405945 2.59942017 72.98905945 5.12442017 C71.99905945 3.63942017 71.99905945 3.63942017 70.98905945 2.12442017 C68.53807461 1.80792456 66.3330904 1.68696963 63.87724304 1.69204712 C62.77952827 1.67675964 62.77952827 1.67675964 61.65963745 1.66116333 C59.23551393 1.6309167 56.81178475 1.62174996 54.38749695 1.61270142 C52.70882339 1.59586331 51.03016251 1.57771425 49.35151672 1.55830383 C44.92924459 1.51070309 40.50702383 1.48095914 36.08457947 1.4548645 C31.57346954 1.42510958 27.06253683 1.37856197 22.55155945 1.33340454 C13.69748529 1.24725698 4.84337476 1.17996286 -4.01094055 1.12442017 C-5.49594055 6.56942017 -5.49594055 6.56942017 -7.01094055 12.12442017 C-7.34094055 12.12442017 -7.67094055 12.12442017 -8.01094055 12.12442017 C-8.20685571 7.91224435 -7.86016825 4.93165365 -6.01094055 1.12442017 C-4.32590356 -0.56061683 -2.24834171 0.00476033 0 0 Z " fill="#389346" transform="translate(216.0109405517578,298.8755798339844)"/>
<path d="M0 0 C1.875 0.25 1.875 0.25 4 1 C4.309375 1.66 4.61875 2.32 4.9375 3 C5.288125 3.66 5.63875 4.32 6 5 C8.23135047 5.63141012 8.23135047 5.63141012 11 6 C12.32114082 6.4767003 13.63327068 6.97880702 14.9375 7.5 C18.26881005 8.79586065 21.4384304 9.5548038 25 10 C25.33 9.01 25.66 8.02 26 7 C26.66 7 27.32 7 28 7 C28.33 7.99 28.66 8.98 29 10 C28.34 10 27.68 10 27 10 C28.32 11.32 29.64 12.64 31 14 C31 11.36 31 8.72 31 6 C31.33 6 31.66 6 32 6 C32 9.3 32 12.6 32 16 C20.48543044 12.06573531 9.2065442 7.74069079 -2 3 C-1.34 2.67 -0.68 2.34 0 2 C0 1.34 0 0.68 0 0 Z " fill="#2B9240" transform="translate(106,299)"/>
<path d="M0 0 C0 1.65 0 3.3 0 5 C-0.495 3.515 -0.495 3.515 -1 2 C-1.99 2 -2.98 2 -4 2 C-4 3.32 -4 4.64 -4 6 C-5.32 6.33 -6.64 6.66 -8 7 C-8 6.34 -8 5.68 -8 5 C-9.46067199 5.45082469 -10.91848032 5.91093537 -12.375 6.375 C-13.18710938 6.63023437 -13.99921875 6.88546875 -14.8359375 7.1484375 C-17.16459185 7.89854283 -17.16459185 7.89854283 -19 10 C-19.99 10.33 -20.98 10.66 -22 11 C-22.66 11.66 -23.32 12.32 -24 13 C-24.99 12.67 -25.98 12.34 -27 12 C-27.825 12.33 -28.65 12.66 -29.5 13 C-32 14 -32 14 -35 13 C-30.50036349 11.14190899 -25.99798507 9.29069085 -21.49291992 7.44580078 C-19.96056948 6.81715251 -18.42898696 6.18662904 -16.89819336 5.55419922 C-14.69844294 4.64577716 -12.49602414 3.74412219 -10.29296875 2.84375 C-9.60849167 2.55939087 -8.92401459 2.27503174 -8.21879578 1.98205566 C-5.31408881 0.80160095 -3.16794537 0 0 0 Z " fill="#319041" transform="translate(138,184)"/>
<path d="M0 0 C-0.33 0.66 -0.66 1.32 -1 2 C-4.0625 2.625 -4.0625 2.625 -7 3 C-7 3.66 -7 4.32 -7 5 C-7.7734375 5.24234375 -8.546875 5.4846875 -9.34375 5.734375 C-14.83046687 7.49990271 -19.97433995 9.36925798 -25.0703125 12.0546875 C-30.78949275 14.85639119 -36.69705158 16.32947357 -43 17 C-39.85852546 14.90568364 -36.90018564 13.67295922 -33.390625 12.28515625 C-32.74559021 12.02874863 -32.10055542 11.772341 -31.43597412 11.50816345 C-29.37526356 10.68966753 -27.31273185 9.8758869 -25.25 9.0625 C-23.20190574 8.25181616 -21.1542128 7.44013437 -19.10687256 6.62754822 C-17.23896776 5.8866629 -15.3700009 5.14845689 -13.50097656 4.41040039 C-11.05036454 3.42314895 -8.65014413 2.39963359 -6.24121094 1.32202148 C-3 0 -3 0 0 0 Z " fill="#318E40" transform="translate(63,214)"/>
<path d="M0 0 C-4.95 1.485 -4.95 1.485 -10 3 C-8.54378305 5.91243389 -6.67586567 6.05596546 -3.65234375 7.1640625 C-2.57275391 7.56367188 -1.49316406 7.96328125 -0.38085938 8.375 C0.75544922 8.7875 1.89175781 9.2 3.0625 9.625 C4.20267578 10.04523438 5.34285156 10.46546875 6.51757812 10.8984375 C9.34277717 11.93867815 12.17025365 12.97220732 15 14 C11.99580359 15.0013988 9.12290635 15.51421457 6 16 C6 15.01 6 14.02 6 13 C3.69 12.34 1.38 11.68 -1 11 C-1 10.34 -1 9.68 -1 9 C-3.97 8.67 -6.94 8.34 -10 8 C-10 7.34 -10 6.68 -10 6 C-10.66 5.67 -11.32 5.34 -12 5 C-11.375 3.125 -11.375 3.125 -10 1 C-5.92559158 -0.86005602 -4.43680282 -1.1092007 0 0 Z " fill="#2D8D3C" transform="translate(71,245)"/>
<path d="M0 0 C4.03568 -0.26036645 6.52003553 0.46365939 10.125 2.25 C14.83567041 4.4971171 19.56918341 6.37874344 24.4921875 8.10546875 C28.55806503 9.5557584 32.46417136 11.16822272 36.3125 13.125 C37.00988281 13.47820312 37.70726562 13.83140625 38.42578125 14.1953125 C39.20501953 14.59363281 39.20501953 14.59363281 40 15 C35.64823731 16.45058756 32.65122877 14.51159478 28.61328125 12.81640625 C27.79627243 12.48205063 26.97926361 12.14769501 26.13749695 11.8032074 C23.52541473 10.73183647 20.91900329 9.64736375 18.3125 8.5625 C16.54397711 7.83441791 14.77510092 7.10719338 13.00585938 6.38085938 C8.66640855 4.59716956 4.33199838 2.80170961 0 1 C0 0.67 0 0.34 0 0 Z " fill="#2F8D41" transform="translate(32,272)"/>
<path d="M0 0 C1.98 0 3.96 0 6 0 C6 0.66 6 1.32 6 2 C7.299375 2.12375 8.59875 2.2475 9.9375 2.375 C12.15234375 2.5859375 12.15234375 2.5859375 14 3 C14.33 3.66 14.66 4.32 15 5 C17.02463255 5.65213292 17.02463255 5.65213292 19 6 C19.33 5.34 19.66 4.68 20 4 C20.350625 4.61875 20.70125 5.2375 21.0625 5.875 C23.68887702 8.75554253 26.26627537 9.15462838 30 10 C30 10.66 30 11.32 30 12 C25.73058929 11.42133149 22.12543909 10.39736392 18.1640625 8.71484375 C17.10058594 8.26689453 16.03710938 7.81894531 14.94140625 7.35742188 C13.84699219 6.88884766 12.75257812 6.42027344 11.625 5.9375 C10.50738281 5.46505859 9.38976562 4.99261719 8.23828125 4.50585938 C5.48968515 3.3429918 2.74376168 2.17421814 0 1 C0 0.67 0 0.34 0 0 Z " fill="#288B39" transform="translate(72,288)"/>
<path d="M0 0 C2.125 0.375 2.125 0.375 4 1 C4 1.66 4 2.32 4 3 C4.78375 3.0825 5.5675 3.165 6.375 3.25 C10.35594224 4.07364322 13.78726497 5.45447079 17.5234375 7.0234375 C19.70135176 7.8822365 21.79250824 8.51134974 24.0625 9.0625 C25.031875 9.371875 26.00125 9.68125 27 10 C28.04449911 13.13349732 27.93423645 13.98968256 27 17 C24.69 17 22.38 17 20 17 C23 15 23 15 25 14 C25 13.34 25 12.68 25 12 C16.09 8.7 7.18 5.4 -2 2 C-1.34 1.34 -0.68 0.68 0 0 Z " fill="#2E8F3E" transform="translate(412,236)"/>
<path d="M0 0 C2.31 0 4.62 0 7 0 C4.4509474 2.5490526 2.04437399 3.29812539 -1.3203125 4.6015625 C-1.93897186 4.8428891 -2.55763123 5.0842157 -3.19503784 5.33285522 C-5.169806 6.10186458 -7.14732339 6.86350568 -9.125 7.625 C-10.46503142 8.14535028 -11.80487759 8.66617792 -13.14453125 9.1875 C-16.42755656 10.46387768 -19.71308682 11.7336628 -23 13 C-23.33 12.34 -23.66 11.68 -24 11 C-21.09399739 9.74335022 -19.20395416 9 -16 9 C-16 8.34 -16 7.68 -16 7 C-14.68 7 -13.36 7 -12 7 C-12 6.34 -12 5.68 -12 5 C-10.35 5 -8.7 5 -7 5 C-7 4.01 -7 3.02 -7 2 C-5.02 2 -3.04 2 -1 2 C-0.67 1.34 -0.34 0.68 0 0 Z " fill="#2A903E" transform="translate(396,298)"/>
<path d="M0 0 C0.66 0.33 1.32 0.66 2 1 C1.67 2.98 1.34 4.96 1 7 C13.54 7 26.08 7 39 7 C39 7.33 39 7.66 39 8 C25.47 8 11.94 8 -2 8 C-1 2 -1 2 0 0 Z " fill="#338542" transform="translate(158,338)"/>
<path d="M0 0 C0.33 0 0.66 0 1 0 C1 3.3 1 6.6 1 10 C-3.3753214 12.26868517 -7.76978351 14.39802183 -12.3125 16.3125 C-13.13363281 16.65925781 -13.95476562 17.00601562 -14.80078125 17.36328125 C-17 18 -17 18 -20 17 C-18.14635387 16.07317694 -16.29246921 15.14682841 -14.4375 14.22265625 C-12.72502582 13.36367481 -11.01706126 12.49567242 -9.3125 11.62109375 C-8.425625 11.16863281 -7.53875 10.71617187 -6.625 10.25 C-5.79226563 9.82203125 -4.95953125 9.3940625 -4.1015625 8.953125 C-2 8 -2 8 0 8 C0 5.36 0 2.72 0 0 Z " fill="#2B8D3E" transform="translate(483,256)"/>
<path d="M0 0 C0.80489089 3.01903711 1.10855119 5.61851889 1.0625 8.75 C1.05347656 9.54921875 1.04445312 10.3484375 1.03515625 11.171875 C1.02355469 11.77515625 1.01195312 12.3784375 1 13 C0.34 13 -0.32 13 -1 13 C-1.33 13.66 -1.66 14.32 -2 15 C-2.66 15 -3.32 15 -4 15 C-4.103125 16.0725 -4.20625 17.145 -4.3125 18.25 C-4.97400493 21.85820872 -5.57483421 23.36395023 -8 26 C-6.36231563 16.99273599 -3.13020303 8.57360642 0 0 Z " fill="#308A40" transform="translate(219,161)"/>
<path d="M0 0 C1.953125 0.6171875 1.953125 0.6171875 4 2 C4.609375 4.8203125 4.609375 4.8203125 4.75 8.125 C4.80671875 9.22070312 4.8634375 10.31640625 4.921875 11.4453125 C4.94765625 12.28835937 4.9734375 13.13140625 5 14 C5.66 14 6.32 14 7 14 C8.80411967 16.75924185 9.0127245 17.88972103 8.625 21.25 C8.41875 22.1575 8.2125 23.065 8 24 C6.30940011 21.46410016 5.43702476 19.69623983 4.4921875 16.875 C4.22792969 16.08609375 3.96367187 15.2971875 3.69140625 14.484375 C3.42199219 13.66453125 3.15257812 12.8446875 2.875 12 C2.59785156 11.18015625 2.32070313 10.3603125 2.03515625 9.515625 C1.77347656 8.72671875 1.51179688 7.9378125 1.2421875 7.125 C1.0035498 6.40570313 0.76491211 5.68640625 0.51904297 4.9453125 C0 3 0 3 0 0 Z " fill="#2C903D" transform="translate(255,201)"/>
<path d="M0 0 C0.33 0 0.66 0 1 0 C1 2.97 1 5.94 1 9 C0.01 9.495 0.01 9.495 -1 10 C-1.80487965 11.69274792 -1.80487965 11.69274792 -2.4375 13.74609375 C-2.69273437 14.50083984 -2.94796875 15.25558594 -3.2109375 16.03320312 C-3.60152344 17.22333008 -3.60152344 17.22333008 -4 18.4375 C-4.51546407 20.00047892 -5.03607904 21.56177105 -5.5625 23.12109375 C-5.79066406 23.8164624 -6.01882812 24.51183105 -6.25390625 25.22827148 C-7 27 -7 27 -9 29 C-7.6393319 22.24476394 -5.71290027 15.91424405 -3.375 9.4375 C-3.05015625 8.52419922 -2.7253125 7.61089844 -2.390625 6.66992188 C-1.59846371 4.44488059 -0.8015341 2.22167825 0 0 Z " fill="#308B3C" transform="translate(182,268)"/>
<path d="M0 0 C-3.26459506 1.36957005 -6.53753177 2.71794485 -9.8125 4.0625 C-10.74126953 4.45244141 -11.67003906 4.84238281 -12.62695312 5.24414062 C-13.51962891 5.60830078 -14.41230469 5.97246094 -15.33203125 6.34765625 C-16.15421143 6.68804932 -16.9763916 7.02844238 -17.82348633 7.37915039 C-20 8 -20 8 -23 7 C-22.360625 6.731875 -21.72125 6.46375 -21.0625 6.1875 C-18.66868314 5.11332248 -18.66868314 5.11332248 -18 2 C-12.25 1 -12.25 1 -10 1 C-8.576875 0.4740625 -8.576875 0.4740625 -7.125 -0.0625 C-3.94139131 -1.01758261 -3.02563471 -0.93650598 0 0 Z " fill="#29943C" transform="translate(431,288)"/>
<path d="M0 0 C0 0.66 0 1.32 0 2 C-1.2065625 2.4021875 -1.2065625 2.4021875 -2.4375 2.8125 C-3.283125 3.204375 -4.12875 3.59625 -5 4 C-5.33 4.99 -5.66 5.98 -6 7 C-7.216875 6.95875 -8.43375 6.9175 -9.6875 6.875 C-13.26206736 6.85605353 -15.70380506 7.58734503 -19 9 C-19.99 8.67 -20.98 8.34 -22 8 C-18.71057634 6.66108439 -15.41810891 5.32982297 -12.125 4 C-11.18785156 3.6184375 -10.25070313 3.236875 -9.28515625 2.84375 C-8.38925781 2.4828125 -7.49335937 2.121875 -6.5703125 1.75 C-5.74289551 1.41484375 -4.91547852 1.0796875 -4.06298828 0.734375 C-2 0 -2 0 0 0 Z " fill="#309340" transform="translate(85,205)"/>
<path d="M0 0 C1.32 0.66 2.64 1.32 4 2 C3.74438677 4.3431213 3.40729228 6.67843403 3 9 C2.01 9.495 2.01 9.495 1 10 C1 9.01 1 8.02 1 7 C0.34 7 -0.32 7 -1 7 C-1.12375 8.134375 -1.2475 9.26875 -1.375 10.4375 C-1.58125 11.613125 -1.7875 12.78875 -2 14 C-2.99 14.495 -2.99 14.495 -4 15 C-2.9318153 9.88634986 -1.76892524 4.92772031 0 0 Z " fill="#289135" transform="translate(197,224)"/>
<path d="M0 0 C1.2065625 0.0309375 1.2065625 0.0309375 2.4375 0.0625 C3.4275 2.7025 4.4175 5.3425 5.4375 8.0625 C4.7775 8.7225 4.1175 9.3825 3.4375 10.0625 C2.7775 7.0925 2.1175 4.1225 1.4375 1.0625 C0.4475 1.0625 -0.5425 1.0625 -1.5625 1.0625 C-1.75585938 1.82175781 -1.94921875 2.58101562 -2.1484375 3.36328125 C-2.53902344 4.85408203 -2.53902344 4.85408203 -2.9375 6.375 C-3.32035156 7.85419922 -3.32035156 7.85419922 -3.7109375 9.36328125 C-4.5625 12.0625 -4.5625 12.0625 -6.5625 15.0625 C-4.73224538 0.11542062 -4.73224538 0.11542062 0 0 Z " fill="#328C3E" transform="translate(249.5625,187.9375)"/>
<path d="M0 0 C2 1 2 1 3.2890625 4.2734375 C3.74216125 5.63806434 4.18713794 7.0054082 4.625 8.375 C4.85445313 9.06078125 5.08390625 9.7465625 5.3203125 10.453125 C6.28795001 13.413635 7 15.86608457 7 19 C6.34 19 5.68 19 5 19 C4.82984375 18.33613281 4.6596875 17.67226562 4.484375 16.98828125 C3.06868431 11.83004654 1.8098499 7.94122403 -2 4 C-1.34 2.68 -0.68 1.36 0 0 Z " fill="#318C41" transform="translate(302,226)"/>
<path d="M0 0 C2.44358168 3.66537252 3.72189872 7.36872864 5.1875 11.5 C5.47302734 12.27214844 5.75855469 13.04429687 6.05273438 13.83984375 C6.31763672 14.58363281 6.58253906 15.32742187 6.85546875 16.09375 C7.09934326 16.77115234 7.34321777 17.44855469 7.59448242 18.14648438 C8 20 8 20 7 23 C6.34 22.67 5.68 22.34 5 22 C4.66073053 19.66752239 4.32759934 17.33414529 4 15 C3.34 14.34 2.68 13.68 2 13 C2 10.66666667 2 8.33333333 2 6 C1.34 6 0.68 6 0 6 C0 4.02 0 2.04 0 0 Z " fill="#2D8F3D" transform="translate(291,193)"/>
<path d="M0 0 C0.66 0.66 1.32 1.32 2 2 C3.32392972 3.01241685 4.65599167 4.01439389 6 5 C4.40084119 5.69906942 2.79544955 6.38389468 1.1875 7.0625 C0.29417969 7.44535156 -0.59914063 7.82820312 -1.51953125 8.22265625 C-4 9 -4 9 -7 8 C-6.175 7.566875 -5.35 7.13375 -4.5 6.6875 C-3.2625 5.8521875 -3.2625 5.8521875 -2 5 C-2 4.01 -2 3.02 -2 2 C-1.34 2 -0.68 2 0 2 C0 1.34 0 0.68 0 0 Z " fill="#2A933A" transform="translate(126,217)"/>
<path d="M0 0 C-2.64738916 1.4606285 -3.89448334 2 -7 2 C-7.33 3.32 -7.66 4.64 -8 6 C-11.3 6 -14.6 6 -18 6 C-15.05442083 4.03628055 -12.24961274 2.70234663 -9 1.3125 C-7.4221875 0.62607422 -7.4221875 0.62607422 -5.8125 -0.07421875 C-3 -1 -3 -1 0 0 Z " fill="#309140" transform="translate(103,199)"/>
<path d="M0 0 C0.33 0 0.66 0 1 0 C1.66 2.97 2.32 5.94 3 9 C1.02 10.32 -0.96 11.64 -3 13 C-2.45144652 8.428721 -1.58255197 4.32564205 0 0 Z " fill="#2A9436" transform="translate(172,297)"/>
<path d="M0 0 C2.64 0 5.28 0 8 0 C4.89579356 2.06947096 1.9681325 3.32446144 -1.5 4.6875 C-2.6446875 5.14511719 -3.789375 5.60273438 -4.96875 6.07421875 C-8 7 -8 7 -11 6 C-7.27034861 3.96564469 -5.33094958 3 -1 3 C-0.67 2.01 -0.34 1.02 0 0 Z " fill="#2B8A3E" transform="translate(82,237)"/>
<path d="M0 0 C3.9492568 0.55105909 7.34920174 1.38935371 11 3 C11 3.33 11 3.66 11 4 C9.02 4 7.04 4 5 4 C4.67 4.66 4.34 5.32 4 6 C2.68 5.34 1.36 4.68 0 4 C0 2.68 0 1.36 0 0 Z " fill="#268B35" transform="translate(384,193)"/>
<path d="M0 0 C1.73694677 2.60542016 2.69100448 4.58342775 3.6875 7.5 C3.95949219 8.2734375 4.23148437 9.046875 4.51171875 9.84375 C5 12 5 12 4 15 C3.54625 14.071875 3.0925 13.14375 2.625 12.1875 C1.0578367 8.96078611 1.0578367 8.96078611 -1 6 C-0.625 2.8125 -0.625 2.8125 0 0 Z " fill="#2F8D3F" transform="translate(326,294)"/>
<path d="M0 0 C0 0.66 0 1.32 0 2 C-0.56589844 2.20496094 -1.13179688 2.40992188 -1.71484375 2.62109375 C-2.44832031 2.89050781 -3.18179687 3.15992188 -3.9375 3.4375 C-4.66839844 3.70433594 -5.39929688 3.97117187 -6.15234375 4.24609375 C-7.98305678 4.85386948 -7.98305678 4.85386948 -9 6 C-10.99958364 6.04080783 -13.00045254 6.04254356 -15 6 C-12.61874536 3.61874536 -10.66142433 2.99813759 -7.5 1.875 C-6.5203125 1.52179688 -5.540625 1.16859375 -4.53125 0.8046875 C-2 0 -2 0 0 0 Z " fill="#338B3D" transform="translate(400,265)"/>
<path d="M0 0 C3.55780196 0.60990891 6.6828589 1.5783681 10 3 C10 5.97 10 8.94 10 12 C9.67 12 9.34 12 9 12 C9 9.69 9 7.38 9 5 C8.443125 4.9175 7.88625 4.835 7.3125 4.75 C4.30285794 3.77389987 2.37845248 2.04811186 0 0 Z " fill="#2F8E41" transform="translate(474,229)"/>
<path d="M0 0 C-2.12124966 0.86343824 -4.24713072 1.71550648 -6.375 2.5625 C-8.15003906 3.27599609 -8.15003906 3.27599609 -9.9609375 4.00390625 C-13 5 -13 5 -15 4 C-10.19555552 -0.3805229 -6.29229022 -1.77266671 0 0 Z " fill="#309140" transform="translate(119,227)"/>
<path d="M0 0 C0 1.65 0 3.3 0 5 C-0.33 4.01 -0.66 3.02 -1 2 C-1.99 2 -2.98 2 -4 2 C-4 3.32 -4 4.64 -4 6 C-5.32 6.33 -6.64 6.66 -8 7 C-8.33 6.01 -8.66 5.02 -9 4 C-3.375 0 -3.375 0 0 0 Z " fill="#29953C" transform="translate(138,184)"/>
<path d="M0 0 C1.25 1.5625 1.25 1.5625 2 4 C0.6267004 7.50347454 -1.35009122 10.35009122 -4 13 C-3.71517632 11.58194169 -3.42181856 10.16559621 -3.125 8.75 C-2.96257812 7.96109375 -2.80015625 7.1721875 -2.6328125 6.359375 C-2.00849925 4.03168856 -1.15161458 2.10968048 0 0 Z " fill="#308C3F" transform="translate(187,255)"/>
<path d="M0 0 C0.8723412 2.99480917 1.10829766 5.63575911 1.0625 8.75 C1.05347656 9.54921875 1.04445312 10.3484375 1.03515625 11.171875 C1.01775391 12.07679688 1.01775391 12.07679688 1 13 C0.01 12.67 -0.98 12.34 -2 12 C-3.02095523 9.64000299 -3.09196987 8.352444 -2.44140625 5.859375 C-2.15136719 5.16328125 -1.86132812 4.4671875 -1.5625 3.75 C-1.27503906 3.04359375 -0.98757812 2.3371875 -0.69140625 1.609375 C-0.46324219 1.07828125 -0.23507813 0.5471875 0 0 Z " fill="#258B36" transform="translate(219,161)"/>
<path d="M0 0 C1.875 0.25 1.875 0.25 4 1 C5.25 3.0625 5.25 3.0625 6 5 C0.25 4.25 0.25 4.25 -2 2 C-1.34 2 -0.68 2 0 2 C0 1.34 0 0.68 0 0 Z " fill="#2D953D" transform="translate(106,299)"/>
<path d="M0 0 C-1.76505435 0.86604534 -3.53728074 1.71748642 -5.3125 2.5625 C-6.79169922 3.27599609 -6.79169922 3.27599609 -8.30078125 4.00390625 C-11 5 -11 5 -14 4 C-12.75264433 3.3490741 -11.50198168 2.70448331 -10.25 2.0625 C-9.55390625 1.70285156 -8.8578125 1.34320313 -8.140625 0.97265625 C-2.85659656 -1.42829828 -2.85659656 -1.42829828 0 0 Z " fill="#398545" transform="translate(477,269)"/>
<path d="M0 0 C1.73694677 2.60542016 2.69100448 4.58342775 3.6875 7.5 C3.95949219 8.2734375 4.23148437 9.046875 4.51171875 9.84375 C5 12 5 12 4 15 C3.72285156 14.30132812 3.44570313 13.60265625 3.16015625 12.8828125 C2.79792969 11.97273437 2.43570312 11.06265625 2.0625 10.125 C1.70285156 9.22007812 1.34320313 8.31515625 0.97265625 7.3828125 C0.05098738 5.03862333 0.05098738 5.03862333 -1 3 C-0.67 2.01 -0.34 1.02 0 0 Z " fill="#338B40" transform="translate(285,175)"/>
<path d="M0 0 C0.66 0 1.32 0 2 0 C0.515 5.445 0.515 5.445 -1 11 C-1.33 11 -1.66 11 -2 11 C-2.19622241 6.78121808 -1.80230168 3.82989106 0 0 Z " fill="#2F7F3C" transform="translate(210,300)"/>
<path d="" fill="#FFFFFF" transform="translate(0,0)"/>
<path d="" fill="#FFFFFF" transform="translate(0,0)"/>
<path d="" fill="#FFFFFF" transform="translate(0,0)"/>
<path d="" fill="#FFFFFF" transform="translate(0,0)"/>
<path d="" fill="#FFFFFF" transform="translate(0,0)"/>
<path d="" fill="#FFFFFF" transform="translate(0,0)"/>
<path d="" fill="#FFFFFF" transform="translate(0,0)"/>
<path d="" fill="#FFFFFF" transform="translate(0,0)"/>
<path d="" fill="#FFFFFF" transform="translate(0,0)"/>
<path d="" fill="#FFFFFF" transform="translate(0,0)"/>
<path d="" fill="#FFFFFF" transform="translate(0,0)"/>
<path d="" fill="#FFFFFF" transform="translate(0,0)"/>
<path d="" fill="#FFFFFF" transform="translate(0,0)"/>
<path d="" fill="#FFFFFF" transform="translate(0,0)"/>
<path d="" fill="#FFFFFF" transform="translate(0,0)"/>
<path d="" fill="#FFFFFF" transform="translate(0,0)"/>
<path d="" fill="#FFFFFF" transform="translate(0,0)"/>
<path d="" fill="#FFFFFF" transform="translate(0,0)"/>
<path d="" fill="#FFFFFF" transform="translate(0,0)"/>
<path d="" fill="#FFFFFF" transform="translate(0,0)"/>
<path d="" fill="#FFFFFF" transform="translate(0,0)"/>
<path d="" fill="#FFFFFF" transform="translate(0,0)"/>
<path d="" fill="#FFFFFF" transform="translate(0,0)"/>
<path d="" fill="#FFFFFF" transform="translate(0,0)"/>
<path d="" fill="#FFFFFF" transform="translate(0,0)"/>
<path d="" fill="#FFFFFF" transform="translate(0,0)"/>
<path d="" fill="#FFFFFF" transform="translate(0,0)"/>
<path d="" fill="#FFFFFF" transform="translate(0,0)"/>
<path d="" fill="#FFFFFF" transform="translate(0,0)"/>
<path d="" fill="#FFFFFF" transform="translate(0,0)"/>
<path d="" fill="#FFFFFF" transform="translate(0,0)"/>
<path d="" fill="#FFFFFF" transform="translate(0,0)"/>
<path d="" fill="#FFFFFF" transform="translate(0,0)"/>
<path d="" fill="#FFFFFF" transform="translate(0,0)"/>
<path d="" fill="#FFFFFF" transform="translate(0,0)"/>
<path d="" fill="#FFFFFF" transform="translate(0,0)"/>
<path d="" fill="#FFFFFF" transform="translate(0,0)"/>
<path d="" fill="#FFFFFF" transform="translate(0,0)"/>
<path d="" fill="#FFFFFF" transform="translate(0,0)"/>
<path d="" fill="#FFFFFF" transform="translate(0,0)"/>
<path d="" fill="#FFFFFF" transform="translate(0,0)"/>
<path d="" fill="#FFFFFF" transform="translate(0,0)"/>
<path d="" fill="#FFFFFF" transform="translate(0,0)"/>
<path d="" fill="#FFFFFF" transform="translate(0,0)"/>
<path d="" fill="#FFFFFF" transform="translate(0,0)"/>
<path d="" fill="#FFFFFF" transform="translate(0,0)"/>
<path d="" fill="#FFFFFF" transform="translate(0,0)"/>
<path d="" fill="#FFFFFF" transform="translate(0,0)"/>
<path d="" fill="#FFFFFF" transform="translate(0,0)"/>
<path d="" fill="#FFFFFF" transform="translate(0,0)"/>
<path d="" fill="#FFFFFF" transform="translate(0,0)"/>
<path d="" fill="#FFFFFF" transform="translate(0,0)"/>
<path d="" fill="#FFFFFF" transform="translate(0,0)"/>
<path d="" fill="#FFFFFF" transform="translate(0,0)"/>
<path d="" fill="#FFFFFF" transform="translate(0,0)"/>
<path d="" fill="#FFFFFF" transform="translate(0,0)"/>
<path d="" fill="#FFFFFF" transform="translate(0,0)"/>
<path d="" fill="#FFFFFF" transform="translate(0,0)"/>
<path d="" fill="#FFFFFF" transform="translate(0,0)"/>
<path d="" fill="#FFFFFF" transform="translate(0,0)"/>
<path d="" fill="#FFFFFF" transform="translate(0,0)"/>
<path d="" fill="#FFFFFF" transform="translate(0,0)"/>
<path d="" fill="#FFFFFF" transform="translate(0,0)"/>
<path d="" fill="#FFFFFF" transform="translate(0,0)"/>
<path d="" fill="#FFFFFF" transform="translate(0,0)"/>
<path d="" fill="#FFFFFF" transform="translate(0,0)"/>
<path d="" fill="#FFFFFF" transform="translate(0,0)"/>
<path d="" fill="#FFFFFF" transform="translate(0,0)"/>
<path d="" fill="#FFFFFF" transform="translate(0,0)"/>
<path d="" fill="#FFFFFF" transform="translate(0,0)"/>
<path d="" fill="#FFFFFF" transform="translate(0,0)"/>
<path d="" fill="#FFFFFF" transform="translate(0,0)"/>
</svg>
