<?xml version="1.0" encoding="UTF-8"?>
<svg version="1.1" xmlns="http://www.w3.org/2000/svg" width="1414" height="2000">
<path d="M0 0 C466.62 0 933.24 0 1414 0 C1414 660 1414 1320 1414 2000 C947.38 2000 480.76 2000 0 2000 C0 1340 0 680 0 0 Z " fill="#000000" transform="translate(0,0)"/>
<path d="M0 0 C5.19654995 3.74151596 9.48904818 8.10052434 10.78125 14.5 C10.8946875 15.4075 11.008125 16.315 11.125 17.25 C9.0257236 18.5916203 6.9212168 19.92336839 4.8125 21.25 C4.21759766 21.6315625 3.62269531 22.013125 3.00976562 22.40625 C-1.53515625 25.25 -1.53515625 25.25 -4.875 25.25 C-6.19921875 23.421875 -6.19921875 23.421875 -7.5625 21 C-10.99415764 15.55727118 -14.74996324 13.48499064 -20.79296875 11.67578125 C-28.75123232 10.04829395 -35.96482025 10.95900129 -42.875 15.25 C-49.96773259 21.26340371 -52.380749 28.29465898 -53.875 37.25 C-54.83660334 49.26363109 -54.20537569 62.38800614 -46.72265625 72.37109375 C-41.70894728 77.46960118 -36.00829138 79.51903006 -28.9375 79.8125 C-21.82162244 79.48195601 -14.83465264 77.90609852 -9.4375 73.0625 C-7.31067831 69.23422095 -5.53414415 65.30078278 -3.875 61.25 C0.35822844 61.87045463 3.64790295 63.35523559 7.4375 65.3125 C9.04044922 66.13427734 9.04044922 66.13427734 10.67578125 66.97265625 C11.48402344 67.39417969 12.29226563 67.81570313 13.125 68.25 C10.51372148 77.93921766 5.75842578 86.70838815 -2.875 92.25 C-15.58546984 98.37931467 -32.72824639 100.28700661 -46.25 95.625 C-48.66796875 94.50390625 -48.66796875 94.50390625 -50.875 93.25 C-52.04482422 92.61384766 -52.04482422 92.61384766 -53.23828125 91.96484375 C-64.1246429 85.39643395 -69.87082473 76.06855192 -73.875 64.25 C-75.16424678 57.71823172 -75.13538289 51.26124472 -75.1875 44.625 C-75.21650391 43.41714844 -75.24550781 42.20929687 -75.27539062 40.96484375 C-75.37129621 27.25772288 -71.30401083 15.42036743 -61.99609375 5.18359375 C-45.58268309 -10.16874794 -18.84412606 -11.36235607 0 0 Z " fill="#FBFBFB" transform="translate(530.875,958.75)"/>
<path d="M0 0 C0.928125 0.5775 1.85625 1.155 2.8125 1.75 C8.67033258 7.77519923 9.59117566 14.20691125 9.57421875 22.3359375 C9.58838333 23.29650055 9.60254791 24.2570636 9.61714172 25.24673462 C9.65879881 28.28960621 9.67424391 31.33188425 9.6875 34.375 C9.71656224 37.43926484 9.75105289 40.50338067 9.78999329 43.5675354 C9.81247734 45.46832512 9.82829877 47.36920757 9.83683777 49.27011108 C9.84387222 50.12505157 9.85090668 50.97999207 9.8581543 51.86083984 C9.86163376 52.61392426 9.86511322 53.36700867 9.86869812 54.14291382 C9.88751933 56.09422083 9.88751933 56.09422083 11 58 C12.89533342 58.46523063 12.89533342 58.46523063 15.0625 58.625 C17.0115625 58.810625 17.0115625 58.810625 19 59 C19 63.62 19 68.24 19 73 C15.40998391 74.19667203 12.4095161 74.20538881 8.625 74.25 C6.66433594 74.28867188 6.66433594 74.28867188 4.6640625 74.328125 C0.82878391 73.98466722 -0.98096492 73.32360835 -4 71 C-7 66.75862069 -7 66.75862069 -7 64 C-7.721875 64.7425 -8.44375 65.485 -9.1875 66.25 C-16.89984635 73.79096087 -21.70889706 75.44229636 -32.20581055 75.43603516 C-38.29655033 75.29197035 -42.58584367 74.46099088 -47 70 C-47.74443359 69.27876953 -47.74443359 69.27876953 -48.50390625 68.54296875 C-53.97356802 62.63698068 -54.41902497 56.54693442 -54.23828125 48.83203125 C-53.76555235 43.21353207 -51.41615913 40.18683522 -47.5 36.375 C-39.71880668 29.96363563 -30.16914491 28.45229961 -20.48046875 26.80859375 C-16.94850614 25.98803678 -14.16289086 24.74855069 -11 23 C-10.9071875 21.081875 -10.9071875 21.081875 -10.8125 19.125 C-10.77769531 18.40570312 -10.74289062 17.68640625 -10.70703125 16.9453125 C-10.80371094 16.30335938 -10.90039062 15.66140625 -11 15 C-16.27980437 11.48013042 -22.87080334 12.3789248 -29 13 C-34.22390361 14.79862799 -38.40974187 17.78534916 -42 22 C-45.68646141 20.54144353 -47.16143971 18.69770955 -49.25 15.375 C-49.77078125 14.55773437 -50.2915625 13.74046875 -50.828125 12.8984375 C-51.21484375 12.27195312 -51.6015625 11.64546875 -52 11 C-49.01902165 4.04937712 -41.98785593 0.72612827 -35.37109375 -2.23828125 C-24.75493891 -5.64874286 -9.55883741 -6.24250606 0 0 Z " fill="#FAFAFA" transform="translate(607,981)"/>
<path d="M0 0 C6.6 0 13.2 0 20 0 C21.76008701 4.87051897 23.52000908 9.74109696 25.27954102 14.61181641 C25.87580349 16.26224016 26.47215484 17.91263181 27.06860352 19.56298828 C28.5040958 23.53504011 29.93805522 27.50762761 31.36865234 31.48144531 C32.41656708 34.39069274 33.4742056 37.29605326 34.54150391 40.19824219 C34.77654129 40.8424411 35.01157867 41.48664001 35.2537384 42.15036011 C35.88144994 43.87069136 36.51343925 45.58946006 37.14575195 47.30810547 C38 50 38 50 38 53 C38.99 53 39.98 53 41 53 C41.259021 51.72640625 41.51804199 50.4528125 41.78491211 49.140625 C42.9599398 43.86583607 44.64363429 38.84073825 46.44140625 33.75 C46.76914536 32.81067627 47.09688446 31.87135254 47.43455505 30.90356445 C48.12215692 28.93632485 48.81221841 26.96994335 49.50463867 25.00439453 C50.56851381 21.9829204 51.62368641 18.95850839 52.67773438 15.93359375 C53.34845205 14.01805182 54.0196583 12.10268087 54.69140625 10.1875 C55.16641319 8.8267334 55.16641319 8.8267334 55.65101624 7.43847656 C56.09168678 6.1908252 56.09168678 6.1908252 56.54125977 4.91796875 C56.79948013 4.18344482 57.0577005 3.4489209 57.32374573 2.69213867 C58 1 58 1 59 0 C60.41570123 -0.08651611 61.835595 -0.10704904 63.25390625 -0.09765625 C64.53491211 -0.09282227 64.53491211 -0.09282227 65.84179688 -0.08789062 C67.18854492 -0.07532227 67.18854492 -0.07532227 68.5625 -0.0625 C69.46419922 -0.05798828 70.36589844 -0.05347656 71.29492188 -0.04882812 C73.53001314 -0.03700225 75.76497437 -0.0205222 78 0 C77.31383368 4.05634235 76.09539487 7.71187322 74.65625 11.5625 C74.41532623 12.21024384 74.17440247 12.85798767 73.92617798 13.52536011 C73.12152012 15.68511757 72.31110391 17.84265575 71.5 20 C70.92677938 21.53005779 70.35370341 23.06016977 69.78076172 24.59033203 C68.85866679 27.05147935 67.93575258 29.51230913 67.01095581 31.97244263 C64.89953085 37.59017745 62.80600824 43.21428709 60.72259521 48.84246826 C59.23084202 52.86744855 57.73078762 56.88930624 56.22924805 60.91064453 C55.50067324 62.86650466 54.77518176 64.82351649 54.05297852 66.78173828 C41.25110932 101.46127337 41.25110932 101.46127337 27.36108398 108.1862793 C22.90282561 109.72276727 18.4144823 109.49348284 13.75 109.375 C12.7703125 109.37371094 11.790625 109.37242188 10.78125 109.37109375 C2.93202909 109.27458694 2.93202909 109.27458694 -1 107 C-0.69075786 104.89535207 -0.3774944 102.7912947 -0.0625 100.6875 C0.11152344 99.51574219 0.28554688 98.34398437 0.46484375 97.13671875 C1 94 1 94 2 91 C2.78375 91.165 3.5675 91.33 4.375 91.5 C11.26895119 92.45088982 18.14389435 93.35803211 24 89 C26.08387061 86.50583362 27.87357725 84.05983493 29 81 C28.49288527 77.5571214 27.52274333 74.4514941 26.28515625 71.20751953 C25.93388672 70.2810965 25.58261719 69.35467346 25.22070312 68.400177 C24.83849609 67.40444672 24.45628906 66.40871643 24.0625 65.3828125 C23.66353516 64.33463348 23.26457031 63.28645447 22.85351562 62.20651245 C21.57267888 58.84459611 20.28630134 55.48482876 19 52.125 C18.16502699 49.93372236 17.33038839 47.74231726 16.49609375 45.55078125 C13.15921441 36.7990568 9.82113445 28.04911727 6.3671875 19.34277344 C5.94824219 18.28444305 5.52929688 17.22611267 5.09765625 16.13571167 C4.300197 14.12615974 3.49831835 12.11835428 2.69140625 10.11257935 C2.33691406 9.21932953 1.98242188 8.32607971 1.6171875 7.40576172 C1.30378418 6.62417694 0.99038086 5.84259216 0.66748047 5.037323 C0 3 0 3 0 0 Z " fill="#FAFAFA" transform="translate(847,978)"/>
<path d="M0 0 C0.75539063 -0.01160156 1.51078125 -0.02320313 2.2890625 -0.03515625 C7.78943763 -0.0068038 12.04419015 0.9302813 17 3.375 C18.33324888 6.83676902 17.75812988 9.01744488 16.625 12.5 C16.34914063 13.36882813 16.07328125 14.23765625 15.7890625 15.1328125 C15 17.375 15 17.375 14 19.375 C13.21625 19.045 12.4325 18.715 11.625 18.375 C5.92983295 16.80391943 0.40884421 16.29347811 -5.0625 18.75 C-7.0970615 20.23752499 -7.0970615 20.23752499 -8 22.375 C-8 25.675 -8 28.975 -8 32.375 C-0.74 32.375 6.52 32.375 14 32.375 C14 37.325 14 42.275 14 47.375 C6.74 47.375 -0.52 47.375 -8 47.375 C-8 67.835 -8 88.295 -8 109.375 C-14.27 109.375 -20.54 109.375 -27 109.375 C-27 89.245 -27 69.115 -27 48.375 C-30.63 48.375 -34.26 48.375 -38 48.375 C-38 43.095 -38 37.815 -38 32.375 C-34.37 32.375 -30.74 32.375 -27 32.375 C-27.33 31.715 -27.66 31.055 -28 30.375 C-28.14977039 28.12844413 -28.22150174 25.87636232 -28.25 23.625 C-28.27578125 22.41328125 -28.3015625 21.2015625 -28.328125 19.953125 C-27.80460597 14.24427458 -25.60027717 10.4186489 -21.3125 6.6875 C-20.68988281 6.12675781 -20.06726563 5.56601562 -19.42578125 4.98828125 C-13.2607777 0.88820642 -7.29635152 -0.11206001 0 0 Z " fill="#FCFCFC" transform="translate(830,945.625)"/>
<path d="M0 0 C0 5.94 0 11.88 0 18 C7.26 18 14.52 18 22 18 C22 23.28 22 28.56 22 34 C14.74 34 7.48 34 0 34 C0.0740717 39.46342649 0.15696384 44.9252371 0.26245117 50.38793945 C0.29565549 52.2452755 0.32370141 54.10271137 0.34643555 55.96020508 C0.38006442 58.63405798 0.43238374 61.30699993 0.48828125 63.98046875 C0.49467117 64.80773972 0.5010611 65.63501068 0.50764465 66.48735046 C0.62454247 71.09632405 0.96245031 74.28482889 4 78 C6.29569504 78.64147004 6.29569504 78.64147004 8.8125 78.375 C9.69292969 78.33117188 10.57335937 78.28734375 11.48046875 78.2421875 C14.35471797 77.96590308 17.17349599 77.59505348 20 77 C20.67467562 78.74692795 21.33944156 80.49768525 22 82.25 C22.37125 83.22453125 22.7425 84.1990625 23.125 85.203125 C24 88 24 88 24 92 C17.84148003 95.71835168 12.49667578 96.45873879 5.4375 96.5625 C4.23323364 96.60213867 4.23323364 96.60213867 3.00463867 96.64257812 C-4.66008733 96.5986137 -9.42876696 93.51409452 -14.8125 88.25 C-19.59593785 81.14317806 -20.43856494 74.12234918 -20.29296875 65.71484375 C-20.28872391 64.77314835 -20.28447906 63.83145294 -20.28010559 62.86122131 C-20.26346216 59.88634282 -20.22583772 56.91216986 -20.1875 53.9375 C-20.1724346 51.9069109 -20.15874946 49.87631107 -20.14648438 47.84570312 C-20.11360578 42.89686819 -20.0619244 37.94855325 -20 33 C-23.63 33 -27.26 33 -31 33 C-31 28.05 -31 23.1 -31 18 C-27.37 18 -23.74 18 -20 18 C-20 13.05 -20 8.1 -20 3 C-17.628125 2.505 -15.25625 2.01 -12.8125 1.5 C-12.07491455 1.34337891 -11.3373291 1.18675781 -10.57739258 1.02539062 C-6.89898414 0.27430979 -3.79719488 0 0 0 Z " fill="#F7F7F7" transform="translate(722,960)"/>
<path d="M0 0 C6.27 0 12.54 0 19 0 C19 3.96 19 7.92 19 12 C19.66 12 20.32 12 21 12 C21.226875 11.278125 21.45375 10.55625 21.6875 9.8125 C23.84996449 5.17864753 27.22245787 1.8445467 32 0 C35.12890625 -0.23046875 35.12890625 -0.23046875 38.5625 -0.1875 C40.26599609 -0.17783203 40.26599609 -0.17783203 42.00390625 -0.16796875 C45 0 45 0 48 1 C47.57045059 7.25107435 46.98598493 13.04204521 45 19 C44.42894531 18.84144531 43.85789062 18.68289063 43.26953125 18.51953125 C38.15276901 17.34822423 32.98301779 17.15391695 28.1875 19.5 C24.27056683 22.21318531 22.53360825 25.54533119 21 30 C20.43953197 33.69320812 20.39527051 37.3314703 20.390625 41.0625 C20.37408875 42.09439453 20.35755249 43.12628906 20.34051514 44.18945312 C20.29223739 47.45969719 20.27070866 50.7294769 20.25 54 C20.22182349 56.22788769 20.19189372 58.45575394 20.16015625 60.68359375 C20.0864835 66.12235758 20.03678518 71.56086667 20 77 C13.4 77 6.8 77 0 77 C0 51.59 0 26.18 0 0 Z " fill="#F9F9F9" transform="translate(639,978)"/>
<path d="M0 0 C6.27 0 12.54 0 19 0 C19 25.41 19 50.82 19 77 C12.73 77 6.46 77 0 77 C0 51.59 0 26.18 0 0 Z " fill="#FDFDFD" transform="translate(759,978)"/>
<path d="M0 0 C4.33219178 2.75684932 4.33219178 2.75684932 5.75 5.75 C6.3262693 10.01599354 6.19922458 13.60198163 4.625 17.625 C1.33653613 21.35192572 -1.86764256 22.57720532 -6.75 23.1875 C-10.9315053 22.66481184 -13.00429937 21.39184935 -16.25 18.75 C-19.0788298 14.5067553 -18.90268001 10.73265471 -18.25 5.75 C-14.02416083 -1.49429572 -7.78127232 -2.99279704 0 0 Z " fill="#F7F7F7" transform="translate(953.25,1033.25)"/>
<path d="M0 0 C0.92452027 14.62796518 0.92452027 14.62796518 -3.5859375 20.51171875 C-6.93240687 24.03383154 -9.06846302 24.91128219 -13.9375 25.375 C-17.87441773 25.21127185 -20.68593503 24.20937664 -24 22 C-26.39200824 18.84689823 -26.39458572 15.86694002 -26 12 C-24.55841304 8.12573504 -23.40544111 7.18770422 -19.625 5.4375 C-18.0894677 4.93902496 -16.54659193 4.46302289 -15 4 C-13.8965625 3.64679687 -12.793125 3.29359375 -11.65625 2.9296875 C-2.39597902 0 -2.39597902 0 0 0 Z " fill="#070707" transform="translate(598,1017)"/>
<path d="M0 0 C3.91475809 0.02542051 5.44718853 0.13081312 8.875 2.1875 C12.18511818 5.93896727 12.14063802 8.96069791 12.10546875 13.828125 C11.75 16.3125 11.75 16.3125 9.4375 19.375 C5.6490394 22.10621578 2.48329162 22.71098516 -2.1796875 22.66796875 C-5.91346135 22.02688682 -7.67156682 20.01671041 -10.25 17.3125 C-11.48724397 13.6007681 -11.9479689 10.16258649 -11.25 6.3125 C-8.8125 3.375 -8.8125 3.375 -6.25 1.3125 C-4.53310511 -0.40439489 -2.34121863 0.05946946 0 0 Z " fill="#FAFAFA" transform="translate(768.25,946.6875)"/>
</svg>
