<?xml version="1.0" encoding="UTF-8"?>
<svg version="1.1" xmlns="http://www.w3.org/2000/svg" width="1414" height="2000">
<path d="M0 0 C466.62 0 933.24 0 1414 0 C1414 660 1414 1320 1414 2000 C947.38 2000 480.76 2000 0 2000 C0 1340 0 680 0 0 Z " fill="#000000" transform="translate(0,0)"/>
<path d="M0 0 C8.91 0 17.82 0 27 0 C32.66910721 15.48881076 38.1224618 31.04128011 43.45849609 46.64767456 C44.19537771 48.80179446 44.93382583 50.95537911 45.67382812 53.10842896 C46.72609384 56.17225282 47.77213474 59.23813107 48.81640625 62.3046875 C49.13787125 63.23807449 49.45933624 64.17146149 49.7905426 65.13313293 C50.08210739 65.99395981 50.37367218 66.85478668 50.67407227 67.74169922 C50.9311647 68.49458221 51.18825714 69.24746521 51.45314026 70.02316284 C52 72 52 72 52 75 C52.66 75 53.32 75 54 75 C54.1712439 74.34202927 54.34248779 73.68405853 54.5189209 73.00614929 C56.38274538 65.99284204 58.55292136 59.132416 60.90625 52.26953125 C61.45520935 50.6566346 61.45520935 50.6566346 62.01525879 49.01115417 C62.78351036 46.75600735 63.55334698 44.50139993 64.32470703 42.24731445 C65.49997815 38.81256385 66.67032649 35.37616664 67.83984375 31.93945312 C68.59085984 29.73688163 69.34215246 27.5344044 70.09375 25.33203125 C70.44070923 24.31414017 70.78766846 23.29624908 71.1451416 22.24751282 C72.58792988 18.0344189 74.04413495 13.83244088 75.61914062 9.66674805 C76.8221995 6.47213327 77.92051335 3.23845994 79 0 C87.58 0 96.16 0 105 0 C105 33.66 105 67.32 105 102 C98.73 102 92.46 102 86 102 C86 79.89 86 57.78 86 35 C85.34 35 84.68 35 84 35 C83.86247314 35.56565674 83.72494629 36.13131348 83.58325195 36.71411133 C81.27970136 45.66742143 78.19716202 54.33094935 75.12182617 63.04077148 C74.19611967 65.66308247 73.27628187 68.28739257 72.35742188 70.91210938 C68.70212652 81.32644701 64.91151618 91.67910815 61 102 C55.39 102 49.78 102 44 102 C41.68867768 95.47538586 39.37748583 88.95072552 37.06640625 82.42602539 C36.28291201 80.21409914 35.49938433 78.00218474 34.71582031 75.7902832 C34.33780273 74.72318115 33.95978516 73.6560791 33.5703125 72.55664062 C33.19465149 71.4962558 32.81899048 70.43587097 32.4319458 69.34335327 C31.68277158 67.22780517 30.93403022 65.11210373 30.18572998 62.99624634 C28.50048902 58.2314622 26.81160923 53.46814387 25.10644531 48.71044922 C24.82310333 47.9168248 24.53976135 47.12320038 24.24783325 46.30552673 C23.72831842 44.85096622 23.20639968 43.39726111 22.68161011 41.94459534 C21 37.22498882 21 37.22498882 21 35 C20.34 35 19.68 35 19 35 C19 57.11 19 79.22 19 102 C12.73 102 6.46 102 0 102 C0 68.34 0 34.68 0 0 Z " fill="#FAFAFA" transform="translate(707,953)"/>
<path d="M0 0 C6.6 0 13.2 0 20 0 C20 35.64 20 71.28 20 108 C13.4 108 6.8 108 0 108 C0 104.7 0 101.4 0 98 C-0.66 98 -1.32 98 -2 98 C-2.20625 98.556875 -2.4125 99.11375 -2.625 99.6875 C-5.81129872 105.04627512 -10.14373578 107.4313578 -16 109 C-25.46615536 109.94067443 -34.1007426 109.9696678 -42 104 C-49.3824422 97.38789959 -53.41947937 88.08400671 -54.22265625 78.28295898 C-54.34007653 75.24850525 -54.37119229 72.22414525 -54.375 69.1875 C-54.41173828 67.66286133 -54.41173828 67.66286133 -54.44921875 66.10742188 C-54.4890505 55.69141928 -51.68791845 45.76259572 -44.21484375 38.19140625 C-37.8857747 32.32573724 -31.90344199 29.43031047 -23.125 29.5625 C-22.42463623 29.56934814 -21.72427246 29.57619629 -21.00268555 29.58325195 C-11.73570127 29.86979333 -7.47381008 32.52618992 -1 39 C-0.67 26.13 -0.34 13.26 0 0 Z " fill="#F9F9F9" transform="translate(1018,947)"/>
<path d="M0 0 C1.11375 0.598125 2.2275 1.19625 3.375 1.8125 C8.0632407 5.71936725 12.64682664 10.27855888 15 16 C15 16.99 15 17.98 15 19 C12.73354942 20.34130761 10.46239903 21.67316234 8.1875 23 C7.54490234 23.3815625 6.90230469 23.763125 6.24023438 24.15625 C1.33984375 27 1.33984375 27 -2 27 C-2.556875 25.9275 -3.11375 24.855 -3.6875 23.75 C-6.54522858 18.79393925 -10.42087384 15.65357889 -15.79296875 13.546875 C-23.94777875 11.52621412 -31.66697108 12.30964335 -38.9140625 16.53125 C-45.39082317 21.09166575 -48.47186849 27.39238314 -50 35 C-51.04459993 47.60926617 -51.42670471 62.11208414 -44 73 C-39.70490474 77.6121142 -35.38930445 80.66194761 -28.984375 81.30078125 C-17.87631952 81.40867463 -17.87631952 81.40867463 -8.22265625 76.5234375 C-4.43947418 72.47201025 -2.6559914 68.24397278 -1 63 C3.59808129 63.53894425 6.86784369 64.76571528 10.875 67.0625 C11.84179688 67.61035156 12.80859375 68.15820312 13.8046875 68.72265625 C14.89136719 69.35494141 14.89136719 69.35494141 16 70 C14.90978009 78.23590041 11.2623367 84.52045539 5 90 C4.236875 90.680625 3.47375 91.36125 2.6875 92.0625 C-9.40309609 100.77897625 -24.90435055 100.94172455 -39.28125 98.63378906 C-49.65700735 96.07705787 -58.15863414 89.23247539 -63.9375 80.4375 C-73.04395608 64.83254005 -74.97591522 44.85348929 -70.375 27.3125 C-66.25487647 15.13940776 -59.474729 5.58806218 -47.9375 -0.375 C-33.14922951 -7.48130985 -14.56355053 -7.87527419 0 0 Z " fill="#FAFAFA" transform="translate(406,957)"/>
<path d="M0 0 C0.95712891 0.58394531 0.95712891 0.58394531 1.93359375 1.1796875 C7.93588222 5.54264127 10.48167419 11.12067097 13 18 C13 25.26 13 32.52 13 40 C-3.5 40 -20 40 -37 40 C-35.0177246 49.98421271 -35.0177246 49.98421271 -28.5 56.875 C-21.91372124 58.99201817 -14.82427703 59.21665369 -8.4375 56.3125 C-5.22778383 54.45073116 -3.52798703 52.43797081 -2 49 C1.82990706 49.64743667 4.5283898 51.45311237 7.75 53.5625 C8.73484375 54.20316406 9.7196875 54.84382813 10.734375 55.50390625 C11.48203125 55.99761719 12.2296875 56.49132813 13 57 C9.75544956 64.82509225 4.39760485 69.77710177 -3.203125 73.2734375 C-8.37048391 75.36284784 -13.05454067 75.25810935 -18.5625 75.3125 C-19.51447266 75.34150391 -20.46644531 75.37050781 -21.44726562 75.40039062 C-31.66244185 75.49079041 -40.59132194 72.1537558 -48 65 C-55.49731387 56.14262919 -57.52512502 46.37532035 -57.4375 35 C-57.45748047 34.07960938 -57.47746094 33.15921875 -57.49804688 32.2109375 C-57.49100852 22.21648005 -54.03027435 13.28850199 -47.09765625 6 C-35.21152363 -5.3638948 -14.58913581 -9.22335027 0 0 Z " fill="#FAFAFA" transform="translate(534,981)"/>
<path d="M0 0 C0.928125 0.5775 1.85625 1.155 2.8125 1.75 C8.67033258 7.77519923 9.59117566 14.20691125 9.57421875 22.3359375 C9.58838333 23.29650055 9.60254791 24.2570636 9.61714172 25.24673462 C9.65879881 28.28960621 9.67424391 31.33188425 9.6875 34.375 C9.71656224 37.43926484 9.75105289 40.50338067 9.78999329 43.5675354 C9.81247734 45.46832512 9.82829877 47.36920757 9.83683777 49.27011108 C9.84387222 50.12505157 9.85090668 50.97999207 9.8581543 51.86083984 C9.86163376 52.61392426 9.86511322 53.36700867 9.86869812 54.14291382 C9.88751933 56.09422083 9.88751933 56.09422083 11 58 C12.89533342 58.46523063 12.89533342 58.46523063 15.0625 58.625 C17.0115625 58.810625 17.0115625 58.810625 19 59 C19 63.62 19 68.24 19 73 C15.40998391 74.19667203 12.4095161 74.20538881 8.625 74.25 C6.66433594 74.28867188 6.66433594 74.28867188 4.6640625 74.328125 C0.82878391 73.98466722 -0.98096492 73.32360835 -4 71 C-7 66.75862069 -7 66.75862069 -7 64 C-7.721875 64.7425 -8.44375 65.485 -9.1875 66.25 C-16.89984635 73.79096087 -21.70889706 75.44229636 -32.20581055 75.43603516 C-38.29655033 75.29197035 -42.58584367 74.46099088 -47 70 C-47.74443359 69.27876953 -47.74443359 69.27876953 -48.50390625 68.54296875 C-53.97356802 62.63698068 -54.41902497 56.54693442 -54.23828125 48.83203125 C-53.76555235 43.21353207 -51.41615913 40.18683522 -47.5 36.375 C-39.71880668 29.96363563 -30.16914491 28.45229961 -20.48046875 26.80859375 C-16.94850614 25.98803678 -14.16289086 24.74855069 -11 23 C-10.9071875 21.081875 -10.9071875 21.081875 -10.8125 19.125 C-10.77769531 18.40570312 -10.74289062 17.68640625 -10.70703125 16.9453125 C-10.80371094 16.30335938 -10.90039062 15.66140625 -11 15 C-16.27980437 11.48013042 -22.87080334 12.3789248 -29 13 C-34.22390361 14.79862799 -38.40974187 17.78534916 -42 22 C-45.68646141 20.54144353 -47.16143971 18.69770955 -49.25 15.375 C-49.77078125 14.55773437 -50.2915625 13.74046875 -50.828125 12.8984375 C-51.21484375 12.27195312 -51.6015625 11.64546875 -52 11 C-49.01902165 4.04937712 -41.98785593 0.72612827 -35.37109375 -2.23828125 C-24.75493891 -5.64874286 -9.55883741 -6.24250606 0 0 Z " fill="#FAFAFA" transform="translate(613,981)"/>
<path d="M0 0 C6.40017598 3.87379073 10.14140572 10.00955469 11.9296875 17.16796875 C12.32945922 21.73457221 12.27943568 26.27441168 12.22265625 30.85546875 C12.21841141 32.15371582 12.21416656 33.45196289 12.20979309 34.78955078 C12.19842172 38.21569632 12.16902293 41.64145109 12.13568115 45.06744385 C12.1048123 48.57355465 12.0912521 52.07972953 12.07617188 55.5859375 C12.04414416 62.44678981 11.99144094 69.3073202 11.9296875 76.16796875 C5.6596875 76.16796875 -0.6103125 76.16796875 -7.0703125 76.16796875 C-7.1000415 73.80680908 -7.1000415 73.80680908 -7.13037109 71.39794922 C-7.20652723 65.54964384 -7.29522974 59.70158401 -7.38769531 53.85351562 C-7.4259436 51.3239426 -7.46080367 48.79431595 -7.4921875 46.26464844 C-7.53792754 42.62545631 -7.59590844 38.98663198 -7.65625 35.34765625 C-7.66780121 34.21931366 -7.67935242 33.09097107 -7.69125366 31.92843628 C-7.76561842 24.33370567 -7.76561842 24.33370567 -10.0703125 17.16796875 C-14.68555047 14.6914996 -19.9393207 14.46178695 -25.0703125 15.16796875 C-29.37765405 16.57841196 -32.0917199 18.74186512 -34.4453125 22.60546875 C-36.48863559 27.08506169 -37.17918926 30.97529029 -37.27563477 35.86645508 C-37.29557999 36.76701126 -37.31552521 37.66756744 -37.33607483 38.59541321 C-37.36114357 40.03318367 -37.36114357 40.03318367 -37.38671875 41.5 C-37.40749985 42.49174728 -37.42828094 43.48349457 -37.44969177 44.5052948 C-37.51491302 47.66361774 -37.57394452 50.82202163 -37.6328125 53.98046875 C-37.67602381 56.12565931 -37.71963893 58.27084177 -37.76367188 60.41601562 C-37.87056627 65.66658435 -37.97191067 70.91723427 -38.0703125 76.16796875 C-44.3403125 76.16796875 -50.6103125 76.16796875 -57.0703125 76.16796875 C-57.0703125 50.75796875 -57.0703125 25.34796875 -57.0703125 -0.83203125 C-50.8003125 -0.83203125 -44.5303125 -0.83203125 -38.0703125 -0.83203125 C-37.7403125 2.79796875 -37.4103125 6.42796875 -37.0703125 10.16796875 C-36.0803125 8.93046875 -35.0903125 7.69296875 -34.0703125 6.41796875 C-25.36835606 -3.31993489 -12.18287801 -4.89613776 0 0 Z " fill="#FCFCFC" transform="translate(935.0703125,978.83203125)"/>
<path d="M0 0 C6.6 0 13.2 0 20 0 C20.02505615 2.71589355 20.0501123 5.43178711 20.07592773 8.22998047 C20.15927111 17.18670082 20.24797366 26.14336226 20.33933926 35.1000042 C20.39458778 40.53230607 20.44801086 45.96461331 20.49731445 51.39697266 C20.54492954 56.63598557 20.59727131 61.87493159 20.65294075 67.1138649 C20.67337726 69.11619534 20.69208816 71.11854414 20.70907402 73.12090683 C20.73308935 75.91774912 20.7631478 78.71446425 20.79467773 81.51123047 C20.80331093 82.76279434 20.80331093 82.76279434 20.81211853 84.03964233 C20.76414635 88.15240869 20.76414635 88.15240869 22 92 C23.89533342 92.46523063 23.89533342 92.46523063 26.0625 92.625 C28.0115625 92.810625 28.0115625 92.810625 30 93 C30.33776684 94.7491497 30.67003671 96.49936145 31 98.25 C31.185625 99.22453125 31.37125 100.1990625 31.5625 101.203125 C32 104 32 104 32 108 C25.63276736 110.12241088 16.69488034 110.19587564 10.30859375 108.12890625 C5.08552058 105.10606504 2.14808995 100.82109254 0.40985966 95.03588486 C-0.00773104 92.96159784 -0.12311132 91.10237714 -0.12025452 88.98834229 C-0.12162918 88.2003273 -0.12300385 87.41231232 -0.12442017 86.60041809 C-0.12082489 85.74518051 -0.11722961 84.88994293 -0.11352539 84.00878906 C-0.11367142 83.10112289 -0.11381744 82.19345673 -0.1139679 81.25828552 C-0.11327171 78.26070763 -0.10549302 75.26319202 -0.09765625 72.265625 C-0.09579103 70.1862593 -0.09436762 68.10689315 -0.09336853 66.02752686 C-0.08955157 60.55636378 -0.07972826 55.08522728 -0.06866455 49.61407471 C-0.05843281 44.03048054 -0.05386713 38.44688209 -0.04882812 32.86328125 C-0.03810528 21.90884062 -0.02051509 10.95442668 0 0 Z " fill="#F6F6F6" transform="translate(436,947)"/>
<path d="M0 0 C6.27 0 12.54 0 19 0 C19.33 3.63 19.66 7.26 20 11 C20.886875 9.741875 21.77375 8.48375 22.6875 7.1875 C25.07600418 3.79915686 27.20187839 1.73922544 31 0 C34.4453125 -0.328125 34.4453125 -0.328125 38.125 -0.25 C39.95417969 -0.22679687 39.95417969 -0.22679687 41.8203125 -0.203125 C45 0 45 0 48 1 C47.88399745 2.68814237 47.75668975 4.37550887 47.625 6.0625 C47.55539062 7.00222656 47.48578125 7.94195313 47.4140625 8.91015625 C46.94100641 12.44022572 46.04481267 15.59798802 45 19 C43.90300781 18.95359375 42.80601562 18.9071875 41.67578125 18.859375 C40.2213815 18.8218421 38.76695217 18.78544357 37.3125 18.75 C36.59126953 18.71648438 35.87003906 18.68296875 35.12695312 18.6484375 C31.6074575 18.58415447 29.41854145 18.78984379 26.23046875 20.390625 C20.49130177 27.10474679 19.40216555 35.04613729 19.390625 43.6015625 C19.37408875 44.564039 19.35755249 45.5265155 19.34051514 46.51815796 C19.29242526 49.55383939 19.2707514 52.5890214 19.25 55.625 C19.22180766 57.69924335 19.19187573 59.77346383 19.16015625 61.84765625 C19.08344238 66.89865865 19.04255993 71.94813621 19 77 C12.73 77 6.46 77 0 77 C0 51.59 0 26.18 0 0 Z " fill="#FBFBFB" transform="translate(645,978)"/>
<path d="M0 0 C6.6 0 13.2 0 20 0 C20 25.41 20 50.82 20 77 C13.4 77 6.8 77 0 77 C0 51.59 0 26.18 0 0 Z " fill="#F6F6F6" transform="translate(836,978)"/>
<path d="M0 0 C5.32611555 3.63144242 8.1398127 7.69786554 9.75 13.875 C10.07352486 17.00467355 10.12005568 20.10541056 10.125 23.25 C10.14949219 24.06210937 10.17398438 24.87421875 10.19921875 25.7109375 C10.23153373 32.43245344 8.65451679 37.76994864 3.99609375 42.75 C-1.60783068 46.23581044 -6.73210221 46.94301694 -13.25 45.875 C-18.17006067 43.54915314 -20.56231435 40.55356392 -23.25 35.875 C-24.7065272 31.50541839 -24.51542961 27.2658797 -24.5625 22.6875 C-24.59150391 21.76646484 -24.62050781 20.84542969 -24.65039062 19.89648438 C-24.71606304 12.77860533 -23.50114472 7.21664768 -18.42578125 2 C-12.1617994 -1.78202677 -6.94818876 -2.40514226 0 0 Z " fill="#030303" transform="translate(1008.25,994.125)"/>
<path d="M0 0 C3.79259576 2.04216695 7.00344184 4.11780358 9 8 C9.5494224 12.23840134 9.29119754 14.43917511 7.3125 18.25 C3.9735971 22.22058723 1.76336837 23.80763254 -3.4375 24.375 C-7.41345159 23.95647878 -9.69723365 23.25188615 -13 21 C-15.93650044 16.69313269 -16.8141245 13.15612183 -16 8 C-11.83468769 1.41147141 -7.91318163 -0.67060861 0 0 Z " fill="#F7F7F7" transform="translate(1072,1032)"/>
<path d="M0 0 C0.92452027 14.62796518 0.92452027 14.62796518 -3.5859375 20.51171875 C-6.93240687 24.03383154 -9.06846302 24.91128219 -13.9375 25.375 C-17.87441773 25.21127185 -20.68593503 24.20937664 -24 22 C-26.39200824 18.84689823 -26.39458572 15.86694002 -26 12 C-24.55841304 8.12573504 -23.40544111 7.18770422 -19.625 5.4375 C-18.0894677 4.93902496 -16.54659193 4.46302289 -15 4 C-13.8965625 3.64679687 -12.793125 3.29359375 -11.65625 2.9296875 C-2.39597902 0 -2.39597902 0 0 0 Z " fill="#070707" transform="translate(604,1017)"/>
<path d="M0 0 C3.68623011 1.61272567 4.75355 2.630325 7 6 C7.42740092 11.29977145 7.52351458 14.74748241 4 19 C0.29016528 22.16427079 -3.13072425 22.52028667 -7.84765625 22.35546875 C-11.12506791 21.81419024 -12.78820981 20.41286203 -15 18 C-17.29009062 14.22016185 -17.28252128 11.48618425 -16.65234375 7.1953125 C-15.80450588 4.3421096 -14.39168423 2.51632667 -11.9453125 0.80859375 C-8.03410169 -0.8171505 -4.12727531 -0.64079567 0 0 Z " fill="#F8F8F8" transform="translate(851,947)"/>
<path d="M0 0 C2.90759834 1.07186888 4.76902601 2.33209284 6.78125 4.6796875 C7.90625 7.4921875 7.90625 7.4921875 8.90625 15.4921875 C-1.65375 15.4921875 -12.21375 15.4921875 -23.09375 15.4921875 C-21.96984258 8.748743 -20.48086833 5.65196123 -15.46875 1.1171875 C-10.33399643 -1.35510126 -5.51372336 -1.33728365 0 0 Z " fill="#030303" transform="translate(520.09375,992.5078125)"/>
</svg>
