<?xml version="1.0" encoding="UTF-8"?>
<svg version="1.1" xmlns="http://www.w3.org/2000/svg" width="1414" height="2000">
<path d="M0 0 C466.62 0 933.24 0 1414 0 C1414 660 1414 1320 1414 2000 C947.38 2000 480.76 2000 0 2000 C0 1340 0 680 0 0 Z " fill="#000000" transform="translate(0,0)"/>
<path d="M0 0 C6.6 0 13.2 0 20 0 C20 35.64 20 71.28 20 108 C13.4 108 6.8 108 0 108 C0 104.7 0 101.4 0 98 C-0.66 98 -1.32 98 -2 98 C-2.20625 98.556875 -2.4125 99.11375 -2.625 99.6875 C-5.81129872 105.04627512 -10.14373578 107.4313578 -16 109 C-25.46615536 109.94067443 -34.1007426 109.9696678 -42 104 C-49.3824422 97.38789959 -53.41947937 88.08400671 -54.22265625 78.28295898 C-54.34007653 75.24850525 -54.37119229 72.22414525 -54.375 69.1875 C-54.41173828 67.66286133 -54.41173828 67.66286133 -54.44921875 66.10742188 C-54.4890505 55.69141928 -51.68791845 45.76259572 -44.21484375 38.19140625 C-37.8857747 32.32573724 -31.90344199 29.43031047 -23.125 29.5625 C-22.42463623 29.56934814 -21.72427246 29.57619629 -21.00268555 29.58325195 C-11.73570127 29.86979333 -7.47381008 32.52618992 -1 39 C-0.67 26.13 -0.34 13.26 0 0 Z " fill="#F9F9F9" transform="translate(774,947)"/>
<path d="M0 0 C7.72046037 5.70861402 12.44369535 13.38869736 14.3984375 22.7734375 C15.75924344 35.90583526 15.31497987 48.65616255 7.30859375 59.640625 C1.32693999 66.69590893 -5.45639929 71.99593454 -14.95288086 73.02929688 C-26.75936044 73.70564686 -36.6985465 73.89069943 -46.6015625 66.7734375 C-47.52775391 66.16435547 -47.52775391 66.16435547 -48.47265625 65.54296875 C-55.20643133 60.62277898 -58.70500954 52.66411771 -60.6015625 44.7734375 C-61.027232 40.95030109 -61.06697163 37.17978655 -61.0390625 33.3359375 C-61.05904297 32.36333984 -61.07902344 31.39074219 -61.09960938 30.38867188 C-61.09282128 20.22689021 -57.82072657 11.06367968 -50.59375 3.73828125 C-36.79968824 -9.14396965 -15.84540976 -9.99479693 0 0 Z " fill="#FBFBFB" transform="translate(602.6015625,983.2265625)"/>
<path d="M0 0 C1.11375 0.598125 2.2275 1.19625 3.375 1.8125 C8.0632407 5.71936725 12.64682664 10.27855888 15 16 C15 16.99 15 17.98 15 19 C12.73354942 20.34130761 10.46239903 21.67316234 8.1875 23 C7.54490234 23.3815625 6.90230469 23.763125 6.24023438 24.15625 C1.33984375 27 1.33984375 27 -2 27 C-2.556875 25.9275 -3.11375 24.855 -3.6875 23.75 C-6.54522858 18.79393925 -10.42087384 15.65357889 -15.79296875 13.546875 C-23.94777875 11.52621412 -31.66697108 12.30964335 -38.9140625 16.53125 C-45.39082317 21.09166575 -48.47186849 27.39238314 -50 35 C-51.04459993 47.60926617 -51.42670471 62.11208414 -44 73 C-39.70490474 77.6121142 -35.38930445 80.66194761 -28.984375 81.30078125 C-17.87631952 81.40867463 -17.87631952 81.40867463 -8.22265625 76.5234375 C-4.43947418 72.47201025 -2.6559914 68.24397278 -1 63 C3.59808129 63.53894425 6.86784369 64.76571528 10.875 67.0625 C11.84179688 67.61035156 12.80859375 68.15820312 13.8046875 68.72265625 C14.89136719 69.35494141 14.89136719 69.35494141 16 70 C14.90978009 78.23590041 11.2623367 84.52045539 5 90 C4.236875 90.680625 3.47375 91.36125 2.6875 92.0625 C-9.40309609 100.77897625 -24.90435055 100.94172455 -39.28125 98.63378906 C-49.65700735 96.07705787 -58.15863414 89.23247539 -63.9375 80.4375 C-73.04395608 64.83254005 -74.97591522 44.85348929 -70.375 27.3125 C-66.25487647 15.13940776 -59.474729 5.58806218 -47.9375 -0.375 C-33.14922951 -7.48130985 -14.56355053 -7.87527419 0 0 Z " fill="#FAFAFA" transform="translate(471,957)"/>
<path d="M0 0 C6.93 0 13.86 0 21 0 C23.5695637 7.06364253 26.1328982 14.12950182 28.69042969 21.19750977 C29.56175677 23.60275587 30.43479729 26.00738197 31.30957031 28.41137695 C32.56503688 31.86248659 33.81436943 35.3157628 35.0625 38.76953125 C35.45622803 39.84773636 35.84995605 40.92594147 36.25561523 42.03681946 C36.79617554 43.53803596 36.79617554 43.53803596 37.34765625 45.06958008 C37.66742432 45.95116287 37.98719238 46.83274567 38.31665039 47.74104309 C39 50 39 50 39 53 C41.82148962 51.58925519 41.86749967 50.07033548 42.87939453 47.11303711 C43.41972824 45.55153175 43.41972824 45.55153175 43.97097778 43.95848083 C44.35438324 42.8262056 44.7377887 41.69393036 45.1328125 40.52734375 C45.52951141 39.37456436 45.92621033 38.22178497 46.33493042 37.03407288 C47.60521043 33.33754836 48.86519565 29.63760624 50.125 25.9375 C50.98239911 23.43661785 51.8404633 20.93596361 52.69921875 18.43554688 C54.80721675 12.2929864 56.90598606 6.14734102 59 0 C65.6 0 72.2 0 79 0 C78.23593197 3.82034013 77.39282795 6.89066604 76.02563477 10.47924805 C75.61753067 11.55615402 75.20942657 12.63306 74.78895569 13.74259949 C74.34426437 14.90390884 73.89957306 16.0652182 73.44140625 17.26171875 C72.97822495 18.4803511 72.51504364 19.69898346 72.03782654 20.95454407 C70.80067093 24.20917683 69.55873779 27.4619666 68.31585693 30.7144165 C67.0909986 33.92238826 65.87092297 37.13217732 64.65039062 40.34179688 C63.20329141 44.14659331 61.75432231 47.95064387 60.29800415 51.75192261 C59.81470669 53.01348458 59.33142011 54.27505073 58.84814453 55.53662109 C58.61074869 56.15628691 58.37335285 56.77595272 58.1287632 57.41439629 C56.48367184 61.71587971 54.86606365 66.0270927 53.25732422 70.34228516 C52.81807114 71.51024124 52.37881805 72.67819733 51.92625427 73.88154602 C51.10801165 76.05767523 50.29689353 78.23650409 49.49476624 80.41862488 C45.16499816 91.87045811 39.92922095 102.3350901 28.3828125 107.671875 C23.51747522 109.39659134 18.86429332 109.40734965 13.75 109.3125 C12.42355469 109.31733398 12.42355469 109.31733398 11.0703125 109.32226562 C6.75903263 109.28644683 3.81120549 109.17450807 0 107 C0.47986031 101.43109483 1.29915181 96.32932432 3 91 C3.78375 91.165 4.5675 91.33 5.375 91.5 C12.26895119 92.45088982 19.14389435 93.35803211 25 89 C27.40003301 86.5227382 28.88641322 84.27153657 30 81 C29.7682437 78.78067896 29.7682437 78.78067896 28.92919922 76.53662109 C28.48915558 75.21933014 28.48915558 75.21933014 28.04022217 73.87542725 C26.11365992 68.54994029 24.12255057 63.25495977 22.0703125 57.9765625 C21.59810272 56.7539975 21.12589294 55.5314325 20.63937378 54.27182007 C19.64485994 51.6975678 18.64789443 49.12428454 17.64892578 46.55175781 C16.38248122 43.29027243 15.12067743 40.02701762 13.86055183 36.76308632 C12.64066897 33.60435613 11.41797065 30.44671956 10.1953125 27.2890625 C9.74930695 26.13556305 9.30330139 24.9820636 8.84378052 23.79360962 C6.30747778 17.26421909 3.67720587 10.78884199 0.91110229 4.3531189 C0 2 0 2 0 0 Z " fill="#FAFAFA" transform="translate(903,978)"/>
<path d="M0 0 C6.27 0 12.54 0 19 0 C19.01458252 1.57410645 19.02916504 3.14821289 19.04418945 4.77001953 C19.10222597 10.61839343 19.17945953 16.46638449 19.26245117 22.31445312 C19.29567514 24.84401225 19.32371489 27.37364505 19.34643555 29.90332031 C19.38002704 33.54263667 19.43234754 37.18127934 19.48828125 40.8203125 C19.49467117 41.94865509 19.5010611 43.07699768 19.50764465 44.23953247 C19.64539255 52.04455092 19.64539255 52.04455092 23 59 C27.26066925 61.84044616 30.99879057 61.51414303 36 61 C40.69331294 59.20800779 43.92216878 57.32151013 46.05819702 52.72077942 C47.02758638 49.92030555 47.27402126 47.79360061 47.31884766 44.8425293 C47.33871735 43.84186935 47.35858704 42.84120941 47.37905884 41.81022644 C47.39638565 40.20840263 47.39638565 40.20840263 47.4140625 38.57421875 C47.43342865 37.47149124 47.4527948 36.36876373 47.4727478 35.23262024 C47.53242923 31.71765834 47.57888375 28.20266349 47.625 24.6875 C47.66319026 22.30141817 47.7022426 19.91534997 47.7421875 17.52929688 C47.8381216 11.68630889 47.92219534 5.84325638 48 0 C54.6 0 61.2 0 68 0 C68 25.41 68 50.82 68 77 C61.73 77 55.46 77 49 77 C49 73.37 49 69.74 49 66 C47.948125 67.0828125 47.948125 67.0828125 46.875 68.1875 C39.95381063 75.0890826 35.1074665 78.35889303 25.25 78.375 C24.4765625 78.39949219 23.703125 78.42398437 22.90625 78.44921875 C16.18873132 78.48303176 10.89428188 76.76018388 5.9765625 72.0703125 C5.53054688 71.42835937 5.08453125 70.78640625 4.625 70.125 C3.93277344 69.16980469 3.93277344 69.16980469 3.2265625 68.1953125 C0.59975972 63.49383746 -0.24960599 59.15661903 -0.22705078 53.81103516 C-0.22689972 52.61024323 -0.22674866 51.40945129 -0.22659302 50.17227173 C-0.21627045 48.89081268 -0.20594788 47.60935364 -0.1953125 46.2890625 C-0.1915779 44.95242526 -0.18873304 43.61578526 -0.18673706 42.27914429 C-0.17913577 38.77744868 -0.15951788 35.2759215 -0.1373291 31.77429199 C-0.11679474 28.19460325 -0.10771918 24.61488704 -0.09765625 21.03515625 C-0.07626827 14.02336174 -0.0411151 7.01170632 0 0 Z " fill="#FAFAFA" transform="translate(634,978)"/>
<path d="M0 0 C1.31225809 3.93677426 0.3393954 5.7794262 -0.9375 9.6875 C-1.31777344 10.86699219 -1.69804688 12.04648437 -2.08984375 13.26171875 C-2.39019531 14.16535156 -2.69054687 15.06898438 -3 16 C-7.75 15.125 -7.75 15.125 -10 14 C-14.78710293 13.53648686 -19.34182456 13.15163117 -23.6875 15.375 C-25.74535599 19.00157211 -25.74535599 19.00157211 -25 28 C-14.11 28.495 -14.11 28.495 -3 29 C-3 34.28 -3 39.56 -3 45 C-10.26 45 -17.52 45 -25 45 C-25 65.13 -25 85.26 -25 106 C-31.6 106 -38.2 106 -45 106 C-45 85.87 -45 65.74 -45 45 C-48.63 45 -52.26 45 -56 45 C-56 39.72 -56 34.44 -56 29 C-52.37 29 -48.74 29 -45 29 C-45.33 27.68 -45.66 26.36 -46 25 C-46.69715421 16.99613337 -45.42246468 11.52987711 -40.8125 4.8125 C-30.84108568 -5.15891432 -12.33526456 -6.05549351 0 0 Z " fill="#F7F7F7" transform="translate(904,949)"/>
<path d="M0 0 C6.6 0 13.2 0 20 0 C20.02505615 2.71589355 20.0501123 5.43178711 20.07592773 8.22998047 C20.15927111 17.18670082 20.24797366 26.14336226 20.33933926 35.1000042 C20.39458778 40.53230607 20.44801086 45.96461331 20.49731445 51.39697266 C20.54492954 56.63598557 20.59727131 61.87493159 20.65294075 67.1138649 C20.67337726 69.11619534 20.69208816 71.11854414 20.70907402 73.12090683 C20.73308935 75.91774912 20.7631478 78.71446425 20.79467773 81.51123047 C20.80331093 82.76279434 20.80331093 82.76279434 20.81211853 84.03964233 C20.76414635 88.15240869 20.76414635 88.15240869 22 92 C23.89533342 92.46523063 23.89533342 92.46523063 26.0625 92.625 C28.0115625 92.810625 28.0115625 92.810625 30 93 C30.33776684 94.7491497 30.67003671 96.49936145 31 98.25 C31.185625 99.22453125 31.37125 100.1990625 31.5625 101.203125 C32 104 32 104 32 108 C25.63276736 110.12241088 16.69488034 110.19587564 10.30859375 108.12890625 C5.08552058 105.10606504 2.14808995 100.82109254 0.40985966 95.03588486 C-0.00773104 92.96159784 -0.12311132 91.10237714 -0.12025452 88.98834229 C-0.12162918 88.2003273 -0.12300385 87.41231232 -0.12442017 86.60041809 C-0.12082489 85.74518051 -0.11722961 84.88994293 -0.11352539 84.00878906 C-0.11367142 83.10112289 -0.11381744 82.19345673 -0.1139679 81.25828552 C-0.11327171 78.26070763 -0.10549302 75.26319202 -0.09765625 72.265625 C-0.09579103 70.1862593 -0.09436762 68.10689315 -0.09336853 66.02752686 C-0.08955157 60.55636378 -0.07972826 55.08522728 -0.06866455 49.61407471 C-0.05843281 44.03048054 -0.05386713 38.44688209 -0.04882812 32.86328125 C-0.03810528 21.90884062 -0.02051509 10.95442668 0 0 Z " fill="#F6F6F6" transform="translate(501,947)"/>
<path d="M0 0 C6.27 0 12.54 0 19 0 C19 25.41 19 50.82 19 77 C12.73 77 6.46 77 0 77 C0 51.59 0 26.18 0 0 Z " fill="#FEFEFE" transform="translate(816,978)"/>
<path d="M0 0 C4.79531837 3.34557095 7.93207483 7.3122527 9.6875 12.875 C9.90359532 15.48778884 10.02127539 17.9536439 10 20.5625 C9.99262817 21.62271362 9.99262817 21.62271362 9.98510742 22.7043457 C9.82382461 29.95214695 8.92194049 36.12491939 4.25 41.875 C-1.18712354 46.11860861 -5.53639731 46.54321352 -12.3125 45.875 C-17.37157915 44.65087499 -20.49392973 42.25944264 -23.3125 37.875 C-25.7814355 33.16720901 -25.61065738 28.68494468 -25.5625 23.5 C-25.57023438 22.675 -25.57796875 21.85 -25.5859375 21 C-25.56573865 14.63736155 -25.24044803 9.16769495 -21 4.125 C-14.30178335 -1.48280929 -8.45820508 -2.87259795 0 0 Z " fill="#030303" transform="translate(587.3125,994.125)"/>
<path d="M0 0 C5.32611555 3.63144242 8.1398127 7.69786554 9.75 13.875 C10.07352486 17.00467355 10.12005568 20.10541056 10.125 23.25 C10.14949219 24.06210937 10.17398438 24.87421875 10.19921875 25.7109375 C10.23153373 32.43245344 8.65451679 37.76994864 3.99609375 42.75 C-1.60783068 46.23581044 -6.73210221 46.94301694 -13.25 45.875 C-18.17006067 43.54915314 -20.56231435 40.55356392 -23.25 35.875 C-24.7065272 31.50541839 -24.51542961 27.2658797 -24.5625 22.6875 C-24.59150391 21.76646484 -24.62050781 20.84542969 -24.65039062 19.89648438 C-24.71606304 12.77860533 -23.50114472 7.21664768 -18.42578125 2 C-12.1617994 -1.78202677 -6.94818876 -2.40514226 0 0 Z " fill="#030303" transform="translate(764.25,994.125)"/>
<path d="M0 0 C3.79259576 2.04216695 7.00344184 4.11780358 9 8 C9.5494224 12.23840134 9.29119754 14.43917511 7.3125 18.25 C3.9735971 22.22058723 1.76336837 23.80763254 -3.4375 24.375 C-7.41345159 23.95647878 -9.69723365 23.25188615 -13 21 C-15.93650044 16.69313269 -16.8141245 13.15612183 -16 8 C-11.83468769 1.41147141 -7.91318163 -0.67060861 0 0 Z " fill="#F7F7F7" transform="translate(1007,1032)"/>
<path d="M0 0 C3.00197464 1.80118478 4.45166366 2.90332732 6 6 C6.52999351 9.78566792 6.83021253 13.44856036 4.98828125 16.890625 C2.84136401 19.54687096 1.25877827 20.91374058 -2 22 C-8.83159214 22.67195988 -8.83159214 22.67195988 -11.8203125 20.953125 C-14.67210185 18.61107577 -16.78971014 16.75471377 -17.23828125 13.01171875 C-17.3713075 8.84589668 -17.38831668 6.62130669 -15.125 3 C-10.76292586 -1.10548155 -5.72919175 -0.6200424 0 0 Z " fill="#FAFAFA" transform="translate(831,947)"/>
</svg>
