<?xml version="1.0" encoding="UTF-8"?>
<svg version="1.1" xmlns="http://www.w3.org/2000/svg" width="1414" height="2000">
<path d="M0 0 C466.62 0 933.24 0 1414 0 C1414 660 1414 1320 1414 2000 C947.38 2000 480.76 2000 0 2000 C0 1340 0 680 0 0 Z " fill="#000000" transform="translate(0,0)"/>
<path d="M0 0 C7.520727 4.44406596 11.09519746 13.20406164 13.40234375 21.28808594 C14.39686136 25.80079084 14.48865494 30.2061191 14.4375 34.8125 C14.42992676 35.7730127 14.42235352 36.73352539 14.41455078 37.72314453 C14.13313673 49.91432981 11.2588616 59.6641213 2.52734375 68.48828125 C-3.71720024 74.13334901 -9.83279106 75.51273359 -17.9375 75.4375 C-18.69740234 75.45748047 -19.45730469 75.47746094 -20.24023438 75.49804688 C-29.27891774 75.4903281 -34.137267 71.71894417 -41 66 C-41 78.87 -41 91.74 -41 105 C-47.27 105 -53.54 105 -60 105 C-60 69.36 -60 33.72 -60 -3 C-53.73 -3 -47.46 -3 -41 -3 C-41 0.3 -41 3.6 -41 7 C-40.26394531 6.37351562 -39.52789063 5.74703125 -38.76953125 5.1015625 C-37.79371094 4.28429687 -36.81789063 3.46703125 -35.8125 2.625 C-34.84957031 1.81289063 -33.88664063 1.00078125 -32.89453125 0.1640625 C-23.45828664 -6.89083563 -9.93357486 -5.52724204 0 0 Z " fill="#FCFCFC" transform="translate(840,979)"/>
<path d="M0 0 C6.27 0 12.54 0 19 0 C19 12.87 19 25.74 19 39 C21.97 36.69 24.94 34.38 28 32 C35.34799822 27.4442411 44.68405443 27.8171141 52.94921875 29.65625 C61.98851934 32.86776262 66.83738245 38.8552631 70.95703125 47.27734375 C73.53147158 53.99788648 74.36259034 60.11394196 74.3125 67.25 C74.30512817 68.49789307 74.30512817 68.49789307 74.29760742 69.77099609 C74.08853156 80.82950085 71.8677811 91.66279641 64.14453125 100.00390625 C57.66532042 106.00688881 51.34392118 108.56123731 42.5625 108.4375 C41.8111377 108.42992676 41.05977539 108.42235352 40.28564453 108.41455078 C30.85946731 108.13338678 25.80488522 104.23781145 19 98 C19 100.97 19 103.94 19 107 C12.73 107 6.46 107 0 107 C0 71.69 0 36.38 0 0 Z " fill="#FCFCFC" transform="translate(500,946)"/>
<path d="M0 0 C6.6 0 13.2 0 20 0 C20 12.54 20 25.08 20 38 C34.85 38 49.7 38 65 38 C65 25.46 65 12.92 65 0 C71.93 0 78.86 0 86 0 C86 33.66 86 67.32 86 102 C79.4 102 72.8 102 66 102 C66 86.82 66 71.64 66 56 C50.82 56 35.64 56 20 56 C20 71.18 20 86.36 20 102 C13.4 102 6.8 102 0 102 C0 68.34 0 34.68 0 0 Z " fill="#FAFAFA" transform="translate(309,951)"/>
<path d="M0 0 C1.78515625 2.19140625 1.78515625 2.19140625 3 4 C1.59586404 5.98919261 0.17802443 7.96557284 -1.25 9.9375 C-1.64574219 10.50146484 -2.04148437 11.06542969 -2.44921875 11.64648438 C-4.14849883 13.97254809 -5.49703665 15.75868854 -8.125 17.01953125 C-10.97904985 16.98980156 -12.28957261 15.15813193 -14.33203125 13.34765625 C-21.30377652 7.71474731 -30.51462401 8.12415098 -39 9 C-42.52543519 10.17883469 -45.27239608 11.54479216 -47 15 C-47.50380686 20.73250912 -47.50380686 20.73250912 -45.3125 25.875 C-40.55292773 30.24866101 -34.58519863 30.71093231 -28.4375 31.8125 C-16.94609998 34.01671415 -5.90620035 36.7411726 2 46 C7.13609755 53.9961402 8.15592562 62.32893776 6.5390625 71.66015625 C4.34003465 80.02939755 0.40865534 85.7529509 -6.9375 90.375 C-14.91092676 95.01644192 -22.20726916 95.36424764 -31.25 95.375 C-32.31863281 95.39949219 -33.38726563 95.42398437 -34.48828125 95.44921875 C-46.2841598 95.49221709 -58.41014445 91.53724194 -66.95703125 83.05859375 C-68.36697208 81.42411902 -69.69388312 79.71857484 -71 78 C-69.58319756 73.67953102 -67.46236215 70.99538801 -64.375 67.6875 C-63.14910156 66.36298828 -63.14910156 66.36298828 -61.8984375 65.01171875 C-61.27195312 64.34785156 -60.64546875 63.68398438 -60 63 C-57 64 -57 64 -54.8125 66.75 C-50.64926641 71.96658185 -44.5115618 75.62255424 -38 77 C-30.00230828 77.63437781 -22.50099023 77.65705456 -16 72.375 C-14.44333166 68.67791268 -14.15927012 64.92561274 -15 61 C-17.84044827 56.35576341 -20.62627523 55.01529937 -25.75 53.4375 C-26.40250732 53.23116943 -27.05501465 53.02483887 -27.72729492 52.81225586 C-31.86786473 51.53463095 -36.04043165 50.49929727 -40.26318359 49.53442383 C-50.44517674 47.18967844 -58.89614647 43.99429077 -64.8828125 34.98046875 C-69.02089074 27.6447846 -69.51671809 17.66725801 -67.34765625 9.5625 C-64.11999098 2.46994799 -58.21410406 -3.09432056 -51.125 -6.22265625 C-34.44622979 -12.32389756 -14.29749001 -10.72967599 0 0 Z " fill="#FBFBFB" transform="translate(757,959)"/>
<path d="M0 0 C1.31713989 0.01353516 1.31713989 0.01353516 2.66088867 0.02734375 C10.24740903 0.23030872 16.29975006 1.1070057 22.13671875 6.2734375 C28.50089928 13.0119816 29.35817741 19.42818059 29.44140625 28.39453125 C29.45840073 29.33809982 29.4753952 30.2816684 29.49290466 31.25382996 C29.54582752 34.25248628 29.58626609 37.25112948 29.625 40.25 C29.66890045 43.26665654 29.7155102 46.28320543 29.76780701 49.29972839 C29.79982207 51.17376074 29.82669396 53.0478891 29.84803772 54.92207336 C29.50096897 59.00488011 29.50096897 59.00488011 31.0625 62.4375 C33.39067964 62.80510731 35.7243385 63.13991581 38.0625 63.4375 C38.5575 70.3675 38.5575 70.3675 39.0625 77.4375 C35.43158953 78.64780349 32.03498636 78.73700617 28.25 78.8125 C27.20102539 78.86857422 27.20102539 78.86857422 26.13085938 78.92578125 C22.16626469 78.99253776 19.75435746 78.60116694 16.60546875 76.08984375 C14.00018335 73.37250306 13.27360882 72.13190428 13.0625 68.4375 C12.0725 68.4375 11.0825 68.4375 10.0625 68.4375 C9.835625 68.994375 9.60875 69.55125 9.375 70.125 C7.1519456 74.04181013 4.56605545 76.80626972 0.3828125 78.5625 C-6.77364111 80.44843601 -16.66842285 80.95699891 -23.5625 77.9375 C-28.05092136 75.15089694 -31.82259147 70.61227001 -33.578125 65.61328125 C-34.61847071 59.31466644 -35.40326266 51.31000856 -32.5 45.4375 C-23.63735026 35.06171494 -10.54823932 32.80008224 2.28515625 30.24609375 C5.18987022 29.40041753 6.89120199 28.53198322 9.0625 26.4375 C9.50859198 23.37858354 9.70108783 21.42083271 7.984375 18.77734375 C3.4745947 15.63333025 -3.65047961 16.94080706 -8.9375 17.4375 C-14.58752655 19.04438828 -18.55490366 22.68098885 -22.9375 26.4375 C-23.5975 26.4375 -24.2575 26.4375 -24.9375 26.4375 C-26.4006783 24.46309073 -27.74463064 22.50511129 -29.0625 20.4375 C-29.43503906 19.86515625 -29.80757813 19.2928125 -30.19140625 18.703125 C-31.11300408 17.28528218 -32.02605821 15.86189275 -32.9375 14.4375 C-30.01365923 11.42165026 -27.16736563 8.67107559 -23.6875 6.3125 C-22.65882813 5.59707031 -22.65882813 5.59707031 -21.609375 4.8671875 C-14.57589604 1.10365928 -7.92273395 -0.09740754 0 0 Z " fill="#FAFAFA" transform="translate(447.9375,974.5625)"/>
<path d="M0 0 C0.79623779 0.00346436 1.59247559 0.00692871 2.4128418 0.01049805 C8.41651046 0.12123524 13.70743707 0.88194986 19.25 3.3125 C20.178125 3.704375 21.10625 4.09625 22.0625 4.5 C26.08990737 7.83699468 28.60893772 12.38931317 30.25 17.3125 C30.35834882 18.72846667 30.4157726 20.14869496 30.43945312 21.56860352 C30.45617065 22.42281387 30.47288818 23.27702423 30.4901123 24.15711975 C30.50368774 25.0759343 30.51726318 25.99474884 30.53125 26.94140625 C30.55886414 28.35956886 30.55886414 28.35956886 30.58703613 29.80638123 C30.66576323 33.8557498 30.73354982 37.90528478 30.80224609 41.95483398 C30.85390751 44.9087767 30.91117539 47.86257385 30.96875 50.81640625 C30.98232544 51.73724503 30.99590088 52.6580838 31.0098877 53.60682678 C31.02660522 54.45788498 31.04332275 55.30894318 31.06054688 56.18579102 C31.07307495 56.93619156 31.08560303 57.6865921 31.09851074 58.45973206 C31.14181219 60.40682245 31.14181219 60.40682245 32.25 62.3125 C34.57156597 62.71979228 36.9068787 63.05688677 39.25 63.3125 C40.45568053 67.98451205 40.34382426 72.52746292 40.25 77.3125 C36.68559582 78.50063473 33.69525218 78.55437953 29.9375 78.625 C27.99423828 78.68107422 27.99423828 78.68107422 26.01171875 78.73828125 C21.66241402 78.24599234 19.60760701 77.06504341 16.25 74.3125 C14.25 71.3125 14.25 71.3125 14.25 68.3125 C13.26 68.3125 12.27 68.3125 11.25 68.3125 C10.9715625 69.3953125 10.9715625 69.3953125 10.6875 70.5 C8.54783897 74.68629332 4.94858109 77.35863912 0.50390625 78.9296875 C-7.93233353 80.36253238 -17.65028592 80.85078858 -24.98046875 75.9453125 C-29.54487228 71.73356708 -32.42974335 66.46641988 -33.05859375 60.2734375 C-33.30979841 53.28538053 -33.30477479 47.82172985 -28.8203125 42.2109375 C-21.28812727 35.30406576 -12.14302746 33.53468256 -2.41796875 31.9609375 C1.82943409 31.21006543 5.35521383 30.14066494 9.25 28.3125 C10.77150158 25.26949684 10.48899393 22.658415 10.25 19.3125 C4.97019563 15.79263042 -1.62080334 16.6914248 -7.75 17.3125 C-13.16093036 19.17552266 -16.81853244 22.22982215 -20.75 26.3125 C-21.74 26.3125 -22.73 26.3125 -23.75 26.3125 C-25.64453125 24.046875 -25.64453125 24.046875 -27.5625 21.0625 C-28.20832031 20.08796875 -28.85414063 19.1134375 -29.51953125 18.109375 C-30.75 15.3125 -30.75 15.3125 -30.11328125 13.109375 C-23.03835344 3.78425524 -11.26847954 -0.07914751 0 0 Z " fill="#FBFBFB" transform="translate(899.75,974.6875)"/>
<path d="M0 0 C6.27 0 12.54 0 19 0 C19 19.47 19 38.94 19 59 C19.99 59 20.98 59 22 59 C22.27166992 58.41895508 22.54333984 57.83791016 22.82324219 57.23925781 C23.99303726 55.01324942 25.28997578 53.15777656 26.828125 51.171875 C27.38113281 50.45386719 27.93414063 49.73585938 28.50390625 48.99609375 C29.36822266 47.88427734 29.36822266 47.88427734 30.25 46.75 C31.38057911 45.28674474 32.51078898 43.82320411 33.640625 42.359375 C34.20765137 41.64265625 34.77467773 40.9259375 35.35888672 40.1875 C37.03469232 38.03021179 37.03469232 38.03021179 38.39501953 35.6875 C41.74352594 30.33558328 41.74352594 30.33558328 45.34375 29.37402344 C48.06600292 29.21251664 50.65604667 29.29830874 53.375 29.5 C54.30183594 29.53609375 55.22867187 29.5721875 56.18359375 29.609375 C58.46005061 29.70324951 60.72783215 29.8342879 63 30 C62.1135343 34.49369453 59.559497 37.3096056 56.6875 40.75 C52.07489329 46.38489432 47.60168332 52.09844932 43.25 57.9375 C42.72494873 58.64165039 42.19989746 59.34580078 41.65893555 60.07128906 C40.43729451 61.71270916 39.21832892 63.35612002 38 65 C40.80222841 70.14182477 43.92906068 74.74214528 47.5 79.375 C52.00877288 85.31093925 56.43042269 91.29978221 60.75 97.375 C61.27529297 98.10638184 61.80058594 98.83776367 62.34179688 99.59130859 C62.82197266 100.27016113 63.30214844 100.94901367 63.796875 101.6484375 C64.43641113 102.54828369 64.43641113 102.54828369 65.08886719 103.46630859 C66 105 66 105 66 107 C59.03499313 108.3867028 51.83581828 109.33088235 45 107 C38.82827101 102.21820042 34.78475618 95.3567799 30.72753906 88.79003906 C28.96047519 85.93616597 27.13114866 83.14181544 25.2421875 80.3671875 C24.69159668 79.5510498 24.14100586 78.73491211 23.57373047 77.89404297 C22.05253876 75.72441043 22.05253876 75.72441043 19 75 C19 85.56 19 96.12 19 107 C12.73 107 6.46 107 0 107 C0 71.69 0 36.38 0 0 Z " fill="#FCFCFC" transform="translate(1013,946)"/>
<path d="M0 0 C0 5.61 0 11.22 0 17 C7.26 17 14.52 17 22 17 C22 21.95 22 26.9 22 32 C14.74 32 7.48 32 0 32 C0.09705289 37.46305589 0.19985649 42.92537396 0.31738281 48.38793945 C0.35560866 50.24529456 0.39047263 52.10272208 0.421875 53.96020508 C0.46766461 56.63388912 0.52563579 59.30707742 0.5859375 61.98046875 C0.59748871 62.80773972 0.60903992 63.63501068 0.62094116 64.48735046 C0.72835848 68.7064338 0.91717578 72.21233188 3 76 C5.44650661 77.22325331 7.08427851 77.13318057 9.8125 77.125 C10.66457031 77.12757812 11.51664063 77.13015625 12.39453125 77.1328125 C15.01919722 76.99902143 17.43994331 76.57911516 20 76 C20.83986084 77.93467942 21.67168027 79.87285129 22.5 81.8125 C22.9640625 82.89144531 23.428125 83.97039062 23.90625 85.08203125 C25 88 25 88 25 91 C18.82130339 94.7305338 13.51603182 95.43428691 6.4375 95.5 C5.63465576 95.51804687 4.83181152 95.53609375 4.00463867 95.5546875 C-2.72392436 95.48852525 -8.09331749 93.77200996 -13.0234375 89.0703125 C-13.46945312 88.42835937 -13.91546875 87.78640625 -14.375 87.125 C-15.06722656 86.16980469 -15.06722656 86.16980469 -15.7734375 85.1953125 C-19.1670902 79.12132264 -19.27038056 73.56298425 -19.1953125 66.7890625 C-19.1924826 65.82092621 -19.18965271 64.85278992 -19.18673706 63.85531616 C-19.17558696 60.77841572 -19.1504918 57.70181172 -19.125 54.625 C-19.11496352 52.5325563 -19.10583884 50.44010802 -19.09765625 48.34765625 C-19.07566453 43.23165749 -19.04117025 38.11587892 -19 33 C-22.96 33 -26.92 33 -31 33 C-31 27.72 -31 22.44 -31 17 C-27.04 17 -23.08 17 -19 17 C-19 12.05 -19 7.1 -19 2 C-12.46296317 0.52686494 -6.69425413 -0.21594368 0 0 Z " fill="#FBFBFB" transform="translate(655,959)"/>
<path d="M0 0 C6.27 0 12.54 0 19 0 C19.33 3.63 19.66 7.26 20 11 C20.556875 10.0925 21.11375 9.185 21.6875 8.25 C24.30171545 4.57596747 26.95847678 2.02076161 31 0 C33.31082534 -0.09735819 35.62462958 -0.12977373 37.9375 -0.125 C39.18402344 -0.12757813 40.43054688 -0.13015625 41.71484375 -0.1328125 C45 0 45 0 48 1 C47.51679152 7.2054142 46.66681876 12.99945246 45 19 C44.175 18.835 43.35 18.67 42.5 18.5 C34.8552274 17.37327733 34.8552274 17.37327733 27.6875 19.75 C22.83964054 23.80867303 20.38934857 27.83603715 19.78729248 34.27484131 C19.67353804 36.99402375 19.61891065 39.70832501 19.5859375 42.4296875 C19.56657135 43.42001984 19.5472052 44.41035217 19.5272522 45.43069458 C19.46770447 48.5787101 19.4211703 51.72676268 19.375 54.875 C19.3367974 57.01564052 19.29774435 59.15626604 19.2578125 61.296875 C19.16202327 66.5311275 19.07790072 71.76545194 19 77 C12.73 77 6.46 77 0 77 C0 51.59 0 26.18 0 0 Z " fill="#FCFCFC" transform="translate(953,976)"/>
<path d="M0 0 C6.27 0 12.54 0 19 0 C19 25.41 19 50.82 19 77 C12.73 77 6.46 77 0 77 C0 51.59 0 26.18 0 0 Z " fill="#FEFEFE" transform="translate(592,976)"/>
<path d="M0 0 C5.33178809 3.63531006 8.11730882 7.69979915 9.75 13.875 C10.61753942 22.13318852 11.01879466 31.57673817 6.75 38.875 C2.34947766 43.47925022 -1.05120441 46.02011323 -7.5 46.1875 C-13.94380587 46.12011379 -16.98745768 44.13754232 -21.5 39.625 C-26.36733057 31.97633767 -26.00347589 22.64357572 -25.25 13.875 C-23.66219196 7.42452984 -20.68654702 3.57647882 -15.25 -0.125 C-10.0828841 -1.84737197 -5.14400242 -1.78061622 0 0 Z " fill="#040404" transform="translate(544.25,992.125)"/>
<path d="M0 0 C4.84745409 3.30508233 7.99781849 7.29282882 9.75 12.875 C10.57729774 22.2831069 10.96473256 32.61710906 5.75 40.875 C1.84894467 45.05142394 -2.26258592 46.17787812 -7.875 46.4375 C-12.7198443 46.18956191 -15.61114787 45.24759466 -19.25 41.875 C-25.67139249 34.02663141 -26.1980699 24.64831316 -25.25 14.875 C-24.00539786 9.84949837 -22.42969201 6.05469201 -18.75 2.375 C-12.37192746 -1.45184353 -7.21181935 -2.49639901 0 0 Z " fill="#040404" transform="translate(824.25,992.125)"/>
<path d="M0 0 C0.47254797 7.75766248 0.47506089 14.38530062 -4 21 C-7.50803449 24.42450986 -10.29185985 25.26607559 -15.0625 25.5 C-18.6373437 25.36002118 -19.91793063 25.05024655 -23.0625 23.125 C-26.03762042 19.8619647 -26.40821314 17.47505472 -26.34375 13.03515625 C-25.7457536 9.49474573 -23.79468754 8.06563862 -21 6 C-19.01808662 5.28134585 -17.01453878 4.62135172 -15 4 C-13.33710937 3.47019531 -13.33710937 3.47019531 -11.640625 2.9296875 C-10.52171875 2.58164062 -9.4028125 2.23359375 -8.25 1.875 C-7.12078125 1.52179687 -5.9915625 1.16859375 -4.828125 0.8046875 C-2 0 -2 0 0 0 Z " fill="#080808" transform="translate(912,1015)"/>
<path d="M0 0 C4.37435832 3.08778234 4.37435832 3.08778234 5.1875 6.25 C5.6415225 11.24424753 5.37957216 14.31311101 2.1875 18.25 C-1.05049368 20.97285832 -3.10888867 22.1494841 -7.3125 22.75 C-12.47188765 22.01294462 -15.42955149 19.95563649 -18.6875 15.9375 C-20.17782395 12.37728167 -20.35013624 10.08065824 -19.8125 6.25 C-15.37696883 -1.45937561 -8.09606654 -4.28416854 0 0 Z " fill="#F7F7F7" transform="translate(1105.8125,1031.75)"/>
<path d="M0 0 C0.56886257 14.20049517 0.56886257 14.20049517 -3 19 C-7.45093454 23.11711445 -10.88708245 24.34922116 -16.99609375 24.29296875 C-20.14507222 23.83259178 -21.834621 22.23099654 -24 20 C-25.12992055 17.74015891 -25.29799956 16.20273513 -25.4375 13.6875 C-25.49808594 12.92824219 -25.55867188 12.16898438 -25.62109375 11.38671875 C-24.65620189 7.67886387 -22.15963988 5.88753883 -19 4 C-16.31991436 2.9400088 -13.62746464 2.28681505 -10.8125 1.6875 C-9.74612305 1.43516602 -9.74612305 1.43516602 -8.65820312 1.17773438 C-5.71204381 0.49870424 -3.03173986 0 0 0 Z " fill="#040404" transform="translate(458,1016)"/>
<path d="M0 0 C3.00197464 1.80118478 4.45166366 2.90332732 6 6 C6.52999351 9.78566792 6.83021253 13.44856036 4.98828125 16.890625 C2.84136401 19.54687096 1.25877827 20.91374058 -2 22 C-8.83159214 22.67195988 -8.83159214 22.67195988 -11.8203125 20.953125 C-14.67210185 18.61107577 -16.78971014 16.75471377 -17.23828125 13.01171875 C-17.3713075 8.84589668 -17.38831668 6.62130669 -15.125 3 C-10.76292586 -1.10548155 -5.72919175 -0.6200424 0 0 Z " fill="#FAFAFA" transform="translate(607,945)"/>
</svg>
