<?xml version="1.0" encoding="UTF-8"?>
<svg version="1.1" xmlns="http://www.w3.org/2000/svg" width="1414" height="2000">
<path d="M0 0 C466.62 0 933.24 0 1414 0 C1414 660 1414 1320 1414 2000 C947.38 2000 480.76 2000 0 2000 C0 1340 0 680 0 0 Z " fill="#000000" transform="translate(0,0)"/>
<path d="M0 0 C2.27475008 1.19209411 4.09286542 2.43965568 6.0234375 4.12890625 C6.5803125 4.61359375 7.1371875 5.09828125 7.7109375 5.59765625 C14.93370372 12.96487779 17.63307398 22.9320376 17.609375 32.98632812 C17.58101562 34.08525391 17.55265625 35.18417969 17.5234375 36.31640625 C17.52730469 37.98219727 17.52730469 37.98219727 17.53125 39.68164062 C17.40453162 50.39567964 14.90446367 59.91021351 7.390625 67.85546875 C1.08041256 73.59974286 -5.0072861 75.68302335 -13.4140625 75.56640625 C-14.53784302 75.55722168 -14.53784302 75.55722168 -15.68432617 75.54785156 C-23.87132307 75.31559633 -28.06126121 73.04420754 -33.9765625 67.12890625 C-34.3065625 79.33890625 -34.6365625 91.54890625 -34.9765625 104.12890625 C-41.2465625 104.12890625 -47.5165625 104.12890625 -53.9765625 104.12890625 C-53.9765625 69.80890625 -53.9765625 35.48890625 -53.9765625 0.12890625 C-47.7065625 0.12890625 -41.4365625 0.12890625 -34.9765625 0.12890625 C-34.9765625 3.09890625 -34.9765625 6.06890625 -34.9765625 9.12890625 C-34.3165625 9.12890625 -33.6565625 9.12890625 -32.9765625 9.12890625 C-32.7909375 8.57203125 -32.6053125 8.01515625 -32.4140625 7.44140625 C-26.03673038 -2.81778021 -10.52190042 -3.07924382 0 0 Z " fill="#FBFBFB" transform="translate(552.9765625,978.87109375)"/>
<path d="M0 0 C1.5859375 1.34375 1.5859375 1.34375 4.5859375 5.34375 C1.6159375 9.63375 -1.3540625 13.92375 -4.4140625 18.34375 C-6.56460377 17.26847937 -8.71349773 16.18971361 -10.8515625 15.08984375 C-12.12 14.44208984 -12.12 14.44208984 -13.4140625 13.78125 C-14.6825 13.12962891 -14.6825 13.12962891 -15.9765625 12.46484375 C-23.02955851 9.2209177 -31.84466907 9.07328793 -39.1015625 11.65625 C-41.63482352 13.30098544 -41.63482352 13.30098544 -43.4140625 16.34375 C-43.93625888 22.27397217 -43.93625888 22.27397217 -41.4140625 27.34375 C-35.89549712 29.6654372 -30.51990591 31.0662196 -24.6640625 32.21875 C-13.03557191 34.6795658 -1.8709615 37.81699275 5.3984375 47.84375 C9.24169756 55.93482381 10.0242708 64.52821859 7.86328125 73.265625 C4.43481004 82.42672217 -0.2236256 86.61122688 -8.6953125 91.14453125 C-14.91046294 93.8859841 -21.36178739 93.5949531 -28.0390625 93.65625 C-29.06902344 93.68525391 -30.09898437 93.71425781 -31.16015625 93.74414062 C-44.13614991 93.85023365 -54.53247501 88.87302275 -64.0390625 80.21875 C-66.4140625 77.34375 -66.4140625 77.34375 -66.34765625 75.5234375 C-65.01778021 72.41853864 -63.02700556 70.16751361 -60.8515625 67.59375 C-60.02527344 66.60890625 -59.19898438 65.6240625 -58.34765625 64.609375 C-57.70957031 63.86171875 -57.07148438 63.1140625 -56.4140625 62.34375 C-52.13027871 64.21004858 -49.26035248 67.1682291 -45.92578125 70.37109375 C-40.46434581 74.66040152 -35.16748064 75.83548314 -28.3515625 75.71875 C-27.67029297 75.73035156 -26.98902344 75.74195313 -26.28710938 75.75390625 C-21.60903739 75.7269433 -18.37430006 74.81665852 -14.4140625 72.34375 C-12.05703032 68.48678825 -11.93826697 64.78450828 -12.4140625 60.34375 C-15.1732629 55.28521593 -19.16665732 53.98452187 -24.4140625 52.34375 C-26.95941811 51.71120334 -29.51254024 51.15204629 -32.078125 50.60766602 C-43.4914984 48.18088516 -53.58612972 45.48219565 -60.4140625 35.34375 C-64.16713345 27.80081328 -64.40355573 20.6276892 -63.4140625 12.34375 C-60.91465731 5.19343698 -56.0786271 -0.13700797 -49.4140625 -3.65625 C-33.42342274 -10.78299752 -14.73933362 -9.52585754 0 0 Z " fill="#FAFAFA" transform="translate(474.4140625,960.65625)"/>
<path d="M0 0 C0.98613281 -0.03287109 1.97226562 -0.06574219 2.98828125 -0.09960938 C10.2215356 -0.15202426 15.73571294 1.3238072 21.75 5.4375 C28.00871351 11.96487762 29.04755262 19.25882225 29.1640625 27.9921875 C29.18342865 28.89373566 29.2027948 29.79528381 29.2227478 30.72415161 C29.28224296 33.58683996 29.32880817 36.44956918 29.375 39.3125 C29.41320747 41.26043363 29.4522608 43.20835086 29.4921875 45.15625 C29.58791965 49.91653258 29.67206116 54.6768942 29.75 59.4375 C32.06 59.7675 34.37 60.0975 36.75 60.4375 C37.68619813 63.59256142 37.8557123 66.40336502 37.8125 69.6875 C37.80347656 70.57953125 37.79445313 71.4715625 37.78515625 72.390625 C37.77355469 73.06609375 37.76195312 73.7415625 37.75 74.4375 C31.88774937 76.39158354 23.30069101 76.9002633 17.46484375 74.49609375 C14.94146815 72.51831288 13.82021139 70.66317945 12.875 67.625 C12.83375 66.903125 12.7925 66.18125 12.75 65.4375 C12.028125 66.18 11.30625 66.9225 10.5625 67.6875 C3.20051002 74.88589021 -1.62399396 76.87998692 -11.81347656 76.87353516 C-17.78209759 76.72400011 -21.88937873 75.73033959 -26.25 71.4375 C-26.74757813 70.96828125 -27.24515625 70.4990625 -27.7578125 70.015625 C-32.62934206 64.83788501 -33.74993944 58.58371568 -33.5625 51.70703125 C-32.83194467 46.4013732 -30.37185201 42.14854059 -26.375 38.625 C-19.93190244 34.11483171 -13.71357962 32.42794008 -6.125 30.8125 C-4.1640263 30.38297773 -2.20308742 29.95329648 -0.2421875 29.5234375 C0.62035645 29.3382959 1.48290039 29.1531543 2.37158203 28.96240234 C4.50868414 28.49075694 6.62998773 27.98022805 8.75 27.4375 C8.83096803 25.98007537 8.88917774 24.52137193 8.9375 23.0625 C8.97230469 22.25039063 9.00710938 21.43828125 9.04296875 20.6015625 C8.94628906 19.88742187 8.84960938 19.17328125 8.75 18.4375 C3.65236326 15.03907551 -2.30063455 15.8966486 -8.25 16.4375 C-12.54664927 17.72782501 -15.58462112 19.9051969 -19.0625 22.6875 C-21.25 24.4375 -21.25 24.4375 -24.25 24.4375 C-26.07421875 22.03125 -26.07421875 22.03125 -27.9375 18.9375 C-28.56011719 17.9165625 -29.18273437 16.895625 -29.82421875 15.84375 C-30.52998047 14.65265625 -30.52998047 14.65265625 -31.25 13.4375 C-22.28393621 3.60375262 -13.13710166 0.0760836 0 0 Z " fill="#F9F9F9" transform="translate(857.25,977.5625)"/>
<path d="M0 0 C6.27 0 12.54 0 19 0 C19.01458252 1.51352051 19.02916504 3.02704102 19.04418945 4.58642578 C19.10223807 10.21117572 19.17947146 15.8355281 19.26245117 21.45996094 C19.29566947 23.8925124 19.32371099 26.32514037 19.34643555 28.7578125 C19.38003758 32.25814358 19.43235834 35.75777555 19.48828125 39.2578125 C19.49467117 40.34240753 19.5010611 41.42700256 19.50764465 42.54446411 C19.6145325 48.05570027 19.78084076 52.29435389 23 57 C25.67655801 58.33827901 27.82434052 58.20578556 30.8125 58.25 C31.85019531 58.27578125 32.88789062 58.3015625 33.95703125 58.328125 C37.41483432 57.95526819 39.22211683 57.05534063 42 55 C44.73151223 51.00028567 46.11712551 48.17972211 46.20532227 43.36669922 C46.22526749 42.40585419 46.24521271 41.44500916 46.26576233 40.45504761 C46.29083107 38.89561935 46.29083107 38.89561935 46.31640625 37.3046875 C46.33718735 36.24210724 46.35796844 35.17952698 46.37937927 34.08474731 C46.44490261 30.68156562 46.50377273 27.27830511 46.5625 23.875 C46.60568257 21.57160634 46.64929677 19.26822074 46.69335938 16.96484375 C46.80058687 11.30997716 46.90184649 5.65503108 47 0 C53.27 0 59.54 0 66 0 C66 24.42 66 48.84 66 74 C60.06 74 54.12 74 48 74 C48 70.37 48 66.74 48 63 C47.34 63 46.68 63 46 63 C45.835 63.70125 45.67 64.4025 45.5 65.125 C42.93491411 70.04141463 38.21681751 73.26106083 33 75 C13.94274782 76.21726951 13.94274782 76.21726951 8 71 C1.12014953 63.95590907 -0.34184642 55.09844989 -0.33988953 45.5947113 C-0.32440567 44.43810501 -0.30892181 43.28149872 -0.29296875 42.08984375 C-0.28872391 40.88179581 -0.28447906 39.67374786 -0.28010559 38.42909241 C-0.26341094 34.59832788 -0.22577474 30.76810358 -0.1875 26.9375 C-0.17244131 24.32878368 -0.15875498 21.72005905 -0.14648438 19.11132812 C-0.11353742 12.74067958 -0.06181807 6.37043116 0 0 Z " fill="#F9F9F9" transform="translate(742,979)"/>
<path d="M0 0 C0 5.61 0 11.22 0 17 C6.93 17 13.86 17 21 17 C21 21.62 21 26.24 21 31 C14.07 31 7.14 31 0 31 C0.07415721 36.16031907 0.15712456 41.31895431 0.26245117 46.47851562 C0.2956122 48.23200627 0.32367142 49.98560138 0.34643555 51.73925781 C0.3801447 54.26672698 0.43246692 56.79324638 0.48828125 59.3203125 C0.49467117 60.09867462 0.5010611 60.87703674 0.50764465 61.6789856 C0.64068646 66.65483704 1.27737048 71.27737048 5 75 C9.60997613 75.26596016 12.80319843 74.86524514 17 73 C17.99 73 18.98 73 20 73 C20.67467562 74.74692795 21.33944156 76.49768525 22 78.25 C22.37125 79.22453125 22.7425 80.1990625 23.125 81.203125 C24 84 24 84 24 88 C15.6213007 92.96515514 6.51545833 93.32211329 -3 92 C-6.35370262 90.886836 -8.5274319 89.49880225 -11 87 C-11.49628906 86.51917969 -11.99257813 86.03835938 -12.50390625 85.54296875 C-18.24256227 79.34652821 -18.28351694 72.74837275 -18.1953125 64.7890625 C-18.1924826 63.82092621 -18.18965271 62.85278992 -18.18673706 61.85531616 C-18.17558696 58.77841572 -18.1504918 55.70181172 -18.125 52.625 C-18.11496352 50.5325563 -18.10583884 48.44010802 -18.09765625 46.34765625 C-18.07566453 41.23165749 -18.04117025 36.11587892 -18 31 C-21.63 31 -25.26 31 -29 31 C-29 26.38 -29 21.76 -29 17 C-25.37 17 -21.74 17 -18 17 C-18 12.05 -18 7.1 -18 2 C-11.77599753 0.41930096 -6.41762359 -0.20373408 0 0 Z " fill="#FDFDFD" transform="translate(707,962)"/>
<path d="M0 0 C6.27 0 12.54 0 19 0 C19.02505615 2.59472168 19.0501123 5.18944336 19.07592773 7.86279297 C19.1592751 16.42037601 19.24797715 24.97789744 19.33933926 33.53539848 C19.39458525 38.72556276 19.44800793 43.91573266 19.49731445 49.10595703 C19.54493327 54.11155339 19.59727517 59.11707981 19.65294075 64.12259293 C19.67337557 66.03560782 19.69208676 67.94864191 19.70907402 69.86169052 C19.7330931 72.53400381 19.76315102 75.20618421 19.79467773 77.87841797 C19.80331093 79.07387741 19.80331093 79.07387741 19.81211853 80.29348755 C19.78153255 84.2768315 19.78153255 84.2768315 21 88 C22.89533342 88.46523063 22.89533342 88.46523063 25.0625 88.625 C27.0115625 88.810625 27.0115625 88.810625 29 89 C30.00109515 92.31070838 30.10356134 95.30084769 30.0625 98.75 C30.05347656 99.73484375 30.04445313 100.7196875 30.03515625 101.734375 C30.02355469 102.48203125 30.01195312 103.2296875 30 104 C24.97306845 106.51346578 15.94355067 105.87924241 10.59375 104.28125 C5.73175287 101.63700595 2.72183023 98.05558815 0.90872192 92.89231873 C-0.1203819 88.48436953 -0.26716643 84.5378759 -0.22705078 80.03540039 C-0.22734283 79.16631042 -0.22763489 78.29722046 -0.22793579 77.40179443 C-0.22655068 74.55031085 -0.21102824 71.69909377 -0.1953125 68.84765625 C-0.19157946 66.86226036 -0.18873386 64.87686263 -0.18673706 62.89146423 C-0.17912355 57.68170022 -0.15949472 52.47204882 -0.1373291 47.2623291 C-0.11682142 41.93987552 -0.10772483 36.61740363 -0.09765625 31.29492188 C-0.07624662 20.86322397 -0.04108313 10.431639 0 0 Z " fill="#FAFAFA" transform="translate(907,949)"/>
<path d="M0 0 C1.43859375 -0.02126953 1.43859375 -0.02126953 2.90625 -0.04296875 C5.5 0.1875 5.5 0.1875 8.5 2.1875 C9.06810946 7.7549727 7.86075553 12.8295251 6.5 18.1875 C5.55898438 18.14109375 4.61796875 18.0946875 3.6484375 18.046875 C-4.071903 17.48761013 -4.071903 17.48761013 -11.1875 19.875 C-15.94498019 24.63248019 -17.57243815 29.07442529 -17.70532227 35.68066406 C-17.72526749 36.56127502 -17.74521271 37.44188599 -17.76576233 38.34918213 C-17.79083107 39.76188385 -17.79083107 39.76188385 -17.81640625 41.203125 C-17.83718735 42.17409119 -17.85796844 43.14505737 -17.87937927 44.14544678 C-17.94468862 47.24272685 -18.00367323 50.34009068 -18.0625 53.4375 C-18.10570292 55.53907111 -18.14931778 57.6406338 -18.19335938 59.7421875 C-18.30112506 64.89054045 -18.40033713 70.03895829 -18.5 75.1875 C-24.77 75.1875 -31.04 75.1875 -37.5 75.1875 C-37.5 50.7675 -37.5 26.3475 -37.5 1.1875 C-31.56 1.1875 -25.62 1.1875 -19.5 1.1875 C-19.5 4.8175 -19.5 8.4475 -19.5 12.1875 C-18.84 12.1875 -18.18 12.1875 -17.5 12.1875 C-17.314375 11.48625 -17.12875 10.785 -16.9375 10.0625 C-13.4273964 3.04229281 -7.64946145 0.05140767 0 0 Z " fill="#FBFBFB" transform="translate(625.5,977.8125)"/>
<path d="M0 0 C6.27 0 12.54 0 19 0 C19 24.42 19 48.84 19 74 C12.73 74 6.46 74 0 74 C0 49.58 0 25.16 0 0 Z " fill="#FAFAFA" transform="translate(646,979)"/>
<path d="M0 0 C5.29569273 2.93985185 7.74896893 6.47996034 9.77734375 12.16015625 C10.29898526 15.14460232 10.35124697 18.01128275 10.27734375 21.03515625 C10.26670898 21.82092041 10.25607422 22.60668457 10.24511719 23.41625977 C10.04896412 29.42934458 9.25343224 35.0854962 5.77734375 40.16015625 C0.8039366 44.46712684 -3.91694716 44.51403176 -10.2734375 44.4296875 C-14.35590153 44.05658814 -16.32408327 43.05872923 -19.22265625 40.16015625 C-23.0164629 34.45392196 -23.8279793 29.40556031 -23.66015625 22.66015625 C-23.66724609 21.85707031 -23.67433594 21.05398438 -23.68164062 20.2265625 C-23.62219042 14.58336585 -22.5726206 10.30070326 -20.22265625 5.16015625 C-14.45368527 -0.46089239 -7.79365748 -2.94487936 0 0 Z " fill="#030303" transform="translate(541.22265625,993.83984375)"/>
<path d="M0 0 C3.48918443 1.2508397 5.44764964 2.39419638 7.9375 5.125 C9.47313816 9.28025619 9.40292244 12.79123267 8 17 C5.79028672 19.72360009 3.13797881 21.43101059 0 23 C-4.23390162 23.40710593 -6.51588352 23.25575965 -10.3125 21.25 C-14.3390786 17.87891094 -14.84716223 16.353706 -15.4375 11.125 C-15.33897037 6.33287732 -13.35822174 4.27826408 -10 1 C-6.79788792 -0.60105604 -3.48253365 -0.35668408 0 0 Z " fill="#F7F7F7" transform="translate(962,1031)"/>
<path d="M0 0 C0.66 0 1.32 0 2 0 C2.39769625 8.97025996 2.498023 14.88982298 -3.5 21.9375 C-7.17547069 24.72642499 -11.02878473 24.63406943 -15.5 24.43359375 C-18 24 -18 24 -20.625 22.125 C-23.15388551 18.2167224 -23.39826858 15.69956919 -23 11 C-20.84222948 7.180163 -18.79555972 5.6943554 -14.70703125 4.453125 C-13.08018846 4.03354997 -11.44835347 3.63294135 -9.8125 3.25 C-8.17256948 2.84097008 -6.53321148 2.42963549 -4.89453125 2.015625 C-4.17112549 1.84321289 -3.44771973 1.67080078 -2.70239258 1.49316406 C-0.98248351 1.14329381 -0.98248351 1.14329381 0 0 Z " fill="#060606" transform="translate(866,1016)"/>
<path d="M0 0 C3.16118708 1.63913404 5.26864575 3.00269875 7.375 5.875 C8.69601084 10.36643685 8.48383625 13.10144696 6.25 17.25 C2.89889879 21.34579037 1.38667774 21.84343961 -3.875 22.4375 C-7.12458092 22.3646122 -8.89939678 21.71798257 -11.4375 19.6875 C-14.4301569 16.54885984 -14.89293685 14.94572445 -15.375 10.6875 C-14.87765929 5.79698299 -13.42915508 4.42915508 -10 1 C-6.78501861 -0.6074907 -3.48701742 -0.47314549 0 0 Z " fill="#F8F8F8" transform="translate(659,948)"/>
</svg>
