<?xml version="1.0" encoding="UTF-8"?>
<svg version="1.1" xmlns="http://www.w3.org/2000/svg" width="500" height="500">
<path d="M0 0 C165 0 330 0 500 0 C500 165 500 330 500 500 C335 500 170 500 0 500 C0 335 0 170 0 0 Z " fill="#000000" transform="translate(0,0)"/>
<path d="M0 0 C14.19 0 28.38 0 43 0 C43.98097656 2.89394531 44.96195312 5.78789062 45.97265625 8.76953125 C52.61690478 28.35127667 59.28948717 47.92160519 66.125 67.4375 C72.21912035 84.8434872 78.25003751 102.2708657 84.25140381 119.70901489 C85.24321401 122.59089951 86.23595357 125.47246111 87.22955322 128.35372925 C88.40778563 131.7706813 89.58396728 135.18833266 90.7586174 138.60651779 C91.40078715 140.47383643 92.04479906 142.34052123 92.68887329 144.20718384 C93.0812619 145.35061249 93.47365051 146.49404114 93.87792969 147.67211914 C94.21685242 148.65716934 94.55577515 149.64221954 94.90496826 150.65711975 C96.35323252 155.07833771 97.66314851 159.54382836 99 164 C87.78 164 76.56 164 65 164 C62.26095111 157.60888592 60.04078771 151.28277443 57.9284668 144.67382812 C57.3089719 142.73898081 56.68115997 140.80696263 56.05273438 138.875 C55.66021484 137.65296875 55.26769531 136.4309375 54.86328125 135.171875 C54.50532471 134.0590918 54.14736816 132.94630859 53.77856445 131.79980469 C53 129 53 129 53 126 C32.21 126.33 11.42 126.66 -10 127 C-13.9074456 138.80153114 -13.9074456 138.80153114 -17.80834961 150.60522461 C-18.29777629 152.07934337 -18.78742558 153.55338826 -19.27734375 155.02734375 C-19.53132935 155.79953247 -19.78531494 156.57172119 -20.04699707 157.36730957 C-21.8859282 162.8859282 -21.8859282 162.8859282 -23 164 C-25.44830426 164.08843793 -27.86820599 164.11528752 -30.31640625 164.09765625 C-31.04746078 164.0962413 -31.77851532 164.09482635 -32.53172302 164.09336853 C-34.87535632 164.08775408 -37.21889539 164.07519922 -39.5625 164.0625 C-41.14778508 164.05748686 -42.73307166 164.05292363 -44.31835938 164.04882812 C-48.2122761 164.03777997 -52.10612205 164.02050572 -56 164 C-54.0476589 156.48824578 -51.78025529 149.15291559 -49.21875 141.828125 C-48.85303894 140.77274536 -48.48732788 139.71736572 -48.11053467 138.63000488 C-46.91035659 135.16883602 -45.70517337 131.70943232 -44.5 128.25 C-43.65034115 125.802539 -42.80106408 123.35494544 -41.95214844 120.90722656 C-40.63249542 117.10282313 -39.3126217 113.29849922 -37.99090576 109.49481201 C-34.99938093 100.88545997 -32.01876648 92.27240404 -29.046875 83.65625 C-28.64716995 82.49748856 -28.2474649 81.33872711 -27.83564758 80.14485168 C-27.03630087 77.82741811 -26.23696909 75.50997939 -25.43765259 73.1925354 C-17.01393105 48.77549637 -8.5214382 24.38312515 0 0 Z " fill="#00DD37" transform="translate(148,174)"/>
<path d="M0 0 C1.87370879 1.91242178 2.76590658 3.53265471 3.890625 5.9296875 C1.60173856 9.0567326 -0.69095385 12.1809671 -2.984375 15.3046875 C-3.63535156 16.19414062 -4.28632813 17.08359375 -4.95703125 18 C-5.89482422 19.27617187 -5.89482422 19.27617187 -6.8515625 20.578125 C-7.4276123 21.36364746 -8.00366211 22.14916992 -8.59716797 22.95849609 C-10.109375 24.9296875 -10.109375 24.9296875 -12.109375 26.9296875 C-15.36426537 26.58285492 -17.1642467 25.2601914 -19.609375 23.1796875 C-28.79519499 16.00056265 -38.90049409 13.7363569 -50.234375 13.6796875 C-51.24242187 13.6590625 -52.25046875 13.6384375 -53.2890625 13.6171875 C-61.28168358 13.57577496 -68.56836098 14.29437384 -74.671875 19.8671875 C-77.82126689 23.9903468 -77.84412544 28.07871246 -77.5546875 33.125 C-76.81799904 37.76484488 -75.17483871 40.37852491 -71.42655945 43.19348145 C-66.48626821 46.41960819 -62.01088037 48.05079726 -56.25390625 49.2109375 C-55.01866463 49.48218445 -55.01866463 49.48218445 -53.75846863 49.75891113 C-51.14917746 50.33047412 -48.53624551 50.8818685 -45.921875 51.4296875 C-26.00129949 55.6468463 -6.98562716 59.68994207 4.890625 77.9296875 C9.303405 85.53792889 10.25747767 92.48520745 10.203125 101.1171875 C10.19748535 102.04829346 10.1918457 102.97939941 10.18603516 103.9387207 C9.96167952 116.69256113 7.0452913 126.98596141 -1.546875 136.6796875 C-2.3925 137.4221875 -3.238125 138.1646875 -4.109375 138.9296875 C-4.58632813 139.40921875 -5.06328125 139.88875 -5.5546875 140.3828125 C-10.64328146 145.25016325 -16.55996019 147.54808211 -23.109375 149.9296875 C-24.05683594 150.28546875 -25.00429688 150.64125 -25.98046875 151.0078125 C-47.39474141 157.31713628 -74.15960046 153.64598835 -93.71484375 143.58984375 C-102.21292168 138.83355517 -110.27136925 132.50615223 -115.109375 123.9296875 C-113.54034453 120.3576394 -111.36148795 117.65839339 -108.859375 114.6796875 C-105.51261921 110.67754775 -102.39160999 106.63189549 -99.49609375 102.29296875 C-98.109375 100.9296875 -98.109375 100.9296875 -94.109375 100.9296875 C-92.57421875 102.6171875 -92.57421875 102.6171875 -91.046875 104.9296875 C-84.09133389 114.40773172 -72.70018804 121.6082437 -61.109375 123.9296875 C-51.12784254 124.86924679 -38.70711677 125.87309288 -30.109375 119.9296875 C-27.5689524 117.59137792 -27.5689524 117.59137792 -26.109375 114.9296875 C-25.75617188 114.34960938 -25.40296875 113.76953125 -25.0390625 113.171875 C-23.06133661 108.4020655 -23.59978169 102.98158163 -24.109375 97.9296875 C-27.10209403 91.61172511 -31.52814337 88.3933974 -37.95703125 85.99609375 C-44.35264345 83.71761421 -50.84288744 82.34677219 -57.484375 80.9921875 C-74.85903107 77.27282062 -93.17604623 72.31164267 -103.796875 56.8671875 C-110.3513685 45.96236646 -111.64574993 33.43519966 -110.109375 20.9296875 C-107.25991709 9.89717098 -100.41701974 0.45116227 -91.109375 -6.0703125 C-64.71202349 -21.34921432 -23.71467733 -19.55282998 0 0 Z " fill="#00DC37" transform="translate(371.109375,187.0703125)"/>
<path d="M0 0 C1.85687256 0.15263367 1.85687256 0.15263367 4 1 C5.24029541 3.37117004 5.24029541 3.37117004 6.29003906 6.55786133 C6.69015198 7.74612015 7.09026489 8.93437897 7.50250244 10.15864563 C7.92406964 11.46627126 8.34509738 12.77407092 8.765625 14.08203125 C9.20704432 15.41665461 9.64975022 16.75085307 10.09368896 18.0846405 C11.02147384 20.88337858 11.93828006 23.68538968 12.84667969 26.49047852 C14.01048225 30.08357671 15.19367046 33.66988744 16.38422012 37.25420094 C17.29876378 40.01058798 18.2066257 42.76913542 19.11211395 45.52850914 C19.54631413 46.85136688 19.9817158 48.17383088 20.41834259 49.49588966 C21.02761493 51.34654624 21.62778009 53.20019357 22.22753906 55.05395508 C22.57077209 56.10794998 22.91400513 57.16194489 23.26763916 58.24787903 C24 61 24 61 24 65 C9.48 65 -5.04 65 -20 65 C-19.30503192 60.13522341 -18.64071417 56.41593627 -17.14233398 51.88110352 C-16.76201523 50.72042862 -16.38169647 49.55975372 -15.98985291 48.36390686 C-15.57941238 47.13135666 -15.16897186 45.89880646 -14.74609375 44.62890625 C-14.32102637 43.33870512 -13.89647908 42.04833254 -13.47242737 40.75779724 C-12.36134437 37.38105646 -11.24326385 34.00667411 -10.12365723 30.63275146 C-8.97985482 27.18170772 -7.84275857 23.72845632 -6.70507812 20.27539062 C-4.47657128 13.51476462 -2.24065659 6.75660997 0 0 Z " fill="#000401" transform="translate(167,208)"/>
</svg>
