<?xml version="1.0" encoding="UTF-8"?>
<svg version="1.1" xmlns="http://www.w3.org/2000/svg" width="1414" height="2000">
<path d="M0 0 C466.62 0 933.24 0 1414 0 C1414 660 1414 1320 1414 2000 C947.38 2000 480.76 2000 0 2000 C0 1340 0 680 0 0 Z " fill="#000000" transform="translate(0,0)"/>
<path d="M0 0 C1.8757273 1.99586686 3.37179304 3.98661759 4.84375 6.29296875 C5.90165056 8.15488286 5.90165056 8.15488286 8 9 C8.165 8.29875 8.33 7.5975 8.5 6.875 C11.06508589 1.95858537 15.78318249 -1.26106083 21 -3 C38.52355062 -4.11930533 38.52355062 -4.11930533 44.4921875 -0.33203125 C49.69099426 4.260697 52.66735698 9.95666312 53.24050903 16.9234314 C53.23606781 17.9404715 53.23162659 18.9575116 53.22705078 20.00537109 C53.22689972 21.16612152 53.22674866 22.32687195 53.22659302 23.52279663 C53.21627045 24.76050812 53.20594788 25.9982196 53.1953125 27.2734375 C53.1924826 28.55231842 53.18965271 29.83119934 53.18673706 31.14883423 C53.1774602 34.53220099 53.15952183 37.91529326 53.1373291 41.29858398 C53.11679041 44.75762574 53.10771826 48.21669596 53.09765625 51.67578125 C53.07563197 58.45060591 53.04112034 65.22526541 53 72 C46.73 72 40.46 72 34 72 C33.9906543 70.38512695 33.98130859 68.77025391 33.97167969 67.10644531 C33.93183509 61.12016115 33.86609073 55.1343939 33.79248047 49.1484375 C33.76423893 46.55670812 33.74304035 43.96489211 33.72900391 41.37304688 C33.70761938 37.64928729 33.66098914 33.92657299 33.609375 30.203125 C33.60814636 29.04258606 33.60691772 27.88204712 33.60565186 26.68634033 C33.58593323 25.60552185 33.5662146 24.52470337 33.54589844 23.41113281 C33.53701599 22.46071106 33.52813354 21.51028931 33.51898193 20.53106689 C32.85081585 17.2724312 31.5312735 16.087486 29 14 C25.8017988 12.4008994 22.4787562 12.63804849 19 13 C14.41486914 14.87573535 12.46020719 17.78250196 10 22 C9.0534586 24.83962421 8.85005776 26.70406529 8.79467773 29.6550293 C8.77473251 30.59577805 8.75478729 31.53652679 8.73423767 32.50578308 C8.70916893 34.02465874 8.70916893 34.02465874 8.68359375 35.57421875 C8.66281265 36.61318802 8.64203156 37.65215729 8.62062073 38.72261047 C8.55519344 42.04417253 8.49627179 45.36581416 8.4375 48.6875 C8.39430831 50.9381593 8.35069381 53.18881052 8.30664062 55.43945312 C8.19951897 60.95955369 8.09823211 66.47973437 8 72 C1.73 72 -4.54 72 -11 72 C-11.01458252 70.38512695 -11.02916504 68.77025391 -11.04418945 67.10644531 C-11.10212161 61.12021641 -11.17935544 55.13436566 -11.26245117 49.1484375 C-11.29572432 46.55670301 -11.32374871 43.96489565 -11.34643555 41.37304688 C-11.37993675 37.64942336 -11.43225223 33.92646919 -11.48828125 30.203125 C-11.49467117 29.04258606 -11.5010611 27.88204712 -11.50764465 26.68634033 C-11.53733589 25.06511261 -11.53733589 25.06511261 -11.56762695 23.41113281 C-11.58428154 21.98550018 -11.58428154 21.98550018 -11.60127258 20.53106689 C-12.07266309 17.53874467 -12.91066205 16.16965058 -15 14 C-18.72851342 12.75716219 -22.12746761 12.4719274 -26 13 C-30.42483445 15.25416094 -32.87082141 17.51751875 -35 22 C-35.88427314 24.93602428 -36.14647227 27.61655798 -36.20532227 30.67675781 C-36.22526749 31.59741028 -36.24521271 32.51806274 -36.26576233 33.46661377 C-36.29083107 34.94493683 -36.29083107 34.94493683 -36.31640625 36.453125 C-36.33718735 37.46848328 -36.35796844 38.48384155 -36.37937927 39.52996826 C-36.44470597 42.76991073 -36.50368137 46.00993348 -36.5625 49.25 C-36.60570126 51.44792493 -36.64931607 53.64584178 -36.69335938 55.84375 C-36.80037012 61.22908461 -36.90168522 66.6144999 -37 72 C-42.94 72 -48.88 72 -55 72 C-55 47.58 -55 23.16 -55 -2 C-49.06 -2 -43.12 -2 -37 -2 C-36.67 0.97 -36.34 3.94 -36 7 C-35.319375 6.0925 -34.63875 5.185 -33.9375 4.25 C-25.52945885 -5.85398127 -10.84499196 -6.7874691 0 0 Z " fill="#FBFBFB" transform="translate(639,981)"/>
<path d="M0 0 C1.671875 1.46484375 1.671875 1.46484375 3.671875 4.46484375 C0.701875 8.75484375 -2.268125 13.04484375 -5.328125 17.46484375 C-9.328125 16.46484375 -9.328125 16.46484375 -11.515625 14.58984375 C-19.07497995 8.87833112 -28.11926841 8.40661329 -37.328125 9.46484375 C-40.28290717 10.63203528 -42.08057056 12.21728931 -44.328125 14.46484375 C-44.86025275 18.76548275 -45.15730229 22.30991824 -42.578125 25.90234375 C-39.13272238 28.29498446 -36.12359177 29.65914849 -31.984375 30.359375 C-31.15566895 30.50753662 -30.32696289 30.65569824 -29.47314453 30.80834961 C-28.60028809 30.96311768 -27.72743164 31.11788574 -26.828125 31.27734375 C-16.49348972 33.23614145 -5.75381177 35.49581404 1.671875 43.46484375 C6.87645004 51.38546751 8.53267884 57.99600155 7.671875 67.46484375 C5.7939027 75.81390134 1.96789865 83.03318432 -5.34765625 87.7734375 C-7.32131515 88.8036648 -9.24546406 89.67849326 -11.328125 90.46484375 C-12.15957031 90.820625 -12.99101563 91.17640625 -13.84765625 91.54296875 C-25.61588197 94.66002966 -42.57336615 94.40305416 -53.328125 88.46484375 C-64.49996855 81.47528009 -64.49996855 81.47528009 -67.328125 76.46484375 C-67.2690231 72.37836923 -64.28765598 69.69865505 -61.765625 66.71484375 C-60.93933594 65.73 -60.11304688 64.74515625 -59.26171875 63.73046875 C-58.62363281 62.9828125 -57.98554687 62.23515625 -57.328125 61.46484375 C-54.65804323 62.69330574 -53.17370234 63.62355593 -51.078125 65.77734375 C-44.57824553 72.12949868 -38.56175436 74.64414236 -29.515625 74.65234375 C-28.81630859 74.66458984 -28.11699219 74.67683594 -27.39648438 74.68945312 C-22.99767059 74.70179778 -19.355302 74.27371233 -15.328125 72.46484375 C-13.16278136 68.23258117 -12.73075863 64.15843664 -13.328125 59.46484375 C-18.48791037 52.58512992 -26.04061843 51.165213 -34.015625 49.65234375 C-44.70266948 47.41900167 -53.82403002 44.18615119 -61.0234375 35.58984375 C-65.53362114 28.2439159 -64.98278344 19.74879092 -64.328125 11.46484375 C-62.72290423 4.76965079 -57.90650684 0.22834109 -52.328125 -3.53515625 C-35.88524759 -11.90884382 -15.08671228 -10.69114761 0 0 Z " fill="#FAFAFA" transform="translate(851.328125,961.53515625)"/>
<path d="M0 0 C5.96618756 4.48294242 10.04465943 9.38473238 12.10546875 16.58203125 C10.03109417 17.95195781 7.94785413 19.30262671 5.85546875 20.64453125 C5.26894531 21.03447266 4.68242187 21.42441406 4.078125 21.82617188 C-0.29502937 24.60238785 -0.29502937 24.60238785 -3.1953125 24.50390625 C-5.99227033 22.98647626 -7.19214994 20.21298418 -8.89453125 17.58203125 C-14.97476452 11.82181025 -21.46518925 11.04849002 -29.5703125 11.21484375 C-35.7508402 11.89753424 -40.44435713 14.04016662 -44.7734375 18.53125 C-52.05099777 28.29896342 -51.6442409 40.92116271 -50.89453125 52.58203125 C-49.64505242 60.70820375 -47.65333069 67.19911175 -41.39453125 72.83203125 C-36.55496069 76.21973064 -32.98709495 76.92179378 -27.08203125 76.89453125 C-26.39560547 76.91064453 -25.70917969 76.92675781 -25.00195312 76.94335938 C-18.75350168 76.94927087 -14.18471024 75.39287045 -9.20703125 71.45703125 C-6.25786263 67.79049729 -4.59469725 63.94167479 -2.89453125 59.58203125 C1.24845542 60.1803785 4.28741252 61.5886741 7.91796875 63.64453125 C8.89378906 64.19238281 9.86960937 64.74023438 10.875 65.3046875 C11.61105469 65.72621094 12.34710938 66.14773438 13.10546875 66.58203125 C11.49090973 75.74702805 6.57538436 83.69603005 -1.06640625 89.125 C-12.9634728 96.11965464 -28.03608948 96.32435094 -41.38671875 93.96484375 C-52.39755597 90.35839562 -61.41079282 82.71275238 -66.89453125 72.58203125 C-73.20792906 58.5651297 -74.82559967 38.37523651 -69.89453125 23.58203125 C-66.57980203 15.50125895 -62.95871833 8.03022782 -55.89453125 2.58203125 C-55.31316406 2.12570312 -54.73179687 1.669375 -54.1328125 1.19921875 C-38.77862841 -9.55192902 -15.92669412 -9.60243307 0 0 Z " fill="#FAFAFA" transform="translate(348.89453125,959.41796875)"/>
<path d="M0 0 C4.98339041 4.03201588 8.17336948 8.3264097 9.01130676 14.81375122 C9.15150712 17.4777686 9.20425438 20.1292417 9.22265625 22.796875 C9.24060745 23.76359634 9.25855865 24.73031769 9.27705383 25.72633362 C9.33093261 28.79277272 9.36498059 31.85905817 9.3984375 34.92578125 C9.43163036 37.01369315 9.46612183 39.10158484 9.50195312 41.18945312 C9.58664625 46.28895124 9.65356429 51.38840556 9.7109375 56.48828125 C12.3509375 56.48828125 14.9909375 56.48828125 17.7109375 56.48828125 C18.91661803 61.1602933 18.80476176 65.70324417 18.7109375 70.48828125 C15.12092141 71.68495328 12.1204536 71.69367006 8.3359375 71.73828125 C6.37527344 71.77695313 6.37527344 71.77695313 4.375 71.81640625 C0.53972141 71.47294847 -1.27002742 70.8118896 -4.2890625 68.48828125 C-7.2890625 64.24690194 -7.2890625 64.24690194 -7.2890625 61.48828125 C-7.9490625 61.48828125 -8.6090625 61.48828125 -9.2890625 61.48828125 C-9.5675 62.57109375 -9.5675 62.57109375 -9.8515625 63.67578125 C-11.99522915 67.86991166 -15.60503435 70.5482802 -20.0625 72.109375 C-27.68682825 73.4068484 -36.93070197 73.92913132 -43.7109375 69.7578125 C-48.86322467 65.61302703 -51.90757076 60.84942422 -52.66015625 54.21875 C-52.8830575 42.32631252 -52.8830575 42.32631252 -48.89453125 37.09765625 C-41.82616246 30.01208948 -32.64331931 27.95031539 -23.0390625 26.48828125 C-16.76133449 25.53862504 -16.76133449 25.53862504 -11.2890625 22.48828125 C-10.04620355 19.03953454 -10.04620355 19.03953454 -10.2890625 15.48828125 C-11.33818939 13.66691666 -11.33818939 13.66691666 -13.2890625 12.48828125 C-20.72253722 11.45105222 -27.61322168 12.09180083 -34.2890625 15.48828125 C-35.39493851 16.3776221 -36.47941843 17.29433033 -37.5390625 18.23828125 C-40.2890625 20.48828125 -40.2890625 20.48828125 -42.2578125 20.4140625 C-45.03626483 19.14772942 -45.94328162 17.5007913 -47.5390625 14.92578125 C-48.05984375 14.09949219 -48.580625 13.27320313 -49.1171875 12.421875 C-49.69726562 11.46474609 -49.69726562 11.46474609 -50.2890625 10.48828125 C-47.48159336 3.97495284 -41.44495461 0.78330417 -35.1015625 -1.82421875 C-24.11263078 -6.03161264 -10.12816341 -6.6887359 0 0 Z " fill="#F9F9F9" transform="translate(759.2890625,981.51171875)"/>
<path d="M0 0 C1.44922852 0.01256836 1.44922852 0.01256836 2.92773438 0.02539062 C11.84111659 0.30711824 18.61710063 2.07299258 25.12890625 8.55859375 C33.78018916 19.25283021 32.1875 28.04104642 32.1875 42.625 C16.0175 42.625 -0.1525 42.625 -16.8125 42.625 C-14.45310263 52.25310903 -14.45310263 52.25310903 -8.11328125 58.73046875 C-4.98909701 59.94513461 -2.28269003 59.92670906 1.0625 59.9375 C2.25617187 59.95425781 3.44984375 59.97101563 4.6796875 59.98828125 C9.8936227 59.44830801 13.10112703 57.85431678 16.5625 53.9375 C17.09875 53.174375 17.635 52.41125 18.1875 51.625 C22.96359498 53.26678265 26.98132904 55.89046702 31.1875 58.625 C30.91688489 63.09014937 29.03402143 65.69761696 26.140625 68.9140625 C16.38505183 77.4599446 4.83614462 77.23267533 -7.37011719 76.79101562 C-15.82708943 76.21617145 -21.60863316 71.91852936 -27.609375 66.19140625 C-36.22404165 56.15623605 -36.55459938 43.26594585 -35.99169922 30.66650391 C-35.14093277 20.97425725 -29.74817958 13.47322004 -23 6.875 C-15.61086242 1.65913818 -9.00358932 -0.10651428 0 0 Z " fill="#FBFBFB" transform="translate(534.8125,977.375)"/>
<path d="M0 0 C6.6 0 13.2 0 20 0 C22.4270744 6.77887346 24.84799387 13.55990071 27.26318359 20.34301758 C28.08602926 22.65124099 28.91056696 24.95886195 29.73681641 27.26586914 C30.92272978 30.57802697 32.10258271 33.89228902 33.28125 37.20703125 C33.65310425 38.2414888 34.0249585 39.27594635 34.40808105 40.3417511 C34.74843384 41.3025206 35.08878662 42.2632901 35.43945312 43.25317383 C35.89245789 44.52225334 35.89245789 44.52225334 36.35461426 45.81697083 C37 48 37 48 37 51 C39.75714685 49.62142657 39.78789907 48.29434528 40.77172852 45.40429688 C41.10870255 44.42658325 41.44567657 43.44886963 41.79286194 42.44152832 C42.15125656 41.37801147 42.50965118 40.31449463 42.87890625 39.21875 C43.25103745 38.13493042 43.62316864 37.05111084 44.00657654 35.93444824 C45.19884945 32.45863671 46.38116225 28.97954179 47.5625 25.5 C48.74892456 22.02100347 49.93742236 18.54274043 51.12913513 15.06555176 C51.87155699 12.89769967 52.61061153 10.72869109 53.34608459 8.55847168 C53.8468174 7.09190125 53.8468174 7.09190125 54.35766602 5.59570312 C54.65141617 4.73046021 54.94516632 3.86521729 55.24781799 2.97375488 C56 1 56 1 57 0 C58.41570123 -0.08651611 59.835595 -0.10704904 61.25390625 -0.09765625 C62.0229126 -0.09515869 62.79191895 -0.09266113 63.58422852 -0.09008789 C64.56705811 -0.08098389 65.5498877 -0.07187988 66.5625 -0.0625 C68.24601009 -0.05101141 69.92952267 -0.0398852 71.61303711 -0.02905273 C72.44105331 -0.02356918 73.26906952 -0.01808563 74.12217712 -0.01243591 C75.05169945 -0.00628014 75.05169945 -0.00628014 76 0 C71.18025584 14.03935654 66.07651973 27.9559233 60.79370117 41.82739258 C59.56307618 45.06098603 58.33893645 48.29698443 57.11523438 51.53320312 C53.41175132 61.29767461 49.65465689 71.03714335 45.65234375 80.68359375 C45.34116104 81.4435817 45.02997833 82.20356964 44.70936584 82.98658752 C40.2562952 93.55644496 34.18004392 99.90997804 24 105 C20.52618342 105.23947641 17.04366186 105.18519001 13.5625 105.1875 C12.59505859 105.19974609 11.62761719 105.21199219 10.63085938 105.22460938 C9.70208984 105.22654297 8.77332031 105.22847656 7.81640625 105.23046875 C6.96506104 105.23457764 6.11371582 105.23868652 5.23657227 105.24291992 C3 105 3 105 0 103 C-0.71711359 97.14357233 0.94826999 92.38579128 3 87 C3.99 87.33 4.98 87.66 6 88 C12.47240965 88.48566422 18.52068518 88.93386705 24 85 C27.06085061 81.93914939 27.69928845 79.27648002 28 75 C27.297347 71.98896065 26.17040683 69.18161548 25.01953125 66.31640625 C24.53283211 65.05521217 24.53283211 65.05521217 24.03630066 63.76853943 C22.97502647 61.0277958 21.89387745 58.29536643 20.8125 55.5625 C20.07870195 53.67696728 19.34628909 51.79089493 18.61523438 49.90429688 C16.7749328 45.16368367 14.91918579 40.42929861 13.05865479 35.69659424 C10.6158886 29.47440614 8.19891289 23.24217787 5.78182983 17.00997925 C5.01083541 15.02785639 4.23417445 13.0480345 3.45629883 11.06860352 C2.99634521 9.89096436 2.5363916 8.7133252 2.0625 7.5 C1.66160156 6.4790625 1.26070312 5.458125 0.84765625 4.40625 C0 2 0 2 0 0 Z " fill="#FAFAFA" transform="translate(866,979)"/>
<path d="M0 0 C0.82113281 -0.03287109 1.64226563 -0.06574219 2.48828125 -0.09960938 C8.8031596 -0.1546519 12.83359037 1.49275931 17.75 5.4375 C25.14827765 13.0357311 25.16961116 20.72756976 25.04296875 30.80859375 C25.03872391 32.08605972 25.03447906 33.3635257 25.03010559 34.67970276 C25.0162045 38.05498297 24.9893115 41.42964052 24.95599365 44.80474854 C24.92515321 48.25714779 24.9115706 51.7096117 24.89648438 55.16210938 C24.86347314 61.9207654 24.81171958 68.67904762 24.75 75.4375 C18.48 75.4375 12.21 75.4375 5.75 75.4375 C5.73598145 73.06848511 5.73598145 73.06848511 5.72167969 70.65161133 C5.68179799 64.79015939 5.61604306 58.9292333 5.54248047 53.06811523 C5.51426052 50.53172563 5.49305115 47.99524792 5.47900391 45.45874023 C5.45758957 41.81187801 5.4109438 38.16607636 5.359375 34.51953125 C5.35814636 33.38602737 5.35691772 32.2525235 5.35565186 31.08467102 C5.26865233 24.87609429 5.26865233 24.87609429 2.89941406 19.24487305 C-0.76596643 16.16277266 -4.30753011 16.0822201 -8.90234375 16.171875 C-12.80487273 16.6134257 -15.35955191 17.79700312 -18.25 20.4375 C-22.2793411 26.78263021 -22.84996789 33.03060175 -22.859375 40.37890625 C-22.87591125 41.38718979 -22.89244751 42.39547333 -22.90948486 43.43431091 C-22.95767905 46.62293767 -22.97927244 49.81108852 -23 53 C-23.02818354 55.17515379 -23.05811427 57.35028568 -23.08984375 59.52539062 C-23.16343046 64.82938786 -23.21317949 70.1331253 -23.25 75.4375 C-29.52 75.4375 -35.79 75.4375 -42.25 75.4375 C-42.25 51.0175 -42.25 26.5975 -42.25 1.4375 C-36.31 1.4375 -30.37 1.4375 -24.25 1.4375 C-24.25 5.0675 -24.25 8.6975 -24.25 12.4375 C-23.54875 11.715625 -22.8475 10.99375 -22.125 10.25 C-15.04439512 3.18945349 -10.04189037 0.0696279 0 0 Z " fill="#FAFAFA" transform="translate(996.25,977.5625)"/>
<path d="M0 0 C1.10794922 -0.0309375 1.10794922 -0.0309375 2.23828125 -0.0625 C8.78692806 -0.10869857 13.4295872 1.24600713 18.5 5.625 C25.78838907 14.12812058 26.04063035 22.18950993 25.9453125 32.96484375 C25.9424826 34.17572159 25.93965271 35.38659943 25.93673706 36.63417053 C25.9255803 40.48538268 25.90048355 44.33635864 25.875 48.1875 C25.8649644 50.80533517 25.85583956 53.42317401 25.84765625 56.04101562 C25.82565563 62.44410083 25.79115642 68.84701042 25.75 75.25 C19.48 75.25 13.21 75.25 6.75 75.25 C6.73541748 73.70094971 6.72083496 72.15189941 6.70581055 70.5559082 C6.64781955 64.80632493 6.57058586 59.05713295 6.48754883 53.30786133 C6.45430343 50.81997022 6.42627034 48.33200376 6.40356445 45.84399414 C6.3700123 42.26676332 6.31769408 38.69022281 6.26171875 35.11328125 C6.25532883 34.00165115 6.2489389 32.89002106 6.24235535 31.7447052 C6.22256119 30.70400375 6.20276703 29.66330231 6.18237305 28.59106445 C6.16571846 27.22205742 6.16571846 27.22205742 6.14872742 25.82539368 C5.66578872 22.70607653 4.57831713 20.80355727 2.75 18.25 C-1.28957877 15.82625274 -5.65178574 15.68086935 -10.25 16.25 C-15.43921171 18.04626559 -17.62044391 20.47784266 -20.25 25.25 C-21.16351533 28.17736985 -21.39650648 30.86833693 -21.45532227 33.92675781 C-21.47526749 34.84741028 -21.49521271 35.76806274 -21.51576233 36.71661377 C-21.54083107 38.19493683 -21.54083107 38.19493683 -21.56640625 39.703125 C-21.58718735 40.71848328 -21.60796844 41.73384155 -21.62937927 42.77996826 C-21.69470597 46.01991073 -21.75368137 49.25993348 -21.8125 52.5 C-21.85570126 54.69792493 -21.89931607 56.89584178 -21.94335938 59.09375 C-22.05037012 64.47908461 -22.15168522 69.8644999 -22.25 75.25 C-28.52 75.25 -34.79 75.25 -41.25 75.25 C-41.25 50.83 -41.25 26.41 -41.25 1.25 C-35.31 1.25 -29.37 1.25 -23.25 1.25 C-23.25 4.88 -23.25 8.51 -23.25 12.25 C-22.59 12.25 -21.93 12.25 -21.25 12.25 C-21.085 11.54875 -20.92 10.8475 -20.75 10.125 C-16.44888343 1.88119324 -8.62304755 0.05896101 0 0 Z " fill="#FBFBFB" transform="translate(457.25,977.75)"/>
<path d="M0 0 C3.74598796 2.67665452 6.13269687 5.02177527 8.125 9.1875 C8.05078125 11.1015625 8.05078125 11.1015625 7.125 13.1875 C4.69140625 15.328125 4.69140625 15.328125 1.6875 17.4375 C0.69878906 18.14390625 -0.28992187 18.8503125 -1.30859375 19.578125 C-3.875 21.1875 -3.875 21.1875 -5.875 21.1875 C-6.473125 20.259375 -7.07125 19.33125 -7.6875 18.375 C-10.53462449 14.22633289 -13.17755873 12.75331376 -17.875 11.1875 C-24.31081151 10.65118237 -27.62033474 11.37529187 -32.875 15.1875 C-37.07015729 20.78104306 -37.08129048 26.27419734 -37.125 33 C-37.145625 33.78181641 -37.16625 34.56363281 -37.1875 35.36914062 C-37.23038789 41.78624127 -36.13877467 46.58072916 -31.8125 51.5625 C-26.99499037 55.60299195 -20.86247546 54.69800339 -14.875 54.1875 C-9.38658915 51.78030226 -7.45892824 48.35535647 -4.875 43.1875 C-1.1147015 43.76857632 1.65535032 44.83949496 4.9375 46.75 C5.72769531 47.20503906 6.51789063 47.66007812 7.33203125 48.12890625 C7.92371094 48.47824219 8.51539063 48.82757812 9.125 49.1875 C8.85586597 55.64671681 6.62181624 59.56442326 2.125 64.1875 C-7.41880762 71.70111395 -17.75043263 72.17952581 -29.46240234 71.48632812 C-36.99534879 70.55328558 -43.31156651 66.10338631 -48.875 61.1875 C-50.60546875 58.78515625 -50.60546875 58.78515625 -52.0625 56.25 C-52.55105469 55.41597656 -53.03960938 54.58195312 -53.54296875 53.72265625 C-59.18190433 42.99048852 -59.79175918 29.33266195 -56.3125 17.75 C-52.69562568 8.42959311 -46.76656829 1.7577954 -37.875 -2.8125 C-25.44791556 -8.28954556 -11.44963335 -7.10473991 0 0 Z " fill="#F9F9F9" transform="translate(1094.875,982.8125)"/>
<path d="M0 0 C6.27 0 12.54 0 19 0 C19 24.42 19 48.84 19 74 C12.73 74 6.46 74 0 74 C0 49.58 0 25.16 0 0 Z " fill="#FAFAFA" transform="translate(376,979)"/>
<path d="M0 0 C3.75212276 2.01502889 5.63644095 3.45466142 8 7 C8.54543879 10.06594015 8.53376742 12.93218522 8 16 C5.5176878 19.24079649 2.91929889 21.73199154 -1 23 C-5.28261351 23.47584595 -7.47440024 23.27767535 -11.3125 21.25 C-15.36973116 17.85324833 -15.87137804 16.35053057 -16.375 11.0625 C-16.29267724 7.90483402 -15.97145344 6.95310208 -14.25 4.125 C-9.92477454 0.04006485 -5.96209835 -0.95164262 0 0 Z " fill="#F5F5F5" transform="translate(1130,1031)"/>
<path d="M0 0 C0.58785649 13.25942962 0.58785649 13.25942962 -3 19 C-6.51509726 22.3436291 -9.32932338 23.28165405 -14.0625 23.5 C-17.28661286 23.33466088 -19.1215149 22.94653344 -22.125 21.625 C-24.61889703 18.13354416 -24.64516844 15.56151496 -24.421875 11.34375 C-24 9 -24 9 -22.3125 6.5 C-17.81838193 3.58489639 -13.27354207 2.53600442 -8.0859375 1.46484375 C-1.51260504 0 -1.51260504 0 0 0 Z " fill="#040404" transform="translate(750,1017)"/>
<path d="M0 0 C3.75212276 2.01502889 5.63644095 3.45466142 8 7 C8.4606067 11.97455239 8.16781812 15.06753613 5 19 C1.56813086 21.84354872 -1.52606137 22.58677525 -6 22.42578125 C-9.65181676 21.6483437 -11.45048434 19.67388228 -14 17 C-15.21762731 13.34711807 -15.39075851 10.84245864 -15 7 C-11.29209704 0.787879 -7.08925311 -0.97510173 0 0 Z " fill="#F7F7F7" transform="translate(389,948)"/>
<path d="M0 0 C2.8195229 1.8359684 4.18849802 2.75199605 5.6875 5.75 C6.0175 8.72 6.3475 11.69 6.6875 14.75 C-3.2125 14.75 -13.1125 14.75 -23.3125 14.75 C-22.07826577 6.11036036 -22.07826577 6.11036036 -18.3125 1.75 C-12.16576017 -1.79619605 -6.69173089 -2.52518147 0 0 Z " fill="#020202" transform="translate(542.3125,993.25)"/>
</svg>
