<?xml version="1.0" encoding="UTF-8"?>
<svg version="1.1" xmlns="http://www.w3.org/2000/svg" width="1414" height="2000">
<path d="M0 0 C466.62 0 933.24 0 1414 0 C1414 660 1414 1320 1414 2000 C947.38 2000 480.76 2000 0 2000 C0 1340 0 680 0 0 Z " fill="#000000" transform="translate(0,0)"/>
<path d="M0 0 C6.27 0 12.54 0 19 0 C22.30010613 13.90154598 25.4464113 27.8280766 28.34713745 41.81817627 C28.65494123 43.30263463 28.96410323 44.78681207 29.27468872 46.27069092 C30.85217623 53.82239993 32.33935751 61.30394395 33 69 C35.19812874 68.19164078 35.19812874 68.19164078 35.7071228 65.96859741 C36.02877914 64.62748398 36.02877914 64.62748398 36.35693359 63.25927734 C36.60414154 62.2466684 36.85134949 61.23405945 37.10604858 60.19076538 C37.36753693 59.08367218 37.62902527 57.97657898 37.8984375 56.8359375 C38.17466949 55.69653717 38.45090149 54.55713684 38.73550415 53.38320923 C39.62311524 49.71563234 40.49943129 46.0454686 41.375 42.375 C42.52574804 37.59044536 43.680775 32.80692795 44.8359375 28.0234375 C45.11177673 26.87752136 45.38761597 25.73160522 45.67181396 24.55096436 C47.65722913 16.32993903 49.76544969 8.15665903 52 0 C57.94 0 63.88 0 70 0 C70.68835938 2.78824219 70.68835938 2.78824219 71.390625 5.6328125 C72.65429022 10.73195164 73.92213937 15.82998725 75.19921875 20.92578125 C75.49401123 22.10309814 75.78880371 23.28041504 76.0925293 24.4934082 C77.29506833 29.14018466 78.60327135 33.75032046 79.95703125 38.35546875 C81.45620035 43.59413829 82.85767999 48.8570581 84.25 54.125 C84.65617554 55.63960815 84.65617554 55.63960815 85.07055664 57.18481445 C85.44555298 58.61313599 85.44555298 58.61313599 85.828125 60.0703125 C86.0540332 60.92383301 86.27994141 61.77735352 86.51269531 62.65673828 C87 65 87 65 87 69 C87.66 69 88.32 69 89 69 C89.12004395 68.06551025 89.24008789 67.13102051 89.36376953 66.16821289 C90.07983759 61.17005156 91.1399943 56.24768778 92.1796875 51.30859375 C92.49983322 49.77514061 92.49983322 49.77514061 92.82644653 48.21070862 C93.50723534 44.95253709 94.19111101 41.69502204 94.875 38.4375 C95.32701737 36.27543127 95.77884209 34.11332225 96.23046875 31.95117188 C98.45848121 21.29456932 100.70588102 10.64258508 103 0 C109.27 0 115.54 0 122 0 C121.40697433 7.86308116 119.92757887 15.22219745 118.0625 22.875 C117.43212653 25.51658914 116.80315373 28.15848069 116.17578125 30.80078125 C116.00666229 31.51050583 115.83754333 32.22023041 115.66329956 32.95146179 C113.28230416 42.97080683 111.02409279 53.01847654 108.75 63.0625 C108.32175807 64.95232527 107.89345526 66.84213675 107.46508789 68.73193359 C107.25956802 69.63872864 107.05404816 70.54552368 106.84230042 71.47979736 C106.25182049 74.08323864 105.66015873 76.68640917 105.06835938 79.28955078 C104.39666943 82.24488201 103.73102944 85.20143029 103.07226562 88.15966797 C102.67297852 89.93494873 102.67297852 89.93494873 102.265625 91.74609375 C102.04165039 92.75212646 101.81767578 93.75815918 101.58691406 94.79467773 C101 97 101 97 100 98 C98.36527118 98.08700342 96.72685945 98.10701063 95.08984375 98.09765625 C94.10048828 98.09443359 93.11113281 98.09121094 92.09179688 98.08789062 C91.05087891 98.07951172 90.00996094 98.07113281 88.9375 98.0625 C87.89271484 98.05798828 86.84792969 98.05347656 85.77148438 98.04882812 C83.1809334 98.03699913 80.59049441 98.02051689 78 98 C75.0289218 88.23969205 72.31231984 78.45444218 69.8828125 68.54516602 C67.93348721 60.63062947 65.79356616 52.77368219 63.54541016 44.93896484 C63.17463714 43.62084519 62.82071375 42.29789411 62.48193359 40.97119141 C62.04506622 39.29816377 61.52906001 37.64619868 61 36 C60.01 35.505 60.01 35.505 59 35 C58.86658203 36.79244141 58.86658203 36.79244141 58.73046875 38.62109375 C57.98637163 45.27900983 56.09787349 51.62181453 54.3125 58.0625 C53.58640878 60.72172659 52.86538132 63.3823173 52.14453125 66.04296875 C51.96371002 66.70818542 51.78288879 67.3734021 51.59658813 68.05877686 C48.90313007 77.99847668 46.4685191 88.00249763 44 98 C36.41 98 28.82 98 21 98 C20.59910156 96.21464844 20.19820312 94.42929688 19.78515625 92.58984375 C16.54854071 78.20305865 13.27838307 63.82455236 9.95721436 49.45703125 C9.37654145 46.94417061 8.79678992 44.43109901 8.21728516 41.91796875 C6.59612932 34.89023297 4.97107744 27.86369 3.31640625 20.84375 C3.07809082 19.82289307 2.83977539 18.80203613 2.59423828 17.75024414 C2.1748146 15.95389461 1.75049934 14.1586755 1.31982422 12.36499023 C1.14080566 11.59356689 0.96178711 10.82214355 0.77734375 10.02734375 C0.62515381 9.38531006 0.47296387 8.74327637 0.31616211 8.08178711 C-0.08863759 5.41636081 0 2.69598964 0 0 Z " fill="#FAFAFA" transform="translate(733,955)"/>
<path d="M0 0 C5.94 0 11.88 0 18 0 C18 12.87 18 25.74 18 39 C21.3 36.36 24.6 33.72 28 31 C34.91883723 27.54058139 41.31932509 26.81550268 48.87109375 28.7265625 C57.0804633 31.46673198 62.53906527 35.12031734 66.8984375 42.7421875 C70.6251229 50.38057105 71.2654583 57.7376957 71.3125 66.125 C71.31805908 66.95999023 71.32361816 67.79498047 71.3293457 68.65527344 C71.21118178 78.90422673 69.15930974 89.22287375 62.140625 97.08203125 C55.58092042 103.120519 49.37941504 105.57593138 40.5625 105.5 C39.81186279 105.49572998 39.06122559 105.49145996 38.2878418 105.48706055 C32.33678934 105.30358219 28.4550402 104.07003673 24 100 C23.40574219 99.52304688 22.81148437 99.04609375 22.19921875 98.5546875 C20.77038088 97.40504783 19.38016268 96.20764234 18 95 C18 97.97 18 100.94 18 104 C12.06 104 6.12 104 0 104 C0 69.68 0 35.36 0 0 Z " fill="#FCFCFC" transform="translate(571,949)"/>
<path d="M0 0 C3.08891953 3.00543522 5.43720098 6.36374203 7.3125 10.25 C7.3125 11.24 7.3125 12.23 7.3125 13.25 C5.22743174 14.80562154 3.23050043 16.12669581 1 17.4375 C0.40509766 17.80552734 -0.18980469 18.17355469 -0.80273438 18.55273438 C-3.63847051 20.2605129 -5.32119715 21.25 -8.6875 21.25 C-10.0415932 19.26399663 -11.37207624 17.26182457 -12.6875 15.25 C-19.0677652 9.20553823 -25.81208292 8.78999254 -34.2734375 8.94140625 C-40.65124084 9.51788962 -44.62450623 11.85973279 -49 16.4375 C-54.81859493 24.0883063 -55.16342616 32.36304439 -55.0625 41.6875 C-55.07410156 42.75548828 -55.08570313 43.82347656 -55.09765625 44.92382812 C-55.06478975 53.89090382 -53.93365518 63.36321352 -47.6875 70.25 C-41.00792795 74.94813183 -34.73783519 76.31790161 -26.6875 75.25 C-22.04855109 74.32079158 -18.71341044 73.22329965 -15.25 69.9375 C-11.98652499 64.32432299 -11.51256165 59.85049321 -10.6875 53.25 C-18.6075 53.25 -26.5275 53.25 -34.6875 53.25 C-34.6875 47.97 -34.6875 42.69 -34.6875 37.25 C-20.4975 37.25 -6.3075 37.25 8.3125 37.25 C8.3125 55.07 8.3125 72.89 8.3125 91.25 C2.3725 91.25 -3.5675 91.25 -9.6875 91.25 C-9.6875 86.96 -9.6875 82.67 -9.6875 78.25 C-13.56958516 81.92576519 -13.56958516 81.92576519 -15.875 85.25 C-19.710108 89.73377612 -23.88868794 91.83993597 -29.79541016 92.47753906 C-39.204323 93.09945432 -48.3935647 93.26091924 -56.6875 88.25 C-57.38875 87.84910156 -58.09 87.44820312 -58.8125 87.03515625 C-67.82024572 81.1494133 -72.97445237 70.78524116 -75.3046875 60.53515625 C-78.89206896 41.05026928 -77.58406561 22.91157869 -66.31640625 6.21875 C-50.82487053 -13.79297886 -19.47565132 -12.68181946 0 0 Z " fill="#FAFAFA" transform="translate(412.6875,961.75)"/>
<path d="M0 0 C7.56562309 6.09199771 12.99842937 13.47622164 14.30908203 23.2902832 C14.44343351 26.08117499 14.44315345 28.83570431 14.3828125 31.62890625 C14.38990234 32.55767578 14.39699219 33.48644531 14.40429688 34.44335938 C14.31000673 44.77900969 11.22690054 53.78966933 4.1953125 61.48046875 C-4.60880861 69.82308351 -13.43497119 71.21426549 -25.21557617 71.18432617 C-35.30553212 70.83608637 -42.45856788 67.24253757 -50.0546875 60.56640625 C-51.78515625 58.234375 -51.78515625 58.234375 -53.2421875 55.75390625 C-53.73074219 54.94308594 -54.21929687 54.13226562 -54.72265625 53.296875 C-58.0534763 46.4691823 -58.39244902 40.13850345 -58.3671875 32.69140625 C-58.38330078 31.74910156 -58.39941406 30.80679688 -58.41601562 29.8359375 C-58.42297596 19.77129677 -55.71145701 11.24621612 -49.0546875 3.56640625 C-35.33281806 -8.66241004 -15.40945272 -10.44973009 0 0 Z " fill="#FAFAFA" transform="translate(539.0546875,983.43359375)"/>
<path d="M0 0 C7.79404223 5.31126265 11.93519231 12.13884466 13.9375 21.3203125 C14.02528022 22.67626847 14.06807475 24.03573879 14.0703125 25.39453125 C14.07160156 26.14412109 14.07289062 26.89371094 14.07421875 27.66601562 C14.07035156 28.43880859 14.06648438 29.21160156 14.0625 30.0078125 C14.06636719 30.79220703 14.07023437 31.57660156 14.07421875 32.38476562 C14.06417749 38.19363501 14.06417749 38.19363501 12.9375 39.3203125 C11.43331261 39.41343139 9.92478644 39.43777278 8.41772461 39.43383789 C6.97634377 39.43372459 6.97634377 39.43372459 5.50584412 39.43360901 C4.461064 39.42844772 3.41628387 39.42328644 2.33984375 39.41796875 C1.27584854 39.4165538 0.21185333 39.41513885 -0.88438416 39.41368103 C-4.29795083 39.40806314 -7.711453 39.39550761 -11.125 39.3828125 C-13.43294176 39.37779981 -15.74088455 39.3732365 -18.04882812 39.36914062 C-23.72007426 39.3580879 -29.39128253 39.34133237 -35.0625 39.3203125 C-34.76055803 40.76127075 -34.45359823 42.20117815 -34.14453125 43.640625 C-33.88893433 44.84356201 -33.88893433 44.84356201 -33.62817383 46.07080078 C-32.63021469 50.03937889 -31.17520112 52.49579296 -27.890625 54.9296875 C-24.43305887 56.6298167 -21.96533213 56.72033095 -18.125 56.6953125 C-16.34802734 56.70691406 -16.34802734 56.70691406 -14.53515625 56.71875 C-9.35482758 56.12438158 -6.13274019 54.53137377 -2.6875 50.6328125 C-2.15125 49.8696875 -1.615 49.1065625 -1.0625 48.3203125 C2.50790303 48.97933549 5.11482255 50.48260408 8.1875 52.3828125 C9.07953125 52.93066406 9.9715625 53.47851562 10.890625 54.04296875 C11.56609375 54.46449219 12.2415625 54.88601563 12.9375 55.3203125 C11.85911338 61.59456193 6.71100622 65.94494033 1.875 69.6953125 C-4.40108744 73.16719066 -9.85115931 73.65904043 -16.875 73.6328125 C-17.72642578 73.64892578 -18.57785156 73.66503906 -19.45507812 73.68164062 C-29.20760085 73.68906829 -37.64357071 70.7472569 -45.0625 64.3203125 C-52.43631129 55.64524039 -54.56800403 47.01190627 -54.4375 35.8828125 C-54.44910156 34.89732422 -54.46070313 33.91183594 -54.47265625 32.89648438 C-54.43223631 22.73086885 -51.82745286 14.07388061 -45.0625 6.3203125 C-33.4022089 -3.63359454 -14.22940634 -7.26716109 0 0 Z " fill="#FBFBFB" transform="translate(1028.0625,980.6796875)"/>
<path d="M0 0 C0.97509521 0.00427002 1.95019043 0.00854004 2.95483398 0.01293945 C11.81204092 0.22334737 17.2609247 2.22393616 24 7.9375 C33.47872706 19.36772969 32.125 26.19508971 32.125 42.5 C15.955 42.5 -0.215 42.5 -16.875 42.5 C-14.31881697 52.75725689 -14.31881697 52.75725689 -6.875 59.5 C-3.2748069 60.09441015 -3.2748069 60.09441015 0.5625 59.9375 C1.83996094 59.93621094 3.11742187 59.93492188 4.43359375 59.93359375 C8.34455087 59.47421149 10.79368372 58.56669548 14.125 56.5 C16.00631569 53.95211147 16.00631569 53.95211147 17.125 51.5 C21.11512371 52.05989303 23.6505052 53.25669768 26.9375 55.5625 C27.72769531 56.11035156 28.51789063 56.65820312 29.33203125 57.22265625 C29.92371094 57.64417969 30.51539063 58.06570313 31.125 58.5 C30.21751262 64.15507926 27.75050312 67.5335738 23.2265625 70.921875 C12.46081567 77.93404727 -0.75681127 78.29356598 -13.19140625 75.84765625 C-22.33067358 72.51518475 -29.58455877 65.1604899 -33.84375 56.5390625 C-37.73351989 46.27439196 -37.79424351 30.80662586 -33.91015625 20.52734375 C-29.50232933 11.89465631 -22.44505929 4.34590603 -13.18994141 1.09106445 C-8.82772987 -0.02272105 -4.48079534 -0.0295016 0 0 Z " fill="#FBFBFB" transform="translate(691.875,977.5)"/>
<path d="M0 0 C1.79296875 1.66015625 1.79296875 1.66015625 3 3 C1.55575365 6.23861303 -0.25772247 8.61969163 -2.625 11.25 C-3.25664063 11.95640625 -3.88828125 12.6628125 -4.5390625 13.390625 C-5.02117188 13.92171875 -5.50328125 14.4528125 -6 15 C-9.99664799 14.17132137 -12.63258434 12.29270853 -16 10 C-19.03306113 8.98897962 -21.25940239 8.8017465 -24.4375 8.75 C-25.85869141 8.71132813 -25.85869141 8.71132813 -27.30859375 8.671875 C-30.3902834 9.04758172 -31.71972555 9.9515265 -34 12 C-33.73606499 15.43230448 -33.73606499 15.43230448 -33 19 C-29.31068484 21.45954344 -25.7066236 21.97921491 -21.4375 22.8125 C-11.63577069 24.88099616 -3.52159858 27.25907487 2.94140625 35.3515625 C6.39593052 40.73093239 5.58194174 47.90314526 5 54 C2.88168145 60.30546224 -2.24898535 64.87574637 -8 68 C-18.44791889 71.80518698 -32.67782317 71.9277179 -43 67.75 C-47.93104109 65.37253376 -51.94302995 62.58545508 -55 58 C-54.792472 53.98225783 -52.3245383 51.95458791 -49.5625 49.25 C-48.75941406 48.45078125 -47.95632813 47.6515625 -47.12890625 46.828125 C-45 45 -45 45 -43 45 C-42.46375 45.7425 -41.9275 46.485 -41.375 47.25 C-37.57245522 51.65294659 -33.77864231 53.71144868 -27.953125 54.31640625 C-21.11959616 54.60396773 -21.11959616 54.60396773 -15 52 C-14.18129815 48.43793339 -14.18129815 48.43793339 -14 45 C-16.82372404 42.6645861 -19.11851618 41.47989917 -22.66796875 40.60546875 C-23.56193359 40.37150391 -24.45589844 40.13753906 -25.37695312 39.89648438 C-27.22952 39.42915861 -29.08367257 38.96806811 -30.93945312 38.51367188 C-38.62228218 36.4843491 -46.1608418 33.4133953 -50.5625 26.4375 C-53.11646882 20.27723262 -53.31982767 12.90237508 -51.1875 6.59765625 C-47.62232005 0.14814668 -41.18560999 -4.275567 -34.1875 -6.375 C-21.75518783 -8.80686945 -10.73294596 -6.4245165 0 0 Z " fill="#F9F9F9" transform="translate(957,984)"/>
<path d="M0 0 C6.27 0 12.54 0 19 0 C19.02505615 2.55919189 19.0501123 5.11838379 19.07592773 7.75512695 C19.15932121 16.20094423 19.24801747 24.64669979 19.33933926 33.09243488 C19.39455602 38.21418916 19.4479741 43.33594915 19.49731445 48.45776367 C19.5449763 53.39852613 19.59731988 58.33921864 19.65294075 63.27989769 C19.67335603 65.16696626 19.69207048 67.054054 19.70907402 68.94115639 C19.73313625 71.57973806 19.76318844 74.21818744 19.79467773 76.85668945 C19.80331093 78.03272987 19.80331093 78.03272987 19.81211853 79.23252869 C19.85537429 82.41115956 19.9875822 84.96274659 21 88 C23.64 88.33 26.28 88.66 29 89 C30.26305335 94.07476794 31.27036084 98.72796354 31 104 C24.92570483 106.02476506 16.86576998 106.00152787 10.6328125 104.38671875 C5.9105012 102.00457505 3.19533363 97.64467281 1 93 C-0.22636891 88.81158542 -0.13256082 84.70605624 -0.11352539 80.37597656 C-0.11367142 79.50732468 -0.11381744 78.63867279 -0.1139679 77.74369812 C-0.11327191 74.87598157 -0.10549415 72.00833019 -0.09765625 69.140625 C-0.09579096 67.1509403 -0.09436758 65.16125515 -0.09336853 63.17156982 C-0.08955212 57.93714121 -0.07972929 52.70274039 -0.06866455 47.46832275 C-0.05843162 42.12602108 -0.05386687 36.78371491 -0.04882812 31.44140625 C-0.03810625 20.96092333 -0.02051652 10.48046833 0 0 Z " fill="#F9F9F9" transform="translate(441,949)"/>
<path d="M0 0 C6.27 0 12.54 0 19 0 C19 24.42 19 48.84 19 74 C12.73 74 6.46 74 0 74 C0 49.58 0 25.16 0 0 Z " fill="#FAFAFA" transform="translate(869,979)"/>
<path d="M0 0 C5.0369913 2.91138097 7.22541296 7.12660509 8.75 12.625 C9.69096978 21.04848907 9.52702256 29.87687862 5.75 37.625 C3.11871 40.84833025 1.67984608 42.31505131 -2.25 43.625 C-8.02933581 44.09568022 -13.38640544 44.37697675 -18.8125 42.1875 C-24.85830119 35.83165772 -25.62686946 29.58067055 -25.75 21.0625 C-25.76853027 20.2593335 -25.78706055 19.45616699 -25.80615234 18.62866211 C-25.7458697 12.86103118 -24.47288473 8.44405445 -21.25 3.625 C-15.20744243 -2.12279866 -7.71859899 -3.11966145 0 0 Z " fill="#030303" transform="translate(525.25,994.375)"/>
<path d="M0 0 C4.5582392 3.06007667 6.73317229 7.4583056 8.25 12.625 C9.12273459 20.65234006 9.51160498 30.68119188 4.88671875 37.69140625 C2.43608581 40.70148889 0.99443105 42.37685632 -2.75 43.625 C-8.24302515 44.10851304 -13.13355065 44.31776401 -18.25 42.125 C-24.22516431 36.14983569 -25.89024621 29.17848393 -26.0625 20.9375 C-25.99696526 13.93256399 -25.11834199 8.27477004 -20.25390625 3.00390625 C-14.15788153 -2.36241975 -7.39997631 -2.71332465 0 0 Z " fill="#040404" transform="translate(614.75,994.375)"/>
<path d="M0 0 C2.34841213 1.8787297 3.80873321 3.06503308 5.1875 5.75 C5.59260805 10.00363449 5.64059967 12.61725083 4.0625 16.5625 C1.17856388 19.92709214 -1.51960648 21.53632534 -5.9921875 21.953125 C-10.50120628 21.80130619 -13.22894862 20.92723833 -16.375 17.625 C-18.35516299 14.92778634 -18.83941295 13.59659619 -19.4375 10.1875 C-18.58684334 5.50888836 -16.83076949 2.33578317 -13.0625 -0.625 C-8.39863264 -1.92051871 -4.37274106 -1.94344047 0 0 Z " fill="#F6F6F6" transform="translate(1072.8125,1032.25)"/>
<path d="M0 0 C3.92450929 1.8220936 5.5251347 3.27187321 7.875 6.875 C9 10 9 10 9 16 C-1.23 16 -11.46 16 -22 16 C-20.86954662 8.08682635 -20.86954662 8.08682635 -18.1875 5.1875 C-17.68605469 4.62417969 -17.18460938 4.06085937 -16.66796875 3.48046875 C-11.74635902 -0.88789211 -6.29234026 -0.7295467 0 0 Z " fill="#050505" transform="translate(1015,992)"/>
<path d="M0 0 C4.43793873 2.13972046 7.08717799 4.43048075 9 9 C9 11.31 9 13.62 9 16 C-1.23 16 -11.46 16 -22 16 C-19.14683544 4.58734177 -19.14683544 4.58734177 -13.171875 0.859375 C-8.93176318 -0.81836709 -4.47039639 -0.52478566 0 0 Z " fill="#040404" transform="translate(697,992)"/>
<path d="M0 0 C3.16118708 1.63913404 5.26864575 3.00269875 7.375 5.875 C8.69601084 10.36643685 8.48383625 13.10144696 6.25 17.25 C2.89889879 21.34579037 1.38667774 21.84343961 -3.875 22.4375 C-7.12458092 22.3646122 -8.89939678 21.71798257 -11.4375 19.6875 C-14.4301569 16.54885984 -14.89293685 14.94572445 -15.375 10.6875 C-14.87765929 5.79698299 -13.42915508 4.42915508 -10 1 C-6.78501861 -0.6074907 -3.48701742 -0.47314549 0 0 Z " fill="#F8F8F8" transform="translate(882,948)"/>
</svg>
