<svg width="245" height="44" viewBox="0 0 245 44" fill="none" xmlns="http://www.w3.org/2000/svg">
    <path d="M3.85245 23.9929V20.3111L21.3411 12.2315V16.7699L8.91495 22.1009L9.05558 21.858V22.446L8.91495 22.2031L21.3411 27.5341V32.0724L3.85245 23.9929ZM27.2953 8.81818H33.0993L40.872 27.7898H41.1788L48.9515 8.81818H54.7555V35H50.2044V17.0128H49.9615L42.7257 34.9233H39.3251L32.0893 16.9744H31.8464V35H27.2953V8.81818ZM78.1887 23.9929L60.7001 32.0724V27.5341L73.1262 22.2031L72.9856 22.446V21.858L73.1262 22.1009L60.7001 16.7699V12.2315L78.1887 20.3111V23.9929Z" fill="#32DE84"/>
    <path d="M93.0726 35V8.81818H110.101V12.794H97.8155V19.902H109.219V23.8778H97.8155V31.0241H110.203V35H93.0726ZM119.363 8.81818V35H114.735V8.81818H119.363ZM132.662 42.7727C131 42.7727 129.572 42.5469 128.379 42.0952C127.186 41.652 126.227 41.0554 125.503 40.3054C124.778 39.5554 124.275 38.7244 123.994 37.8125L128.162 36.8026C128.349 37.1861 128.622 37.5653 128.98 37.9403C129.338 38.3239 129.819 38.6392 130.425 38.8864C131.038 39.142 131.809 39.2699 132.738 39.2699C134.051 39.2699 135.138 38.9503 135.998 38.3111C136.859 37.6804 137.29 36.6406 137.29 35.1918V31.4716H137.059C136.821 31.9489 136.471 32.4389 136.011 32.9418C135.559 33.4446 134.959 33.8665 134.209 34.2074C133.467 34.5483 132.534 34.7188 131.409 34.7188C129.9 34.7188 128.532 34.3651 127.305 33.6577C126.086 32.9418 125.115 31.8764 124.39 30.4616C123.675 29.0384 123.317 27.2571 123.317 25.1179C123.317 22.9616 123.675 21.142 124.39 19.6591C125.115 18.1676 126.091 17.0384 127.318 16.2713C128.545 15.4957 129.913 15.108 131.422 15.108C132.572 15.108 133.518 15.304 134.26 15.696C135.01 16.0795 135.606 16.544 136.05 17.0895C136.493 17.6264 136.829 18.1335 137.059 18.6108H137.315V15.3636H141.879V35.3196C141.879 36.9986 141.479 38.3878 140.677 39.4872C139.876 40.5866 138.781 41.4091 137.392 41.9545C136.003 42.5 134.426 42.7727 132.662 42.7727ZM132.7 31.0881C133.68 31.0881 134.515 30.8494 135.206 30.3722C135.896 29.8949 136.42 29.2088 136.778 28.3139C137.136 27.419 137.315 26.3452 137.315 25.0923C137.315 23.8565 137.136 22.7741 136.778 21.8452C136.429 20.9162 135.909 20.196 135.219 19.6847C134.537 19.1648 133.697 18.9048 132.7 18.9048C131.669 18.9048 130.808 19.1733 130.118 19.7102C129.427 20.2472 128.907 20.9844 128.558 21.9219C128.209 22.8509 128.034 23.9077 128.034 25.0923C128.034 26.294 128.209 27.3466 128.558 28.25C128.916 29.1449 129.44 29.8437 130.131 30.3466C130.829 30.8409 131.686 31.0881 132.7 31.0881ZM155.187 35.3835C153.27 35.3835 151.608 34.9616 150.202 34.1179C148.795 33.2741 147.704 32.0937 146.929 30.5767C146.162 29.0597 145.778 27.2869 145.778 25.2585C145.778 23.2301 146.162 21.4531 146.929 19.9276C147.704 18.402 148.795 17.2173 150.202 16.3736C151.608 15.5298 153.27 15.108 155.187 15.108C157.105 15.108 158.767 15.5298 160.173 16.3736C161.579 17.2173 162.666 18.402 163.433 19.9276C164.209 21.4531 164.596 23.2301 164.596 25.2585C164.596 27.2869 164.209 29.0597 163.433 30.5767C162.666 32.0937 161.579 33.2741 160.173 34.1179C158.767 34.9616 157.105 35.3835 155.187 35.3835ZM155.213 31.6761C156.253 31.6761 157.122 31.3906 157.821 30.8196C158.52 30.2401 159.04 29.4645 159.381 28.4929C159.73 27.5213 159.905 26.4389 159.905 25.2457C159.905 24.044 159.73 22.9574 159.381 21.9858C159.04 21.0057 158.52 20.2259 157.821 19.6463C157.122 19.0668 156.253 18.777 155.213 18.777C154.148 18.777 153.261 19.0668 152.554 19.6463C151.855 20.2259 151.331 21.0057 150.981 21.9858C150.64 22.9574 150.47 24.044 150.47 25.2457C150.47 26.4389 150.64 27.5213 150.981 28.4929C151.331 29.4645 151.855 30.2401 152.554 30.8196C153.261 31.3906 154.148 31.6761 155.213 31.6761ZM173.152 23.4943V35H168.524V8.81818H173.05V18.7003H173.28C173.74 17.5923 174.452 16.7187 175.415 16.0795C176.387 15.4318 177.622 15.108 179.122 15.108C180.486 15.108 181.675 15.3935 182.689 15.9645C183.703 16.5355 184.487 17.3707 185.041 18.4702C185.604 19.5696 185.885 20.9119 185.885 22.4972V35H181.257V23.2131C181.257 21.892 180.916 20.8651 180.235 20.1321C179.561 19.3906 178.615 19.0199 177.396 19.0199C176.578 19.0199 175.845 19.1989 175.198 19.5568C174.558 19.9062 174.056 20.4134 173.689 21.0781C173.331 21.7429 173.152 22.5483 173.152 23.4943ZM196.253 35.3963C195.009 35.3963 193.888 35.1747 192.891 34.7315C191.902 34.2798 191.118 33.6151 190.539 32.7372C189.968 31.8594 189.682 30.777 189.682 29.4901C189.682 28.3821 189.887 27.4659 190.296 26.7415C190.705 26.017 191.263 25.4375 191.97 25.0028C192.678 24.5682 193.475 24.2401 194.361 24.0185C195.256 23.7884 196.181 23.6222 197.135 23.5199C198.286 23.4006 199.219 23.294 199.935 23.2003C200.651 23.098 201.171 22.9446 201.494 22.7401C201.827 22.527 201.993 22.1989 201.993 21.7557V21.679C201.993 20.7159 201.708 19.9702 201.137 19.4418C200.566 18.9134 199.743 18.6491 198.669 18.6491C197.536 18.6491 196.637 18.8963 195.972 19.3906C195.316 19.8849 194.872 20.4687 194.642 21.142L190.321 20.5284C190.662 19.3352 191.225 18.3381 192.009 17.5369C192.793 16.7273 193.752 16.1222 194.885 15.7216C196.019 15.3125 197.271 15.108 198.644 15.108C199.59 15.108 200.531 15.2188 201.469 15.4403C202.406 15.6619 203.263 16.0284 204.039 16.5398C204.814 17.0426 205.436 17.7287 205.905 18.598C206.382 19.4673 206.621 20.554 206.621 21.858V35H202.172V32.3026H202.019C201.737 32.848 201.341 33.3594 200.83 33.8366C200.327 34.3054 199.692 34.6847 198.925 34.9744C198.166 35.2557 197.276 35.3963 196.253 35.3963ZM197.455 31.9957C198.384 31.9957 199.189 31.8125 199.871 31.446C200.553 31.071 201.077 30.5767 201.443 29.9631C201.818 29.3494 202.006 28.6804 202.006 27.956V25.642C201.861 25.7614 201.614 25.8722 201.264 25.9744C200.923 26.0767 200.54 26.1662 200.114 26.2429C199.688 26.3196 199.266 26.3878 198.848 26.4474C198.431 26.5071 198.068 26.5582 197.762 26.6009C197.071 26.6946 196.453 26.848 195.908 27.0611C195.362 27.2741 194.932 27.5724 194.617 27.956C194.301 28.331 194.144 28.8168 194.144 29.4134C194.144 30.2656 194.455 30.9091 195.077 31.3438C195.699 31.7784 196.492 31.9957 197.455 31.9957ZM211.274 35V15.3636H215.762V18.6364H215.966C216.324 17.5028 216.938 16.6293 217.807 16.0156C218.685 15.3935 219.686 15.0824 220.811 15.0824C221.067 15.0824 221.352 15.0952 221.668 15.1207C221.992 15.1378 222.26 15.1676 222.473 15.2102V19.4673C222.277 19.3991 221.966 19.3395 221.54 19.2884C221.122 19.2287 220.718 19.1989 220.325 19.1989C219.482 19.1989 218.723 19.3821 218.05 19.7486C217.385 20.1065 216.861 20.6051 216.477 21.2443C216.094 21.8835 215.902 22.6207 215.902 23.456V35H211.274ZM229.022 42.3636C228.391 42.3636 227.807 42.3125 227.27 42.2102C226.742 42.1165 226.32 42.0057 226.005 41.8778L227.079 38.2727C227.752 38.4688 228.353 38.5625 228.881 38.554C229.41 38.5455 229.874 38.3793 230.275 38.0554C230.684 37.7401 231.029 37.2116 231.31 36.4702L231.706 35.4091L224.586 15.3636H229.495L234.02 30.1932H234.225L238.763 15.3636H243.685L235.823 37.3778C235.456 38.4176 234.971 39.3082 234.366 40.0497C233.76 40.7997 233.019 41.3707 232.141 41.7628C231.272 42.1634 230.232 42.3636 229.022 42.3636Z" fill="#CCCCCC"/>
</svg>