<svg width="86" height="91" viewBox="0 0 86 91" fill="none" xmlns="http://www.w3.org/2000/svg">
    <rect width="86" height="91" rx="24" fill="#0A1019"/>
    <path d="M4 51.1509V41.1666L22.3506 19.2563V31.5635L9.312 46.0202L9.45956 45.3615V46.956L9.312 46.2973L22.3506 60.7539V73.0609L4 51.1509ZM28.5982 10H34.6883L42.844 61.4473H43.166L51.3217 10H57.4118V81H52.6364V32.2222H52.3815L44.7891 80.792H41.2209L33.6285 32.1181H33.3736V81H28.5982V10ZM82 51.1509L63.6494 73.0609V60.7539L76.688 46.2973L76.5404 46.956V45.3615L76.688 46.0202L63.6494 31.5635V19.2563L82 41.1666V51.1509Z" fill="#00FF7A"/>
</svg>