<?xml version="1.0" encoding="UTF-8"?>
<svg version="1.1" xmlns="http://www.w3.org/2000/svg" width="500" height="500">
<path d="M0 0 C165 0 330 0 500 0 C500 165 500 330 500 500 C335 500 170 500 0 500 C0 335 0 170 0 0 Z " fill="#000000" transform="translate(0,0)"/>
<path d="M0 0 C2.81009519 1.00875212 3.66697708 1.33395417 5 4 C7.49361571 2.79618552 9.68143083 1.54571278 12 0 C16.99273591 -0.46229036 19.99990685 -0.08578614 24 3 C26.36008817 6.54013225 26.23463644 8.01121955 26.1953125 12.19921875 C26.18886719 13.40771484 26.18242187 14.61621094 26.17578125 15.86132812 C26.15902344 17.12396484 26.14226562 18.38660156 26.125 19.6875 C26.11597656 20.96173828 26.10695313 22.23597656 26.09765625 23.54882812 C26.07405641 26.69940627 26.04113194 29.84960983 26 33 C23.36 33 20.72 33 18 33 C17.97494385 32.27820557 17.9498877 31.55641113 17.92407227 30.81274414 C17.80848698 27.562465 17.68559226 24.31250312 17.5625 21.0625 C17.52318359 19.92619141 17.48386719 18.78988281 17.44335938 17.61914062 C17.40146484 16.53955078 17.35957031 15.45996094 17.31640625 14.34765625 C17.26141968 12.84730835 17.26141968 12.84730835 17.20532227 11.31665039 C17.25328159 9.03930812 17.25328159 9.03930812 16 8 C13.04182893 7.74994614 13.04182893 7.74994614 10 8 C7.43863779 10.56136221 7.70333143 11.66561331 7.5859375 15.2265625 C7.54726563 16.2578125 7.50859375 17.2890625 7.46875 18.3515625 C7.4378125 19.43179687 7.406875 20.51203125 7.375 21.625 C7.33632813 22.71296875 7.29765625 23.8009375 7.2578125 24.921875 C7.16333753 27.61441165 7.07777569 30.30693757 7 33 C4.03 33 1.06 33 -2 33 C-2.02505615 32.27820557 -2.0501123 31.55641113 -2.07592773 30.81274414 C-2.19151302 27.562465 -2.31440774 24.31250312 -2.4375 21.0625 C-2.47681641 19.92619141 -2.51613281 18.78988281 -2.55664062 17.61914062 C-2.59853516 16.53955078 -2.64042969 15.45996094 -2.68359375 14.34765625 C-2.72025146 13.34742432 -2.75690918 12.34719238 -2.79467773 11.31665039 C-2.74671841 9.03930812 -2.74671841 9.03930812 -4 8 C-7.51745287 8.25248627 -7.51745287 8.25248627 -11 9 C-12.23060421 11.46120841 -12.2057723 13.25776866 -12.31640625 16.0078125 C-12.35830078 16.99394531 -12.40019531 17.98007812 -12.44335938 18.99609375 C-12.48267578 20.02863281 -12.52199219 21.06117188 -12.5625 22.125 C-12.60568359 23.16527344 -12.64886719 24.20554687 -12.69335938 25.27734375 C-12.7996288 27.85142528 -12.90166583 30.42560508 -13 33 C-15.64 33 -18.28 33 -21 33 C-21 22.44 -21 11.88 -21 1 C-18.36 1 -15.72 1 -13 1 C-12.67 1.66 -12.34 2.32 -12 3 C-11.505 2.505 -11.01 2.01 -10.5 1.5 C-6.99177003 -0.60493798 -3.99952091 -0.48454155 0 0 Z " fill="#F7F7F7" transform="translate(358,240)"/>
<path d="M0 0 C3.96 0 7.92 0 12 0 C13.99770281 5.80108002 15.9914319 11.60350425 17.98144531 17.40722656 C18.65938245 19.38253909 19.33841555 21.35747583 20.01855469 23.33203125 C20.99440357 26.16569157 21.9663391 29.00066763 22.9375 31.8359375 C23.24373291 32.72243988 23.54996582 33.60894226 23.86547852 34.52230835 C24.14576904 35.34300812 24.42605957 36.16370789 24.71484375 37.00927734 C24.96355225 37.73319672 25.21226074 38.45711609 25.46850586 39.20297241 C26 41 26 41 26 43 C23.03 43 20.06 43 17 43 C15.515 38.545 15.515 38.545 14 34 C8.39 33.67 2.78 33.34 -3 33 C-3.66 36.3 -4.32 39.6 -5 43 C-7.97 43 -10.94 43 -14 43 C-12.76653248 37.03994635 -11.24795074 31.40256175 -9.1796875 25.68359375 C-8.91616486 24.94166275 -8.65264221 24.19973175 -8.38113403 23.43531799 C-7.55071797 21.100907 -6.7130093 18.76919446 -5.875 16.4375 C-5.30550184 14.84066866 -4.73648717 13.24366479 -4.16796875 11.64648438 C-2.78421719 7.76230965 -1.39392589 3.88053444 0 0 Z " fill="#00D836" transform="translate(125,230)"/>
<path d="M0 0 C0.70382813 -0.02900391 1.40765625 -0.05800781 2.1328125 -0.08789062 C7.4313711 -0.15190667 10.10786155 1.01051227 14.25 4.3125 C13.00023244 7.96566671 12.57901247 9.09315836 9.25 11.3125 C8.425 10.8175 7.6 10.3225 6.75 9.8125 C2.46493698 7.97604442 -0.13573534 7.9996685 -4.75 8.3125 C-6.04633621 9.37895115 -6.04633621 9.37895115 -5.8125 11.875 C-5.791875 12.679375 -5.77125 13.48375 -5.75 14.3125 C-2.48526507 15.72721847 0.75800195 16.71460534 4.1875 17.625 C8.97126952 19.03157104 11.77318584 20.74653676 15.25 24.3125 C16.45643566 27.93180698 16.57268559 30.50481005 16.25 34.3125 C13.50926584 39.59095097 10.41877582 41.72811209 5.25 44.3125 C-1.83730577 45.12975076 -7.6446927 44.04560201 -13.75 40.3125 C-15.50390625 38.67578125 -15.50390625 38.67578125 -16.75 37.3125 C-15.54618552 34.81888429 -14.29571278 32.63106917 -12.75 30.3125 C-10.55825598 31.33009544 -8.79425871 32.27367657 -6.96875 33.875 C-4.13212847 35.71281113 -2.34689433 35.61953194 1 35.5 C1.98484375 35.47292969 2.9696875 35.44585937 3.984375 35.41796875 C5.10585937 35.36576172 5.10585937 35.36576172 6.25 35.3125 C6.25 33.0025 6.25 30.6925 6.25 28.3125 C5.22519531 27.99796875 4.20039063 27.6834375 3.14453125 27.359375 C1.78367287 26.92765441 0.42300573 26.49533066 -0.9375 26.0625 C-1.61103516 25.85753906 -2.28457031 25.65257812 -2.97851562 25.44140625 C-7.94129635 23.84363294 -11.91232322 21.85024412 -15.0625 17.5 C-16.11736011 14.14362692 -16.22607715 11.82356897 -15.75 8.3125 C-11.39677329 1.56900464 -7.86870377 0.10576215 0 0 Z " fill="#F3F3F3" transform="translate(216.75,229.6875)"/>
<path d="M0 0 C2.64 0 5.28 0 8 0 C8.33 5.28 8.66 10.56 9 16 C10.65 14.68 12.3 13.36 14 12 C17.82985513 11.52126811 20.20428349 11.65639514 23.75 13.1875 C27.12411595 15.90553785 28.82396815 18.52044915 29.34057617 22.86254883 C29.32486572 23.88372803 29.30915527 24.90490723 29.29296875 25.95703125 C29.28330078 27.06884766 29.27363281 28.18066406 29.26367188 29.32617188 C29.23853516 30.47666016 29.21339844 31.62714844 29.1875 32.8125 C29.16719727 34.56723633 29.16719727 34.56723633 29.14648438 36.35742188 C29.11120278 39.238752 29.0619028 42.11913904 29 45 C26.03 45 23.06 45 20 45 C19.97494385 44.27820557 19.9498877 43.55641113 19.92407227 42.81274414 C19.80848698 39.562465 19.68559226 36.31250312 19.5625 33.0625 C19.52318359 31.92619141 19.48386719 30.78988281 19.44335938 29.61914062 C19.40146484 28.53955078 19.35957031 27.45996094 19.31640625 26.34765625 C19.27974854 25.34742432 19.24309082 24.34719238 19.20532227 23.31665039 C19.25328159 21.03930812 19.25328159 21.03930812 18 20 C13.9240605 19.56180305 13.9240605 19.56180305 10.33666992 21.1965332 C8.5711273 23.57864524 8.57350154 25.1568468 8.48828125 28.10546875 C8.45283203 29.08837891 8.41738281 30.07128906 8.38085938 31.08398438 C8.34702148 32.62022461 8.34702148 32.62022461 8.3125 34.1875 C8.27833984 35.22326172 8.24417969 36.25902344 8.20898438 37.32617188 C8.12647358 39.8840066 8.05733428 42.44149723 8 45 C5.36 45 2.72 45 0 45 C0 30.15 0 15.3 0 0 Z " fill="#F4F4F4" transform="translate(240,228)"/>
<path d="M0 0 C3.00197464 1.80118478 4.45166366 2.90332732 6 6 C6.15123831 7.5195764 6.24881693 9.04472502 6.31640625 10.5703125 C6.35830078 11.46621094 6.40019531 12.36210937 6.44335938 13.28515625 C6.48267578 14.22230469 6.52199219 15.15945312 6.5625 16.125 C6.60568359 17.06988281 6.64886719 18.01476562 6.69335938 18.98828125 C6.79959072 21.32537092 6.90163176 23.6625683 7 26 C7.99 26.33 8.98 26.66 10 27 C10 28.98 10 30.96 10 33 C7.36 33 4.72 33 2 33 C1.34 31.68 0.68 30.36 0 29 C-0.66 29 -1.32 29 -2 29 C-2.33 29.99 -2.66 30.98 -3 32 C-6.45569351 34.52531449 -9.85062423 34.4367764 -14 34 C-16.75329021 32.20437595 -18.52627461 30.94745078 -20 28 C-20.44675288 23.45801234 -20.6716321 21.11938683 -18.3125 17.1875 C-13.2999422 13.87732032 -7.85321673 13.0540932 -2 12 C-2.33 10.68 -2.66 9.36 -3 8 C-8.48576958 7.53750845 -8.48576958 7.53750845 -13.375 9.5 C-13.91125 9.995 -14.4475 10.49 -15 11 C-15.66 11 -16.32 11 -17 11 C-19 8 -19 8 -18.875 6 C-17.73834412 3.40192943 -16.39211516 2.47748289 -14 1 C-9.38471264 -0.53842912 -4.8197958 -0.52848638 0 0 Z " fill="#F3F3F3" transform="translate(411,240)"/>
<path d="M0 0 C2.5625 1.6875 2.5625 1.6875 4.5625 4.6875 C4.88134766 6.86401367 4.88134766 6.86401367 4.9765625 9.35546875 C5.01523437 10.24814453 5.05390625 11.14082031 5.09375 12.06054688 C5.1246875 12.98931641 5.155625 13.91808594 5.1875 14.875 C5.22617187 15.81537109 5.26484375 16.75574219 5.3046875 17.72460938 C5.39893187 20.0453771 5.48454025 22.36613748 5.5625 24.6875 C6.5525 25.0175 7.5425 25.3475 8.5625 25.6875 C8.5625 27.6675 8.5625 29.6475 8.5625 31.6875 C1.17788462 32.05673077 1.17788462 32.05673077 -1.9375 30.1875 C-2.4325 29.6925 -2.9275 29.1975 -3.4375 28.6875 C-4.118125 29.3475 -4.79875 30.0075 -5.5 30.6875 C-9.21948762 33.2199171 -11.013684 33.38599726 -15.4375 32.6875 C-19.78076067 30.31844873 -19.78076067 30.31844873 -21.4375 27.6875 C-22.22226443 24.21772011 -22.43552067 21.11645369 -21.4375 17.6875 C-17.89130894 14.0039104 -14.56536467 12.93555347 -9.625 11.9375 C-8.46355469 11.69515625 -7.30210937 11.4528125 -6.10546875 11.203125 C-5.22503906 11.03296875 -4.34460938 10.8628125 -3.4375 10.6875 C-3.7675 9.3675 -4.0975 8.0475 -4.4375 6.6875 C-9.92326958 6.22500845 -9.92326958 6.22500845 -14.8125 8.1875 C-15.34875 8.6825 -15.885 9.1775 -16.4375 9.6875 C-17.0975 9.6875 -17.7575 9.6875 -18.4375 9.6875 C-20.4375 6.6875 -20.4375 6.6875 -20.3125 4.6875 C-19.17584412 2.08942943 -17.82961516 1.16498289 -15.4375 -0.3125 C-10.14838926 -2.07553691 -5.20480366 -1.98728867 0 0 Z " fill="#F5F5F5" transform="translate(297.4375,241.3125)"/>
<path d="M0 0 C0 2.64 0 5.28 0 8 C-5.28 9.98 -10.56 11.96 -16 14 C-14.1025 14.78375 -12.205 15.5675 -10.25 16.375 C-6.77000055 17.81239108 -3.3421926 19.26400675 0 21 C0 23.31 0 25.62 0 28 C-3.66402203 27.37344935 -6.87061201 26.35781607 -10.30078125 24.93359375 C-11.76547852 24.3293457 -11.76547852 24.3293457 -13.25976562 23.71289062 C-14.26716797 23.29201172 -15.27457031 22.87113281 -16.3125 22.4375 C-17.33923828 22.01275391 -18.36597656 21.58800781 -19.42382812 21.15039062 C-21.95092341 20.10429072 -24.47620894 19.05404084 -27 18 C-27 15.69 -27 13.38 -27 11 C-21.46166387 8.16175972 -15.88436987 5.60426874 -10.125 3.25 C-9.36703125 2.93417969 -8.6090625 2.61835938 -7.828125 2.29296875 C-2.24956034 0 -2.24956034 0 0 0 Z " fill="#00D335" transform="translate(107,238)"/>
<path d="M0 0 C8.58 3.3 17.16 6.6 26 10 C26 12.64 26 15.28 26 18 C4.76595745 28 4.76595745 28 0 28 C0 25.69 0 23.38 0 21 C0.58007812 20.74605469 1.16015625 20.49210937 1.7578125 20.23046875 C2.53898438 19.88628906 3.32015625 19.54210937 4.125 19.1875 C4.89070312 18.85105469 5.65640625 18.51460938 6.4453125 18.16796875 C9.33012402 16.84907174 12.16287091 15.41856455 15 14 C7.575 11.03 7.575 11.03 0 8 C0 5.36 0 2.72 0 0 Z " fill="#00D635" transform="translate(155,238)"/>
<path d="M0 0 C1.09658936 3.28976808 0.79953138 4.71303767 0 8 C-0.63808594 8.12117187 -1.27617187 8.24234375 -1.93359375 8.3671875 C-2.75988281 8.53476563 -3.58617187 8.70234375 -4.4375 8.875 C-5.67306641 9.11863281 -5.67306641 9.11863281 -6.93359375 9.3671875 C-7.61550781 9.57601562 -8.29742187 9.78484375 -9 10 C-10.20270964 12.40541929 -10.20316663 14.10366591 -10.31640625 16.7890625 C-10.37924805 18.20058594 -10.37924805 18.20058594 -10.44335938 19.640625 C-10.50233398 21.11789062 -10.50233398 21.11789062 -10.5625 22.625 C-10.60568359 23.61757813 -10.64886719 24.61015625 -10.69335938 25.6328125 C-10.79961069 28.08839838 -10.90164964 30.54408703 -11 33 C-13.64 33 -16.28 33 -19 33 C-19 22.44 -19 11.88 -19 1 C-16.69 1 -14.38 1 -12 1 C-12 2.32 -12 3.64 -12 5 C-11.34 5 -10.68 5 -10 5 C-9.71125 4.360625 -9.4225 3.72125 -9.125 3.0625 C-6.99029742 -0.85112139 -4.08058807 -0.08870844 0 0 Z " fill="#F8F8F8" transform="translate(331,240)"/>
<path d="M0 0 C2 1 2 1 3.0703125 3.58203125 C3.59238281 5.18111328 3.59238281 5.18111328 4.125 6.8125 C4.47820312 7.87082031 4.83140625 8.92914063 5.1953125 10.01953125 C6 13 6 13 6 17 C2.37 17 -1.26 17 -5 17 C-4.54619105 15.10307857 -4.08675008 13.20750405 -3.625 11.3125 C-3.36976562 10.25675781 -3.11453125 9.20101562 -2.8515625 8.11328125 C-2.08094511 5.29593234 -1.14501457 2.68331675 0 0 Z " fill="#000E03" transform="translate(130,239)"/>
<path d="M0 0 C0.25 6.625 0.25 6.625 -2 10 C-5.5625 10.25 -5.5625 10.25 -9 10 C-10 9 -10 9 -10.1875 6.5625 C-10 4 -10 4 -8 2 C-1.66666667 0 -1.66666667 0 0 0 Z " fill="#070707" transform="translate(294,257)"/>
<path d="M0 0 C0.125 3.375 0.125 3.375 0 7 C-2 9 -2 9 -5.5625 9.1875 C-9 9 -9 9 -10 8 C-10.1875 5.5625 -10.1875 5.5625 -10 3 C-7.02931146 0.02931146 -4.09966187 0 0 0 Z " fill="#070707" transform="translate(409,258)"/>
</svg>
