<?xml version="1.0" encoding="UTF-8"?>
<svg version="1.1" xmlns="http://www.w3.org/2000/svg" width="500" height="500">
<path d="M0 0 C165 0 330 0 500 0 C500 165 500 330 500 500 C335 500 170 500 0 500 C0 335 0 170 0 0 Z " fill="#FEFEFE" transform="translate(0,0)"/>
<path d="M0 0 C2.64 0 5.28 0 8 0 C8.33 1.32 8.66 2.64 9 4 C9.680625 3.34 10.36125 2.68 11.0625 2 C14.73616939 -0.50122172 16.63083745 -0.54614532 21 0 C23.75 1.5 23.75 1.5 26 3 C29.00117757 3.33914005 29.00117757 3.33914005 30.625 1.5 C33.71957728 -0.45446986 36.09295805 -0.44387999 39.68359375 -0.59375 C43.22109786 0.31299642 44.69685166 2.2233534 47 5 C47.56762695 8.13793945 47.56762695 8.13793945 47.48828125 11.61328125 C47.47216797 12.86044922 47.45605469 14.10761719 47.43945312 15.39257812 C47.37661133 17.33293945 47.37661133 17.33293945 47.3125 19.3125 C47.28994141 20.62541016 47.26738281 21.93832031 47.24414062 23.29101562 C47.18527725 26.5285013 47.10308804 29.76367 47 33 C44.36 33 41.72 33 39 33 C38.97494385 32.27820557 38.9498877 31.55641113 38.92407227 30.81274414 C38.80848698 27.562465 38.68559226 24.31250312 38.5625 21.0625 C38.52318359 19.92619141 38.48386719 18.78988281 38.44335938 17.61914062 C38.40146484 16.53955078 38.35957031 15.45996094 38.31640625 14.34765625 C38.26141968 12.84730835 38.26141968 12.84730835 38.20532227 11.31665039 C38.25328159 9.03930812 38.25328159 9.03930812 37 8 C33.48254713 8.25248627 33.48254713 8.25248627 30 9 C28.76939579 11.46120841 28.7942277 13.25776866 28.68359375 16.0078125 C28.64169922 16.99394531 28.59980469 17.98007812 28.55664062 18.99609375 C28.51732422 20.02863281 28.47800781 21.06117188 28.4375 22.125 C28.39431641 23.16527344 28.35113281 24.20554687 28.30664062 25.27734375 C28.2003712 27.85142528 28.09833417 30.42560508 28 33 C25.36 33 22.72 33 20 33 C19.97494385 32.27820557 19.9498877 31.55641113 19.92407227 30.81274414 C19.80848698 27.562465 19.68559226 24.31250312 19.5625 21.0625 C19.52318359 19.92619141 19.48386719 18.78988281 19.44335938 17.61914062 C19.40146484 16.53955078 19.35957031 15.45996094 19.31640625 14.34765625 C19.27974854 13.34742432 19.24309082 12.34719238 19.20532227 11.31665039 C19.25328159 9.03930812 19.25328159 9.03930812 18 8 C15.04182893 7.74994614 15.04182893 7.74994614 12 8 C9.43863779 10.56136221 9.70333143 11.66561331 9.5859375 15.2265625 C9.52792969 16.7734375 9.52792969 16.7734375 9.46875 18.3515625 C9.4378125 19.43179687 9.406875 20.51203125 9.375 21.625 C9.31699219 23.25695312 9.31699219 23.25695312 9.2578125 24.921875 C9.16333753 27.61441165 9.07777569 30.30693757 9 33 C6.03 33 3.06 33 0 33 C0 22.11 0 11.22 0 0 Z " fill="#0D0D0D" transform="translate(330,240)"/>
<path d="M0 0 C1.51400391 0.01740234 1.51400391 0.01740234 3.05859375 0.03515625 C4.07050781 0.04417969 5.08242187 0.05320313 6.125 0.0625 C7.29869141 0.07990234 7.29869141 0.07990234 8.49609375 0.09765625 C9.09378475 1.7564979 9.69143106 3.41535565 10.2890625 5.07421875 C10.67006104 6.13165283 11.05105957 7.18908691 11.44360352 8.27856445 C12.27179094 10.57886766 13.09909903 12.87948764 13.92553711 15.18041992 C16.542246 22.46615025 16.542246 22.46615025 19.20703125 29.734375 C19.65304688 30.94738281 20.0990625 32.16039062 20.55859375 33.41015625 C20.94144531 34.43753906 21.32429688 35.46492188 21.71875 36.5234375 C22.49609375 39.09765625 22.49609375 39.09765625 22.49609375 43.09765625 C19.52609375 43.09765625 16.55609375 43.09765625 13.49609375 43.09765625 C12.83609375 39.79765625 12.17609375 36.49765625 11.49609375 33.09765625 C3.08109375 33.59265625 3.08109375 33.59265625 -5.50390625 34.09765625 C-6.49390625 37.06765625 -7.48390625 40.03765625 -8.50390625 43.09765625 C-11.47390625 43.09765625 -14.44390625 43.09765625 -17.50390625 43.09765625 C-15.12528634 34.88575419 -12.41612023 26.80756492 -9.6328125 18.72631836 C-8.8700863 16.50952183 -8.11265559 14.29095949 -7.35546875 12.07226562 C-6.8714102 10.66265171 -6.38704673 9.25314246 -5.90234375 7.84375 C-5.67630463 7.18032089 -5.4502655 6.51689178 -5.21737671 5.83335876 C-3.24285311 0.12647633 -3.24285311 0.12647633 0 0 Z " fill="#08E03E" transform="translate(121.50390625,229.90234375)"/>
<path d="M0 0 C1.28648437 -0.02835938 2.57296875 -0.05671875 3.8984375 -0.0859375 C8.36875427 0.46699476 10.13948797 1.64486209 13.625 4.375 C12.875 6.8125 12.875 6.8125 11.625 9.375 C9.75 10.3125 9.75 10.3125 7.625 10.375 C7.0475 10.065625 6.47 9.75625 5.875 9.4375 C2.40820375 7.80040177 -0.55899998 8.19035484 -4.375 8.375 C-5.365 8.87 -5.365 8.87 -6.375 9.375 C-6.045 11.355 -5.715 13.335 -5.375 15.375 C-3.83779297 15.72111328 -3.83779297 15.72111328 -2.26953125 16.07421875 C-0.90862854 16.40271251 0.45203647 16.73219211 1.8125 17.0625 C2.48603516 17.21138672 3.15957031 17.36027344 3.85351562 17.51367188 C8.7188558 18.72407358 11.27816711 20.47351307 14.625 24.375 C14.955 24.705 15.285 25.035 15.625 25.375 C16.24217081 31.01261801 15.92504883 35.59561894 12.625 40.375 C7.35846677 44.29114009 2.10084142 45.03196942 -4.375 44.375 C-9.18196782 43.1906746 -13.45556869 41.56374927 -16.375 37.375 C-16.375 35.3125 -16.375 35.3125 -15.375 33.375 C-13.3125 31.625 -13.3125 31.625 -11.375 30.375 C-10.59125 31.2 -9.8075 32.025 -9 32.875 C-5.34227929 35.98011542 -2.08894597 35.82875575 2.55078125 35.6484375 C4.61211659 35.59075859 4.61211659 35.59075859 5.625 34.375 C5.66580783 32.37541636 5.66754356 30.37454746 5.625 28.375 C1.77765275 26.65597251 -1.95541223 25.18559943 -6 24 C-10.23375823 22.57427287 -12.83968725 21.21886127 -15.375 17.375 C-16.27671047 12.48805131 -16.14638374 8.69737213 -13.625 4.375 C-9.21876668 0.45834816 -5.89885754 0.05887083 0 0 Z " fill="#0A0A0A" transform="translate(210.375,229.625)"/>
<path d="M0 0 C3.17052662 1.66545172 5.37546311 3.75092622 7 7 C7.08372659 8.52148326 7.10730027 10.04655778 7.09765625 11.5703125 C7.09443359 12.46621094 7.09121094 13.36210937 7.08789062 14.28515625 C7.07951172 15.22230469 7.07113281 16.15945313 7.0625 17.125 C7.05798828 18.06988281 7.05347656 19.01476562 7.04882812 19.98828125 C7.03702357 22.32558387 7.02055759 24.66276061 7 27 C8.32 27 9.64 27 11 27 C11 28.98 11 30.96 11 33 C8.03 33 5.06 33 2 33 C1.34 31.68 0.68 30.36 0 29 C-0.66 29 -1.32 29 -2 29 C-2.33 29.99 -2.66 30.98 -3 32 C-5.43954658 33.21977329 -7.15305849 33.20153813 -9.875 33.25 C-10.73867188 33.27578125 -11.60234375 33.3015625 -12.4921875 33.328125 C-15.51033741 32.93322688 -16.8186724 32.09329196 -19 30 C-20.21260877 26.36217368 -20.39544552 23.82264001 -20 20 C-17.08975316 15.42675497 -13.72670221 14.46663634 -8.6875 13.1875 C-6.79535867 12.77437867 -4.90049216 12.37282382 -3 12 C-2.67 10.68 -2.34 9.36 -2 8 C-7.50366792 7.67625483 -11.43672206 7.46713966 -16 11 C-16.99 9.68 -17.98 8.36 -19 7 C-18.01526648 4.14427279 -17.0416157 3.02987794 -14.5625 1.25 C-9.63406516 -0.47927538 -5.16559634 -0.84304985 0 0 Z " fill="#0D0D0D" transform="translate(289,240)"/>
<path d="M0 0 C2.600941 2.34923703 3.75121999 4.46572344 4.25634766 7.94824219 C4.303479 9.11081543 4.303479 9.11081543 4.3515625 10.296875 C4.39023437 11.14121094 4.42890625 11.98554688 4.46875 12.85546875 C4.4996875 13.72816406 4.530625 14.60085937 4.5625 15.5 C4.60117187 16.38816406 4.63984375 17.27632813 4.6796875 18.19140625 C4.77370873 20.3773998 4.85936143 22.56339062 4.9375 24.75 C5.9275 25.08 6.9175 25.41 7.9375 25.75 C7.9375 27.73 7.9375 29.71 7.9375 31.75 C0.55288462 32.11923077 0.55288462 32.11923077 -2.5625 30.25 C-3.0575 29.755 -3.5525 29.26 -4.0625 28.75 C-4.619375 29.23597656 -5.17625 29.72195313 -5.75 30.22265625 C-9.59734417 32.76372309 -13.60822472 32.4392639 -18.0625 31.75 C-20.63887471 29.86484777 -21.65917428 28.55665143 -23.0625 25.75 C-23.46408597 22.13572627 -23.41320564 20.30805715 -21.45703125 17.1953125 C-18.57216584 14.24926723 -16.38888748 13.52123268 -12.4375 12.4375 C-11.29023438 12.11136719 -10.14296875 11.78523437 -8.9609375 11.44921875 C-6.0625 10.75 -6.0625 10.75 -4.0625 10.75 C-4.3925 9.43 -4.7225 8.11 -5.0625 6.75 C-10.73526511 6.45658112 -14.05317246 6.74440348 -19.0625 9.75 C-20.625 7.9375 -20.625 7.9375 -22.0625 5.75 C-20.89137881 2.23663642 -19.50660723 1.27111132 -16.296875 -0.453125 C-10.96193974 -2.35579422 -5.20000235 -2.12244994 0 0 Z " fill="#0B0B0B" transform="translate(407.0625,241.25)"/>
<path d="M0 0 C2.64 0 5.28 0 8 0 C8.33 5.28 8.66 10.56 9 16 C10.65 14.68 12.3 13.36 14 12 C17.87933508 11.06690236 21.22809808 11.68117095 24.875 13.1875 C27.42365029 15.36134878 27.9879848 16.82487957 29 20 C29.22705078 22.86254883 29.22705078 22.86254883 29.1953125 25.95703125 C29.18886719 27.06884766 29.18242187 28.18066406 29.17578125 29.32617188 C29.15902344 30.47666016 29.14226562 31.62714844 29.125 32.8125 C29.11597656 33.98232422 29.10695313 35.15214844 29.09765625 36.35742188 C29.07413732 39.23849053 29.04126852 42.11913989 29 45 C26.36 45 23.72 45 21 45 C20.505 33.12 20.505 33.12 20 21 C17.17116253 19.58558126 15.12623255 19.68099668 12 20 C9.20519228 22.87663305 8.60867863 25.03534083 8.48828125 28.984375 C8.45283203 29.91894531 8.41738281 30.85351562 8.38085938 31.81640625 C8.34702148 33.26853516 8.34702148 33.26853516 8.3125 34.75 C8.27833984 35.73355469 8.24417969 36.71710938 8.20898438 37.73046875 C8.12664727 40.15353199 8.05745162 42.57623998 8 45 C5.36 45 2.72 45 0 45 C0 30.15 0 15.3 0 0 Z " fill="#050505" transform="translate(233,228)"/>
<path d="M0 0 C3.46528304 0.60961887 6.56534181 1.50164193 9.828125 2.8125 C10.70984375 3.16570312 11.5915625 3.51890625 12.5 3.8828125 C13.4075 4.25148437 14.315 4.62015625 15.25 5 C16.17296875 5.36867187 17.0959375 5.73734375 18.046875 6.1171875 C24.86414717 8.86414717 24.86414717 8.86414717 26 10 C26.04092937 12.33297433 26.04241723 14.66705225 26 17 C22.06612462 18.67531673 18.12733737 20.33875803 14.1875 22 C13.06794922 22.47695313 11.94839844 22.95390625 10.79492188 23.4453125 C9.72177734 23.89648438 8.64863281 24.34765625 7.54296875 24.8125 C6.55321045 25.23144531 5.56345215 25.65039062 4.54370117 26.08203125 C2 27 2 27 -1 27 C-1 24.69 -1 22.38 -1 20 C-0.18015625 19.66226562 0.6396875 19.32453125 1.484375 18.9765625 C2.56203125 18.53054688 3.6396875 18.08453125 4.75 17.625 C5.81734375 17.18414062 6.8846875 16.74328125 7.984375 16.2890625 C10.37555926 15.26692415 12.69383183 14.19786405 15 13 C14.00097656 12.65066406 13.00195312 12.30132812 11.97265625 11.94140625 C10.66921795 11.48192081 9.3658354 11.02227721 8.0625 10.5625 C7.40314453 10.33240234 6.74378906 10.10230469 6.06445312 9.86523438 C1.11328125 8.11328125 1.11328125 8.11328125 0 7 C-0.04092937 4.66702567 -0.04241723 2.33294775 0 0 Z " fill="#0BE041" transform="translate(149,239)"/>
<path d="M0 0 C0 2.31 0 4.62 0 7 C-4.95 8.98 -9.9 10.96 -15 13 C-12.958125 13.8971875 -12.958125 13.8971875 -10.875 14.8125 C-7.19718463 16.4451479 -3.58142671 18.16337092 0 20 C0 22.31 0 24.62 0 27 C-6.18034181 25.3422142 -12.12685029 23.2481251 -18.0625 20.875 C-18.72967041 20.60929199 -19.39684082 20.34358398 -20.08422852 20.06982422 C-24.86871061 18.13128939 -24.86871061 18.13128939 -26 17 C-26.14115161 14.32941149 -26.04247107 11.67567762 -26 9 C-22.23242503 7.49172203 -18.46043651 5.99481006 -14.6875 4.5 C-13.61564453 4.07074219 -12.54378906 3.64148438 -11.43945312 3.19921875 C-10.41142578 2.79316406 -9.38339844 2.38710937 -8.32421875 1.96875 C-7.37635498 1.59169922 -6.42849121 1.21464844 -5.4519043 0.82617188 C-3 0 -3 0 0 0 Z " fill="#08E03E" transform="translate(100,239)"/>
<path d="M0 0 C2.64 0 5.28 0 8 0 C8.33 0.99 8.66 1.98 9 3 C9.33 2.505 9.66 2.01 10 1.5 C13.17572747 -0.88179561 16.10246066 -0.19168226 20 0 C19.67 2.31 19.34 4.62 19 7 C17.906875 7.0825 16.81375 7.165 15.6875 7.25 C12.03874167 7.63106045 12.03874167 7.63106045 10.30151367 9.74902344 C8.83066202 12.29287117 8.5818157 13.84735004 8.48828125 16.765625 C8.45283203 17.65507812 8.41738281 18.54453125 8.38085938 19.4609375 C8.34702148 20.84152344 8.34702148 20.84152344 8.3125 22.25 C8.27833984 23.18585938 8.24417969 24.12171875 8.20898438 25.0859375 C8.12667838 27.39050533 8.0574737 29.69470119 8 32 C5.36 32 2.72 32 0 32 C0 21.44 0 10.88 0 0 Z " fill="#050505" transform="translate(305,241)"/>
<path d="M0 0 C2.61167103 2.61167103 3.07131482 4.9721059 4.125 8.5 C4.47820312 9.6653125 4.83140625 10.830625 5.1953125 12.03125 C6 15 6 15 6 17 C2.37 17 -1.26 17 -5 17 C-4.46246904 10.81839396 -2.45417612 5.673142 0 0 Z " fill="#F1FDF4" transform="translate(124,239)"/>
<path d="M0 0 C0.21691118 3.18136394 0.25066255 5.43969547 -1.0625 8.375 C-3 10 -3 10 -6.625 10.3125 C-10 10 -10 10 -11 9 C-11.1875 6.5625 -11.1875 6.5625 -11 4 C-8.07317918 1.07317918 -4.14037627 0 0 0 Z " fill="#F1F1F1" transform="translate(288,257)"/>
<path d="M0 0 C0.36103152 6.3782235 0.36103152 6.3782235 -1.125 8.9375 C-3.84949899 10.48138276 -5.92891945 10.3267107 -9 10 C-9.66 9.34 -10.32 8.68 -11 8 C-10.625 5.375 -10.625 5.375 -10 3 C-8.52144705 2.49818809 -7.04213942 1.99859924 -5.5625 1.5 C-4.73878906 1.2215625 -3.91507812 0.943125 -3.06640625 0.65625 C-1 0 -1 0 0 0 Z " fill="#F2F2F2" transform="translate(403,257)"/>
</svg>
