<svg width="385" height="335" viewBox="0 0 385 335" fill="none" xmlns="http://www.w3.org/2000/svg">
    <g clip-path="url(#clip0_115_6)">
        <path d="M347.131 174.339C347.181 215.792 331.142 255.65 302.386 285.534C300.652 287.348 298.872 289.117 297.045 290.843C294.261 293.488 291.383 296.031 288.413 298.472C260.621 321.346 225.925 334.199 189.924 334.959C188.724 334.986 187.52 335 186.312 335C157.6 335 121.487 319.68 88.7149 298.472C86.0035 296.717 83.3162 294.922 80.6531 293.086C79.4083 292.236 78.1695 291.374 76.9368 290.499C64.297 281.583 52.2993 271.792 41.0322 261.197C33.6553 254.281 26.7376 246.891 20.3233 239.076C-4.85789 208.046 -10.412 180.087 25.4881 174.339C29.7385 173.661 33.8637 172.936 37.8637 172.164C43.6577 171.052 49.2027 169.851 54.4987 168.56C61.6326 166.828 68.3349 164.95 74.6057 162.926C76.715 162.248 78.7761 161.556 80.7889 160.85C110.546 150.409 130.463 136.794 144.02 122.02C146.32 119.52 148.44 116.989 150.38 114.428C153.349 110.53 156.045 106.432 158.451 102.164C161.771 96.2343 164.56 90.0226 166.784 83.6018L166.906 83.249C177.693 52.1651 174.411 23.3331 186.312 13.6832C237.181 -27.5706 300.512 31.1787 330.238 100.46C331.736 103.951 333.145 107.463 334.466 110.996C335.059 112.574 335.631 114.155 336.181 115.739C337.63 119.868 338.944 124.007 340.124 128.157C340.576 129.739 341.008 131.32 341.418 132.9C341.858 134.605 342.278 136.305 342.668 138.005C345.56 150.454 347.131 162.732 347.131 174.339Z" fill="#C2E7BD"/>
        <path d="M189.924 334.959C188.724 334.987 187.52 335 186.312 335C157.6 335 121.487 319.68 88.7149 298.472C86.0035 296.717 83.3162 294.922 80.6531 293.086L82.9888 278.887L153.698 269.509L189.186 296.618L189.924 334.959Z" fill="#2F2E41"/>
        <path d="M193.328 81.4177H183.252C182.94 81.4179 182.64 81.5418 182.42 81.7622C182.199 81.9827 182.075 82.2816 182.075 82.5934V92.6638C182.075 92.8179 182.106 92.9705 182.165 93.1128C182.224 93.2551 182.311 93.3844 182.42 93.4932C182.53 93.602 182.659 93.6881 182.802 93.7468C182.945 93.8054 183.097 93.8354 183.252 93.835H193.328C193.639 93.8351 193.938 93.7119 194.159 93.4924C194.379 93.2728 194.504 92.9748 194.505 92.6638V82.5934C194.504 82.2818 194.38 81.9833 194.159 81.763C193.939 81.5428 193.64 81.4186 193.328 81.4177Z" fill="white"/>
        <path d="M193.328 98.5784H183.252C182.94 98.5785 182.64 98.7024 182.42 98.9229C182.199 99.1433 182.075 99.4423 182.075 99.7541V109.824C182.075 109.979 182.106 110.131 182.165 110.274C182.224 110.416 182.311 110.545 182.42 110.654C182.53 110.763 182.659 110.849 182.802 110.907C182.945 110.966 183.097 110.996 183.252 110.996H193.328C193.639 110.996 193.938 110.873 194.159 110.653C194.379 110.434 194.504 110.136 194.505 109.824V99.7541C194.504 99.4425 194.38 99.144 194.159 98.9237C193.939 98.7034 193.64 98.5793 193.328 98.5784Z" fill="#00FF7A"/>
        <path d="M193.328 115.739H183.252C182.94 115.739 182.64 115.863 182.42 116.084C182.199 116.304 182.075 116.603 182.075 116.915V126.981C182.075 127.135 182.105 127.288 182.164 127.431C182.223 127.574 182.31 127.704 182.419 127.813C182.528 127.922 182.658 128.009 182.801 128.068C182.944 128.127 183.097 128.157 183.252 128.157H193.328C193.64 128.156 193.939 128.033 194.16 127.812C194.381 127.592 194.505 127.293 194.505 126.981V116.915C194.504 116.603 194.38 116.305 194.159 116.085C193.939 115.864 193.64 115.74 193.328 115.739Z" fill="#F5F5F5"/>
        <path d="M194.487 133.868C194.436 133.597 194.293 133.352 194.082 133.176C193.87 132.999 193.604 132.902 193.328 132.9H183.252C182.94 132.9 182.64 133.024 182.42 133.245C182.199 133.465 182.075 133.764 182.075 134.076V144.142C182.075 144.296 182.105 144.449 182.164 144.592C182.223 144.735 182.31 144.865 182.419 144.974C182.528 145.083 182.658 145.17 182.801 145.229C182.944 145.288 183.097 145.318 183.252 145.317H193.328C193.64 145.317 193.939 145.193 194.16 144.973C194.381 144.753 194.505 144.454 194.505 144.142V134.076C194.506 134.006 194.5 133.936 194.487 133.868Z" fill="#F5F5F5"/>
        <path d="M193.785 150.152C193.64 150.092 193.485 150.061 193.328 150.061H183.252C183.097 150.061 182.944 150.091 182.801 150.15C182.658 150.209 182.528 150.295 182.419 150.405C182.31 150.514 182.223 150.644 182.164 150.786C182.105 150.929 182.075 151.082 182.075 151.237V161.303C182.074 161.457 182.104 161.61 182.163 161.753C182.222 161.896 182.309 162.026 182.418 162.136C182.527 162.245 182.657 162.331 182.801 162.39C182.944 162.449 183.097 162.479 183.252 162.478H193.328C193.64 162.478 193.939 162.354 194.16 162.134C194.381 161.913 194.505 161.614 194.505 161.303V151.237C194.504 151.005 194.436 150.779 194.308 150.586C194.18 150.393 193.998 150.242 193.785 150.152Z" fill="#F5F5F5"/>
        <path d="M214.494 81.4177H204.418C204.106 81.4179 203.807 81.5418 203.586 81.7622C203.365 81.9827 203.241 82.2816 203.241 82.5934V92.6638C203.241 92.8179 203.272 92.9705 203.331 93.1128C203.39 93.2551 203.477 93.3844 203.587 93.4932C203.696 93.602 203.826 93.6881 203.968 93.7468C204.111 93.8054 204.264 93.8354 204.418 93.835H214.494C214.806 93.8351 215.104 93.7119 215.325 93.4924C215.545 93.2728 215.67 92.9748 215.671 92.6638V82.5934C215.67 82.2818 215.546 81.9833 215.325 81.763C215.105 81.5428 214.806 81.4186 214.494 81.4177Z" fill="#00FF7A"/>
        <path d="M214.494 98.5784H204.418C204.106 98.5785 203.807 98.7024 203.586 98.9229C203.365 99.1433 203.241 99.4423 203.241 99.7541V109.824C203.241 109.979 203.272 110.131 203.331 110.274C203.39 110.416 203.477 110.545 203.587 110.654C203.696 110.763 203.826 110.849 203.968 110.907C204.111 110.966 204.264 110.996 204.418 110.996H214.494C214.806 110.996 215.104 110.873 215.325 110.653C215.546 110.434 215.67 110.136 215.671 109.824V99.7541C215.67 99.4425 215.546 99.144 215.325 98.9237C215.105 98.7034 214.806 98.5793 214.494 98.5784Z" fill="#00FF7A"/>
        <path d="M214.494 115.739H204.418C204.106 115.739 203.807 115.863 203.586 116.084C203.365 116.304 203.241 116.603 203.241 116.915V126.981C203.241 127.135 203.271 127.288 203.33 127.431C203.389 127.574 203.476 127.704 203.585 127.813C203.695 127.922 203.824 128.009 203.967 128.068C204.11 128.127 204.263 128.157 204.418 128.157H214.494C214.806 128.156 215.105 128.033 215.326 127.812C215.547 127.592 215.671 127.293 215.671 126.981V116.915C215.67 116.603 215.546 116.305 215.325 116.085C215.105 115.864 214.806 115.74 214.494 115.739Z" fill="#00FF7A"/>
        <path d="M214.494 132.9H204.418C204.171 132.9 203.931 132.978 203.731 133.123C203.531 133.267 203.382 133.471 203.305 133.705C203.263 133.824 203.241 133.95 203.241 134.076V144.142C203.241 144.296 203.271 144.449 203.33 144.592C203.389 144.735 203.476 144.865 203.585 144.974C203.695 145.083 203.824 145.17 203.967 145.229C204.11 145.288 204.263 145.318 204.418 145.317H214.494C214.806 145.317 215.105 145.193 215.326 144.973C215.547 144.753 215.671 144.454 215.671 144.142V134.076C215.67 133.764 215.546 133.466 215.325 133.246C215.105 133.025 214.806 132.901 214.494 132.9Z" fill="#00FF7A"/>
        <path d="M214.494 150.061H204.418C204.263 150.061 204.11 150.091 203.967 150.15C203.824 150.209 203.695 150.295 203.585 150.405C203.476 150.514 203.389 150.644 203.33 150.786C203.271 150.929 203.241 151.082 203.241 151.237V161.303C203.241 161.457 203.271 161.61 203.33 161.753C203.389 161.896 203.476 162.025 203.585 162.135C203.695 162.244 203.824 162.331 203.967 162.389C204.11 162.448 204.263 162.479 204.418 162.478H214.494C214.806 162.478 215.106 162.354 215.326 162.134C215.547 161.913 215.671 161.614 215.671 161.303V151.237C215.671 150.925 215.547 150.626 215.326 150.406C215.106 150.185 214.806 150.061 214.494 150.061Z" fill="#F5F5F5"/>
        <path d="M235.66 81.4177H225.584C225.272 81.4179 224.973 81.5418 224.752 81.7622C224.531 81.9827 224.407 82.2816 224.407 82.5934V92.6638C224.407 92.8179 224.438 92.9705 224.497 93.1128C224.556 93.2551 224.643 93.3844 224.753 93.4932C224.862 93.602 224.992 93.6881 225.134 93.7468C225.277 93.8054 225.43 93.8354 225.584 93.835H235.66C235.972 93.8351 236.27 93.7119 236.491 93.4924C236.712 93.2728 236.836 92.9748 236.837 92.6638V82.5934C236.836 82.2818 236.712 81.9833 236.491 81.763C236.271 81.5428 235.972 81.4186 235.66 81.4177Z" fill="#158149"/>
        <path d="M235.66 98.5784H225.584C225.272 98.5785 224.973 98.7024 224.752 98.9229C224.531 99.1433 224.407 99.4423 224.407 99.7541V109.824C224.407 109.979 224.438 110.131 224.497 110.274C224.556 110.416 224.643 110.545 224.753 110.654C224.862 110.763 224.992 110.849 225.134 110.907C225.277 110.966 225.43 110.996 225.584 110.996H235.66C235.972 110.996 236.27 110.873 236.491 110.653C236.712 110.434 236.836 110.136 236.837 109.824V99.7541C236.836 99.4425 236.712 99.144 236.491 98.9237C236.271 98.7034 235.972 98.5793 235.66 98.5784Z" fill="#158149"/>
        <path d="M235.66 115.739H225.584C225.272 115.739 224.973 115.863 224.752 116.084C224.531 116.304 224.407 116.603 224.407 116.915V126.981C224.407 127.135 224.437 127.288 224.496 127.431C224.555 127.574 224.642 127.704 224.751 127.813C224.861 127.922 224.99 128.009 225.133 128.068C225.276 128.127 225.429 128.157 225.584 128.157H235.66C235.972 128.156 236.272 128.033 236.492 127.812C236.713 127.592 236.837 127.293 236.837 126.981V116.915C236.836 116.603 236.712 116.305 236.491 116.085C236.271 115.864 235.972 115.74 235.66 115.739Z" fill="#F5F5F5"/>
        <path d="M235.66 132.9H225.584C225.272 132.9 224.973 133.024 224.752 133.245C224.531 133.465 224.407 133.764 224.407 134.076V144.142C224.407 144.296 224.437 144.449 224.496 144.592C224.555 144.735 224.642 144.865 224.751 144.974C224.861 145.083 224.99 145.17 225.133 145.229C225.276 145.288 225.429 145.318 225.584 145.317H235.66C235.972 145.317 236.272 145.193 236.492 144.973C236.713 144.753 236.837 144.454 236.837 144.142V134.076C236.836 133.764 236.712 133.466 236.491 133.246C236.271 133.025 235.972 132.901 235.66 132.9Z" fill="#00FF7A"/>
        <path d="M235.66 150.061H225.584C225.429 150.061 225.276 150.091 225.133 150.15C224.99 150.209 224.861 150.295 224.751 150.405C224.642 150.514 224.555 150.644 224.496 150.786C224.437 150.929 224.407 151.082 224.407 151.237V161.303C224.407 161.457 224.437 161.61 224.496 161.753C224.555 161.896 224.642 162.025 224.751 162.135C224.861 162.244 224.99 162.331 225.133 162.389C225.276 162.448 225.429 162.479 225.584 162.478H235.66C235.972 162.478 236.272 162.354 236.492 162.134C236.713 161.913 236.837 161.614 236.837 161.303V151.237C236.837 150.925 236.713 150.626 236.492 150.406C236.272 150.185 235.972 150.061 235.66 150.061Z" fill="#158149"/>
        <path d="M256.826 81.4177H246.75C246.438 81.4179 246.139 81.5418 245.918 81.7622C245.697 81.9827 245.573 82.2816 245.573 82.5934V92.6638C245.573 92.8179 245.604 92.9705 245.663 93.1128C245.722 93.2551 245.809 93.3844 245.919 93.4932C246.028 93.602 246.158 93.6882 246.3 93.7468C246.443 93.8055 246.596 93.8354 246.75 93.835H256.826C257.138 93.8351 257.436 93.7119 257.657 93.4924C257.878 93.2728 258.002 92.9748 258.003 92.6638V82.5934C258.002 82.2818 257.878 81.9833 257.657 81.763C257.437 81.5428 257.138 81.4186 256.826 81.4177Z" fill="#158149"/>
        <path d="M256.826 98.5784H246.75C246.438 98.5785 246.139 98.7024 245.918 98.9229C245.697 99.1433 245.573 99.4423 245.573 99.7541V109.824C245.573 109.979 245.604 110.131 245.663 110.274C245.722 110.416 245.809 110.545 245.919 110.654C246.028 110.763 246.158 110.849 246.3 110.907C246.443 110.966 246.596 110.996 246.75 110.996H256.826C257.138 110.996 257.436 110.873 257.657 110.653C257.878 110.434 258.002 110.136 258.003 109.824V99.7541C258.002 99.4425 257.878 99.144 257.657 98.9237C257.437 98.7034 257.138 98.5793 256.826 98.5784Z" fill="#158149"/>
        <path d="M256.826 115.739H246.75C246.438 115.739 246.139 115.863 245.918 116.084C245.697 116.304 245.573 116.603 245.573 116.915V126.981C245.573 127.135 245.603 127.288 245.662 127.431C245.721 127.574 245.808 127.704 245.917 127.813C246.027 127.922 246.156 128.009 246.299 128.068C246.442 128.127 246.596 128.157 246.75 128.157H256.826C257.138 128.156 257.438 128.033 257.658 127.812C257.879 127.592 258.003 127.293 258.003 126.981V116.915C258.002 116.603 257.878 116.305 257.657 116.085C257.437 115.864 257.138 115.74 256.826 115.739Z" fill="#00FF7A"/>
        <path d="M256.826 132.9H246.75C246.438 132.9 246.139 133.024 245.918 133.245C245.697 133.465 245.573 133.764 245.573 134.076V144.142C245.573 144.296 245.603 144.449 245.662 144.592C245.721 144.735 245.808 144.865 245.917 144.974C246.027 145.083 246.156 145.17 246.299 145.229C246.442 145.288 246.595 145.318 246.75 145.317H256.826C257.138 145.317 257.438 145.193 257.658 144.973C257.879 144.753 258.003 144.454 258.003 144.142V134.076C258.002 133.764 257.878 133.466 257.657 133.246C257.437 133.025 257.138 132.901 256.826 132.9Z" fill="#00FF7A"/>
        <path d="M256.826 150.061H246.75C246.595 150.061 246.442 150.091 246.299 150.15C246.156 150.209 246.027 150.295 245.917 150.405C245.808 150.514 245.721 150.644 245.662 150.786C245.603 150.929 245.573 151.082 245.573 151.237V161.303C245.573 161.457 245.603 161.61 245.662 161.753C245.721 161.896 245.808 162.025 245.917 162.135C246.027 162.244 246.156 162.331 246.299 162.389C246.442 162.448 246.595 162.479 246.75 162.478H256.826C257.138 162.478 257.438 162.354 257.658 162.134C257.879 161.913 258.003 161.614 258.003 161.303V151.237C258.003 150.925 257.879 150.626 257.658 150.406C257.438 150.185 257.138 150.061 256.826 150.061Z" fill="#158149"/>
        <path d="M277.993 81.4177H267.912C267.601 81.4188 267.302 81.5432 267.083 81.7635C266.863 81.9839 266.739 82.2823 266.74 82.5934V92.6638C266.74 92.9744 266.863 93.2722 267.083 93.4919C267.303 93.7115 267.601 93.8349 267.912 93.835H277.993C278.304 93.8351 278.603 93.7119 278.823 93.4924C279.044 93.2728 279.168 92.9748 279.169 92.6638V82.5934C279.169 82.2818 279.044 81.9833 278.824 81.763C278.603 81.5428 278.304 81.4186 277.993 81.4177Z" fill="#158149"/>
        <path d="M277.993 98.5784H267.912C267.601 98.5794 267.302 98.7038 267.082 98.9242C266.863 99.1446 266.739 99.443 266.74 99.7541V109.824C266.74 110.135 266.863 110.433 267.083 110.653C267.303 110.872 267.601 110.996 267.912 110.996H277.993C278.304 110.996 278.603 110.873 278.823 110.653C279.044 110.434 279.168 110.136 279.169 109.824V99.7541C279.169 99.4425 279.044 99.144 278.824 98.9237C278.603 98.7034 278.304 98.5793 277.993 98.5784Z" fill="white"/>
        <path d="M277.993 115.739H267.912C267.601 115.74 267.302 115.865 267.083 116.085C266.863 116.306 266.739 116.604 266.74 116.915V126.981C266.739 127.135 266.769 127.288 266.828 127.43C266.887 127.573 266.973 127.702 267.082 127.812C267.191 127.921 267.32 128.007 267.462 128.067C267.605 128.126 267.758 128.156 267.912 128.157H277.993C278.305 128.156 278.604 128.033 278.825 127.812C279.045 127.592 279.169 127.293 279.169 126.981V116.915C279.169 116.603 279.044 116.305 278.824 116.085C278.603 115.864 278.304 115.74 277.993 115.739Z" fill="#158149"/>
        <path d="M277.993 132.9H267.912C267.601 132.901 267.302 133.026 267.083 133.246C266.863 133.466 266.739 133.765 266.74 134.076V144.142C266.739 144.296 266.769 144.449 266.828 144.591C266.886 144.734 266.973 144.863 267.082 144.972C267.191 145.082 267.32 145.168 267.462 145.228C267.605 145.287 267.758 145.317 267.912 145.317H277.993C278.305 145.317 278.604 145.193 278.825 144.973C279.045 144.753 279.169 144.454 279.169 144.142V134.076C279.169 133.764 279.044 133.466 278.824 133.246C278.603 133.025 278.304 132.901 277.993 132.9Z" fill="#00FF7A"/>
        <path d="M277.993 150.061H267.912C267.758 150.061 267.605 150.092 267.462 150.151C267.32 150.21 267.191 150.297 267.082 150.406C266.973 150.515 266.886 150.645 266.828 150.787C266.769 150.93 266.739 151.083 266.74 151.237V161.303C266.739 161.457 266.769 161.609 266.828 161.752C266.886 161.895 266.973 162.024 267.082 162.133C267.191 162.243 267.32 162.329 267.462 162.388C267.605 162.448 267.758 162.478 267.912 162.478H277.993C278.305 162.478 278.604 162.354 278.825 162.134C279.045 161.913 279.169 161.614 279.169 161.303V151.237C279.169 150.925 279.045 150.626 278.825 150.406C278.604 150.185 278.305 150.061 277.993 150.061Z" fill="#00FF7A"/>
        <path d="M299.159 81.4177H289.078C288.767 81.4188 288.468 81.5432 288.249 81.7635C288.029 81.9839 287.905 82.2823 287.906 82.5934V92.6638C287.906 92.9744 288.029 93.2722 288.249 93.4919C288.469 93.7115 288.767 93.8349 289.078 93.835H299.159C299.47 93.8351 299.769 93.7119 299.989 93.4923C300.21 93.2728 300.334 92.9748 300.335 92.6638V82.5934C300.335 82.2818 300.21 81.9833 299.99 81.7631C299.769 81.5428 299.47 81.4186 299.159 81.4177Z" fill="white"/>
        <path d="M299.159 98.5784H289.078C288.767 98.5794 288.468 98.7038 288.248 98.9242C288.029 99.1446 287.905 99.443 287.906 99.7541V109.824C287.906 110.135 288.029 110.433 288.249 110.653C288.469 110.872 288.767 110.996 289.078 110.996H299.159C299.47 110.996 299.769 110.873 299.989 110.653C300.21 110.434 300.334 110.136 300.335 109.824V99.7541C300.335 99.4425 300.21 99.144 299.99 98.9237C299.769 98.7034 299.47 98.5793 299.159 98.5784Z" fill="#00FF7A"/>
        <path d="M299.159 115.739H289.078C288.767 115.74 288.468 115.865 288.248 116.085C288.029 116.306 287.905 116.604 287.906 116.915V126.981C287.905 127.135 287.935 127.288 287.994 127.43C288.053 127.573 288.139 127.702 288.248 127.812C288.357 127.921 288.486 128.007 288.628 128.067C288.771 128.126 288.924 128.156 289.078 128.157H299.159C299.471 128.156 299.77 128.032 299.991 127.812C300.211 127.592 300.335 127.293 300.335 126.981V116.915C300.335 116.603 300.21 116.305 299.99 116.085C299.769 115.864 299.47 115.74 299.159 115.739Z" fill="#158149"/>
        <path d="M299.159 132.9H289.078C288.767 132.901 288.468 133.026 288.249 133.246C288.029 133.466 287.905 133.765 287.906 134.076V144.142C287.905 144.296 287.935 144.449 287.994 144.591C288.053 144.734 288.139 144.863 288.248 144.972C288.357 145.082 288.486 145.168 288.628 145.228C288.771 145.287 288.924 145.317 289.078 145.317H299.159C299.471 145.317 299.77 145.193 299.991 144.973C300.211 144.753 300.335 144.454 300.335 144.142V134.076C300.335 133.764 300.21 133.466 299.99 133.246C299.769 133.025 299.47 132.901 299.159 132.9Z" fill="#F5F5F5"/>
        <path d="M299.159 150.061H289.078C288.924 150.061 288.771 150.092 288.628 150.151C288.486 150.21 288.357 150.297 288.248 150.406C288.139 150.515 288.053 150.645 287.994 150.787C287.935 150.93 287.905 151.083 287.906 151.237V161.303C287.905 161.457 287.935 161.609 287.994 161.752C288.053 161.895 288.139 162.024 288.248 162.133C288.357 162.243 288.486 162.329 288.628 162.388C288.771 162.448 288.924 162.478 289.078 162.478H299.159C299.471 162.478 299.77 162.354 299.991 162.134C300.211 161.913 300.335 161.614 300.335 161.303V151.237C300.335 150.925 300.211 150.626 299.991 150.406C299.77 150.185 299.471 150.061 299.159 150.061Z" fill="#00FF7A"/>
        <path d="M320.325 81.4177H310.244C309.933 81.4188 309.635 81.5432 309.415 81.7635C309.195 81.9839 309.072 82.2823 309.072 82.5934V92.6638C309.072 92.9744 309.195 93.2722 309.415 93.4919C309.635 93.7115 309.933 93.8349 310.244 93.835H320.325C320.636 93.8351 320.935 93.7119 321.156 93.4923C321.376 93.2728 321.501 92.9748 321.502 92.6638V82.5934C321.501 82.2818 321.376 81.9833 321.156 81.7631C320.935 81.5428 320.637 81.4186 320.325 81.4177Z" fill="#158149"/>
        <path d="M320.325 98.5784H310.244C309.933 98.5794 309.635 98.7038 309.415 98.9242C309.195 99.1446 309.072 99.443 309.072 99.7541V109.824C309.072 110.135 309.195 110.433 309.415 110.653C309.635 110.872 309.933 110.996 310.244 110.996H320.325C320.636 110.996 320.935 110.873 321.156 110.653C321.376 110.434 321.501 110.136 321.502 109.824V99.7541C321.501 99.4425 321.376 99.144 321.156 98.9237C320.935 98.7034 320.637 98.5793 320.325 98.5784Z" fill="#158149"/>
        <path d="M320.325 115.739H310.244C309.933 115.74 309.635 115.865 309.415 116.085C309.195 116.306 309.072 116.604 309.072 116.915V126.981C309.071 127.135 309.101 127.288 309.16 127.43C309.219 127.573 309.305 127.702 309.414 127.812C309.523 127.921 309.652 128.007 309.795 128.067C309.937 128.126 310.09 128.156 310.244 128.157H320.325C320.637 128.156 320.936 128.032 321.157 127.812C321.377 127.592 321.502 127.293 321.502 126.981V116.915C321.501 116.603 321.377 116.305 321.156 116.085C320.935 115.864 320.637 115.74 320.325 115.739Z" fill="#F5F5F5"/>
        <path d="M320.325 132.9H310.244C309.933 132.901 309.635 133.026 309.415 133.246C309.195 133.466 309.072 133.765 309.072 134.076V144.142C309.071 144.296 309.101 144.449 309.16 144.591C309.219 144.734 309.305 144.863 309.414 144.972C309.523 145.082 309.652 145.168 309.795 145.228C309.937 145.287 310.09 145.317 310.244 145.317H320.325C320.637 145.317 320.936 145.193 321.157 144.973C321.378 144.753 321.502 144.454 321.502 144.142V134.076C321.501 133.764 321.377 133.466 321.156 133.246C320.935 133.025 320.637 132.901 320.325 132.9Z" fill="#00FF7A"/>
        <path d="M320.325 150.061H310.244C310.09 150.061 309.937 150.092 309.795 150.151C309.652 150.21 309.523 150.297 309.414 150.406C309.305 150.515 309.219 150.645 309.16 150.787C309.101 150.93 309.071 151.083 309.072 151.237V161.303C309.071 161.457 309.101 161.609 309.16 161.752C309.219 161.895 309.305 162.024 309.414 162.133C309.523 162.243 309.652 162.329 309.795 162.388C309.937 162.448 310.09 162.478 310.244 162.478H320.325C320.637 162.478 320.936 162.354 321.157 162.134C321.378 161.913 321.502 161.614 321.502 161.303V151.237C321.502 150.925 321.378 150.626 321.157 150.406C320.936 150.185 320.637 150.061 320.325 150.061Z" fill="#158149"/>
        <path d="M341.491 81.4177H331.41C331.099 81.4188 330.801 81.5432 330.581 81.7635C330.361 81.9839 330.238 82.2823 330.238 82.5934V92.6638C330.238 92.9744 330.361 93.2722 330.581 93.4919C330.801 93.7115 331.099 93.8349 331.41 93.835H341.491C341.802 93.8351 342.101 93.7119 342.322 93.4923C342.542 93.2728 342.667 92.9748 342.668 92.6638V82.5934C342.667 82.2818 342.542 81.9833 342.322 81.7631C342.101 81.5428 341.803 81.4186 341.491 81.4177Z" fill="#00FF7A"/>
        <path d="M341.491 98.5784H331.41C331.099 98.5794 330.801 98.7038 330.581 98.9242C330.361 99.1446 330.238 99.443 330.238 99.7541V109.824C330.238 110.135 330.361 110.433 330.581 110.653C330.801 110.872 331.099 110.996 331.41 110.996H341.491C341.802 110.996 342.101 110.873 342.322 110.653C342.542 110.434 342.667 110.136 342.668 109.824V99.7541C342.667 99.4425 342.542 99.144 342.322 98.9237C342.101 98.7034 341.803 98.5793 341.491 98.5784Z" fill="#00FF7A"/>
        <path d="M341.491 115.739H331.41C331.099 115.74 330.801 115.865 330.581 116.085C330.361 116.306 330.238 116.604 330.238 116.915V126.981C330.237 127.135 330.267 127.288 330.326 127.43C330.385 127.573 330.471 127.702 330.58 127.812C330.689 127.921 330.818 128.007 330.961 128.067C331.103 128.126 331.256 128.156 331.41 128.157H341.491C341.803 128.156 342.102 128.032 342.323 127.812C342.543 127.592 342.668 127.293 342.668 126.981V116.915C342.667 116.603 342.543 116.305 342.322 116.085C342.101 115.864 341.803 115.74 341.491 115.739Z" fill="#158149"/>
        <path d="M341.491 132.9H331.41C331.099 132.901 330.801 133.026 330.581 133.246C330.361 133.466 330.238 133.765 330.238 134.076V144.142C330.237 144.296 330.267 144.449 330.326 144.591C330.385 144.734 330.471 144.863 330.58 144.972C330.689 145.082 330.818 145.168 330.961 145.228C331.103 145.287 331.256 145.317 331.41 145.317H341.491C341.803 145.317 342.102 145.193 342.323 144.973C342.544 144.753 342.668 144.454 342.668 144.142V134.076C342.667 133.764 342.542 133.466 342.322 133.246C342.101 133.025 341.803 132.901 341.491 132.9Z" fill="#00FF7A"/>
        <path d="M341.491 150.061H331.41C331.256 150.061 331.103 150.092 330.961 150.151C330.818 150.21 330.689 150.297 330.58 150.406C330.471 150.515 330.385 150.645 330.326 150.787C330.267 150.93 330.237 151.083 330.238 151.237V161.303C330.237 161.457 330.267 161.609 330.326 161.752C330.385 161.895 330.471 162.024 330.58 162.133C330.689 162.243 330.818 162.329 330.961 162.388C331.103 162.448 331.256 162.478 331.41 162.478H341.491C341.803 162.478 342.102 162.354 342.323 162.134C342.544 161.913 342.668 161.614 342.668 161.303V151.237C342.668 150.925 342.544 150.626 342.323 150.406C342.102 150.185 341.803 150.061 341.491 150.061Z" fill="#158149"/>
        <path d="M362.657 81.4177H352.576C352.265 81.4188 351.967 81.5432 351.747 81.7635C351.527 81.9839 351.404 82.2823 351.404 82.5934V92.6638C351.404 92.9744 351.528 93.2722 351.747 93.4919C351.967 93.7115 352.265 93.8349 352.576 93.835H362.657C362.968 93.8351 363.267 93.7119 363.488 93.4923C363.708 93.2728 363.833 92.9748 363.834 92.6638V82.5934C363.833 82.2818 363.709 81.9833 363.488 81.7631C363.268 81.5428 362.969 81.4186 362.657 81.4177Z" fill="#F5F5F5"/>
        <path d="M362.657 98.5784H352.576C352.265 98.5794 351.967 98.7038 351.747 98.9242C351.527 99.1446 351.404 99.443 351.404 99.7541V109.824C351.404 110.135 351.528 110.433 351.747 110.653C351.967 110.872 352.265 110.996 352.576 110.996H362.657C362.968 110.996 363.267 110.873 363.488 110.653C363.708 110.434 363.833 110.136 363.834 109.824V99.7541C363.833 99.4425 363.709 99.144 363.488 98.9237C363.268 98.7034 362.969 98.5793 362.657 98.5784Z" fill="#00FF7A"/>
        <path d="M362.657 115.739H352.576C352.265 115.74 351.967 115.865 351.747 116.085C351.527 116.306 351.404 116.604 351.404 116.915V126.981C351.404 127.135 351.434 127.288 351.492 127.43C351.551 127.573 351.637 127.702 351.746 127.812C351.855 127.921 351.984 128.007 352.127 128.067C352.269 128.126 352.422 128.156 352.576 128.157H362.657C362.969 128.156 363.268 128.032 363.489 127.812C363.71 127.592 363.834 127.293 363.834 126.981V116.915C363.833 116.603 363.709 116.305 363.488 116.085C363.268 115.864 362.969 115.74 362.657 115.739Z" fill="#00FF7A"/>
        <path d="M362.657 132.9H352.576C352.265 132.901 351.967 133.026 351.747 133.246C351.527 133.466 351.404 133.765 351.404 134.076V144.142C351.404 144.296 351.434 144.449 351.492 144.591C351.551 144.734 351.637 144.863 351.746 144.972C351.855 145.082 351.984 145.168 352.127 145.228C352.269 145.287 352.422 145.317 352.576 145.317H362.657C362.969 145.317 363.268 145.193 363.489 144.973C363.71 144.753 363.834 144.454 363.834 144.142V134.076C363.833 133.764 363.709 133.466 363.488 133.246C363.268 133.025 362.969 132.901 362.657 132.9Z" fill="#00FF7A"/>
        <path d="M362.657 150.061H352.576C352.422 150.061 352.269 150.092 352.127 150.151C351.984 150.21 351.855 150.297 351.746 150.406C351.637 150.515 351.551 150.645 351.492 150.787C351.434 150.93 351.404 151.083 351.404 151.237V161.303C351.404 161.457 351.434 161.609 351.492 161.752C351.551 161.895 351.637 162.024 351.746 162.133C351.855 162.243 351.984 162.329 352.127 162.388C352.269 162.448 352.422 162.478 352.576 162.478H362.657C362.969 162.478 363.268 162.354 363.489 162.134C363.71 161.913 363.834 161.614 363.834 161.303V151.237C363.834 150.925 363.71 150.626 363.489 150.406C363.268 150.185 362.969 150.061 362.657 150.061Z" fill="#00FF7A"/>
        <path d="M383.823 81.4177H373.742C373.431 81.4188 373.133 81.5432 372.913 81.7635C372.693 81.9839 372.57 82.2823 372.57 82.5934V92.6638C372.57 92.9744 372.694 93.2722 372.914 93.4919C373.133 93.7115 373.432 93.8349 373.742 93.835H383.823C384.135 93.8351 384.433 93.7119 384.654 93.4923C384.874 93.2728 384.999 92.9748 385 92.6638V82.5934C384.999 82.2818 384.875 81.9833 384.654 81.7631C384.434 81.5428 384.135 81.4186 383.823 81.4177Z" fill="#00FF7A"/>
        <path d="M383.823 98.5784H373.742C373.431 98.5795 373.133 98.7038 372.913 98.9242C372.693 99.1446 372.57 99.443 372.57 99.7541V109.824C372.57 110.135 372.694 110.433 372.914 110.653C373.133 110.872 373.432 110.996 373.742 110.996H383.823C384.134 110.996 384.433 110.873 384.654 110.653C384.874 110.434 384.999 110.136 385 109.824V99.7541C384.999 99.4425 384.875 99.144 384.654 98.9237C384.434 98.7034 384.135 98.5793 383.823 98.5784Z" fill="#F5F5F5"/>
        <path d="M383.823 115.739H373.742C373.431 115.74 373.133 115.865 372.913 116.085C372.693 116.306 372.57 116.604 372.57 116.915V126.981C372.57 127.135 372.6 127.288 372.658 127.43C372.717 127.573 372.803 127.702 372.912 127.812C373.021 127.921 373.151 128.007 373.293 128.067C373.435 128.126 373.588 128.156 373.742 128.157H383.823C384.135 128.156 384.434 128.032 384.655 127.812C384.876 127.592 385 127.293 385 126.981V116.915C384.999 116.603 384.875 116.305 384.654 116.085C384.434 115.864 384.135 115.74 383.823 115.739Z" fill="#00FF7A"/>
        <path d="M383.823 132.9H373.742C373.431 132.901 373.133 133.026 372.913 133.246C372.693 133.466 372.57 133.765 372.57 134.076V144.142C372.57 144.296 372.6 144.449 372.658 144.591C372.717 144.734 372.803 144.863 372.912 144.972C373.021 145.082 373.151 145.168 373.293 145.228C373.435 145.287 373.588 145.317 373.742 145.317H383.823C384.135 145.317 384.434 145.193 384.655 144.973C384.876 144.753 385 144.454 385 144.142V134.076C384.999 133.764 384.875 133.466 384.654 133.246C384.434 133.025 384.135 132.901 383.823 132.9Z" fill="#00FF7A"/>
        <path d="M383.823 150.061H373.742C373.588 150.061 373.435 150.092 373.293 150.151C373.151 150.21 373.021 150.297 372.912 150.406C372.803 150.515 372.717 150.645 372.658 150.787C372.6 150.93 372.57 151.083 372.57 151.237V161.303C372.57 161.457 372.6 161.609 372.658 161.752C372.717 161.895 372.803 162.024 372.912 162.133C373.021 162.243 373.151 162.329 373.293 162.388C373.435 162.448 373.588 162.478 373.742 162.478H383.823C384.135 162.478 384.434 162.354 384.655 162.134C384.876 161.913 385 161.614 385 161.303V151.237C385 150.925 384.876 150.626 384.655 150.406C384.434 150.185 384.135 150.061 383.823 150.061Z" fill="#158149"/>
        <path d="M152.135 298.472H151.854L152.094 298.441L152.135 298.472Z" fill="#2F2E41"/>
        <path d="M128.017 110.813C145.097 110.813 158.943 96.9806 158.943 79.9178C158.943 62.855 145.097 49.0229 128.017 49.0229C110.937 49.0229 97.0911 62.855 97.0911 79.9178C97.0911 96.9806 110.937 110.813 128.017 110.813Z" fill="#FFB6B6"/>
        <path d="M155.1 57.2662C155.1 57.2662 163.189 41.8188 145.394 40.4145C145.394 40.4145 130.223 26.6667 114.76 37.9012C114.76 37.9012 106.325 37.9012 101.713 47.436C101.713 47.436 95.0795 44.9227 93.6217 51.6489C93.6217 51.6489 88.7677 65.6921 93.6217 78.3309C98.4757 90.9697 100.088 92.374 100.088 92.374C100.088 92.374 92.1119 65.8761 111.527 64.4717C130.941 63.0674 152.667 50.9468 154.285 66.3942C155.903 81.8416 158.338 85.6477 158.338 85.6477C158.338 85.6477 173.705 63.5856 155.1 57.2662Z" fill="#2F2E41"/>
        <path d="M208.017 156.057L207.917 156.582L206.799 162.478L199.072 203.266L198.615 205.668L197.655 210.746L196.343 217.673L193.432 233.025L192.599 237.425L192.287 239.076L192.178 239.654L191.314 244.208L191.051 245.583L188.942 261.197L187.099 274.804L193.265 280.963L189.589 284.634L187.176 298.44L187.181 298.472H88.715C84.7316 295.894 80.8056 293.237 76.9369 290.499L77.7472 284.44C77.7472 284.44 80.5355 273.619 79.3631 272.326C78.1953 271.032 75.6332 268.722 75.6332 268.722L78.8607 261.197L79.3088 260.153L78.5574 244.583L78.5393 244.208L78.2904 239.076L78.2587 238.415L78.2089 237.425L77.2538 217.673L77.2356 217.348L76.946 211.361L76.6744 205.667L76.5567 203.266L75.3934 179.241L74.6058 162.926L73.9177 148.722L76.6834 147.786L106.264 137.743L118.518 121.83L144.02 122.02L156.505 122.115L177.336 141.415L182.075 143.676L182.111 143.694L185.511 145.317L194.129 149.428L203.241 153.778L207.917 156.007L208.017 156.057Z" fill="#A9AEA7"/>
        <path d="M121.813 252.122C119.945 252.845 117.94 253.151 115.94 253.016C113.94 252.882 111.995 252.311 110.24 251.344C108.485 250.377 106.964 249.037 105.783 247.419C104.602 245.801 103.791 243.944 103.407 241.979L55.1724 235.143L71.94 216.195L115.173 225.592C118.521 225.166 121.908 225.98 124.694 227.882C127.48 229.784 129.471 232.641 130.289 235.911C131.108 239.181 130.697 242.638 129.135 245.625C127.573 248.613 124.968 250.925 121.813 252.122Z" fill="#FFB6B6"/>
        <path d="M100.307 217.673C99.4139 216.542 98.149 215.762 96.7359 215.471L76.9459 211.361L74.9135 210.94C73.7323 210.694 72.6165 210.201 71.6391 209.494C70.6617 208.788 69.8448 207.883 69.2417 206.839C68.6161 205.743 68.2376 204.524 68.1327 203.266C68.0383 202.123 68.1753 200.973 68.5355 199.884L75.3932 179.241L79.8428 165.847C80.3821 164.232 80.7003 162.551 80.7889 160.85C81.0368 156.144 79.5793 151.507 76.6833 147.787C74.1373 144.517 70.6059 142.152 66.611 141.041C62.6161 139.93 58.3696 140.133 54.4987 141.619C54.3855 141.659 54.2678 141.704 54.1547 141.75C51.3787 142.857 48.8985 144.594 46.9101 146.824C44.9218 149.053 43.4797 151.714 42.698 154.597L37.8636 172.164L27.8916 208.381C26.8934 212.009 26.6917 215.81 27.3004 219.524C27.9091 223.238 29.3138 226.776 31.4184 229.897C33.523 233.018 36.2777 235.648 39.4941 237.607C42.7104 239.566 46.3124 240.807 50.0536 241.246L78.5573 244.583L91.7476 246.13C93.2729 246.313 94.8112 245.915 96.0561 245.016C97.301 244.117 98.1611 242.782 98.465 241.278C98.4864 241.196 98.503 241.113 98.5148 241.029L98.8317 239.076L101.516 222.625L101.543 222.458C101.683 221.618 101.645 220.759 101.432 219.935C101.22 219.111 100.836 218.34 100.307 217.673Z" fill="#A9AEA7"/>
        <path d="M152.537 252.65C154.489 253.102 156.517 253.122 158.478 252.707C160.438 252.292 162.284 251.453 163.885 250.248C165.486 249.044 166.803 247.503 167.743 245.735C168.684 243.967 169.224 242.015 169.328 240.015L216.115 226.452L196.84 210.056L155.365 225.449C151.991 225.498 148.753 226.782 146.263 229.057C143.773 231.333 142.206 234.441 141.857 237.794C141.508 241.147 142.403 244.511 144.371 247.249C146.34 249.987 149.245 251.909 152.537 252.65Z" fill="#FFB6B6"/>
        <path d="M239.345 196.113L217.092 144.951C215.272 140.751 212.022 137.331 207.917 135.297C206.648 134.673 205.316 134.188 203.943 133.85C203.73 133.796 203.517 133.746 203.305 133.705C200.393 133.07 197.373 133.126 194.487 133.868C191.849 134.545 189.383 135.77 187.25 137.463C185.118 139.156 183.367 141.279 182.111 143.694C182.097 143.714 182.085 143.735 182.075 143.757C180.672 146.468 179.926 149.47 179.897 152.521C179.868 155.573 180.557 158.588 181.907 161.325L182.184 161.877L197.909 193.427C198.446 194.506 198.748 195.686 198.797 196.889C198.845 198.093 198.638 199.294 198.189 200.412C197.74 201.53 197.06 202.541 196.192 203.379C195.325 204.216 194.29 204.86 193.156 205.27L192.051 205.668L172.189 212.835C170.699 213.366 169.473 214.454 168.769 215.871C168.066 217.287 167.94 218.92 168.418 220.427L168.468 220.586L174.036 238.384C174.063 238.465 174.09 238.547 174.122 238.628C174.171 238.782 174.231 238.931 174.303 239.076C174.895 240.402 175.94 241.473 177.252 242.097C178.564 242.721 180.056 242.857 181.459 242.481L192.178 239.655L194.364 239.076L222.044 231.773C225.686 230.811 229.078 229.075 231.986 226.683C234.894 224.29 237.25 221.299 238.893 217.912C240.536 214.525 241.427 210.824 241.505 207.062C241.583 203.299 240.846 199.564 239.345 196.113Z" fill="#A9AEA7"/>
        <path d="M20.3232 239.076C26.7376 246.891 33.6552 254.281 41.0322 261.197H245.619C247.59 261.2 249.479 261.984 250.872 263.377C252.266 264.77 253.049 266.658 253.051 268.627L253.345 320.417C265.931 314.64 277.718 307.264 288.413 298.472C291.382 296.034 294.259 293.491 297.045 290.843C298.869 289.116 300.649 287.346 302.386 285.534C315.406 271.984 325.949 256.26 333.538 239.076H20.3232Z" fill="#3F3D56"/>
        <path d="M302.386 285.534C300.652 287.347 298.872 289.117 297.045 290.843H253.495V285.534H302.386Z" fill="white"/>
        <path d="M207.609 115.739C207.394 115.343 207.076 115.011 206.688 114.781C206.3 114.55 205.856 114.428 205.405 114.428H57.0065C56.3412 114.43 55.7036 114.695 55.2336 115.165C54.7636 115.636 54.4993 116.273 54.4988 116.938V205.668H207.917V116.938C207.919 116.518 207.813 116.106 207.609 115.739Z" fill="#3F3D56"/>
        <path d="M54.3643 203.265V214.215C54.3643 214.668 54.4538 215.118 54.6276 215.537C54.8015 215.957 55.0564 216.338 55.3777 216.659C55.699 216.98 56.0804 217.234 56.5002 217.408C56.92 217.582 57.3699 217.671 57.8243 217.671H114.45V239.28H113.698C113.639 239.28 113.58 239.292 113.526 239.314C113.471 239.337 113.422 239.37 113.38 239.411C113.338 239.453 113.305 239.503 113.282 239.557C113.26 239.612 113.248 239.67 113.248 239.729V241.232C113.248 241.291 113.26 241.349 113.282 241.404C113.305 241.458 113.338 241.508 113.38 241.549C113.422 241.591 113.471 241.624 113.526 241.647C113.58 241.669 113.639 241.681 113.698 241.681H148.85C148.909 241.681 148.968 241.669 149.022 241.647C149.077 241.624 149.126 241.591 149.168 241.549C149.21 241.508 149.243 241.458 149.265 241.404C149.288 241.349 149.3 241.291 149.3 241.232V239.729C149.3 239.67 149.288 239.612 149.265 239.557C149.243 239.503 149.21 239.453 149.168 239.411C149.126 239.37 149.077 239.337 149.022 239.314C148.968 239.292 148.909 239.28 148.85 239.28H148.098V217.671H204.723C205.178 217.671 205.628 217.582 206.048 217.408C206.467 217.234 206.849 216.98 207.17 216.659C207.491 216.338 207.746 215.957 207.92 215.537C208.094 215.118 208.183 214.668 208.183 214.215V203.265H54.3643Z" fill="#3F3D56"/>
        <path d="M129.415 171.839C137.242 171.839 143.586 165.501 143.586 157.682C143.586 149.864 137.242 143.526 129.415 143.526C121.589 143.526 115.244 149.864 115.244 157.682C115.244 165.501 121.589 171.839 129.415 171.839Z" fill="#00FF7A"/>
        <path d="M165.521 78.2297H163.258C163.258 61.1367 146.324 49.9358 129.241 49.9268C126.756 49.9195 124.277 50.1604 121.84 50.6458C119.097 51.1929 116.25 51.8486 113.452 52.7033C102.421 56.0812 92.1913 62.6109 92.1913 78.2297C92.1889 81.263 92.5753 84.2841 93.341 87.2194L91.1502 87.7892C90.3375 84.6676 89.9268 81.4552 89.928 78.2297C89.928 64.5825 95.5364 55.2084 105.223 49.6193C110.316 46.68 116.53 44.7853 123.651 43.8628C126.614 43.4691 129.609 43.3782 132.591 43.5915C152.236 45.0024 165.521 60.0514 165.521 78.2297Z" fill="#00FF7A"/>
        <path d="M169.292 79.4823L168.4 72.8983C168.18 71.2356 167.378 69.7042 166.137 68.5753C165.34 67.8394 164.386 67.2941 163.347 66.9807C162.308 66.6674 161.211 66.5941 160.139 66.7665L158.722 66.961C158.335 67.012 157.961 67.1393 157.623 67.3357C157.285 67.5321 156.989 67.7936 156.753 68.105C156.515 68.4154 156.341 68.7698 156.241 69.1478C156.141 69.5258 156.116 69.9198 156.169 70.3072L158.229 85.4739C158.314 86.092 158.591 86.6679 159.022 87.1199C159.452 87.5719 160.014 87.8772 160.628 87.9926C160.81 88.029 160.995 88.0472 161.18 88.0469C161.314 88.0469 161.447 88.0378 161.579 88.0197L163.163 87.8072C164.129 87.6792 165.058 87.3552 165.894 86.8552C166.73 86.3552 167.455 85.6897 168.024 84.8996C168.147 84.7278 168.264 84.5514 168.373 84.3705C169.221 82.8909 169.545 81.1686 169.292 79.4823Z" fill="#00FF7A"/>
        <path d="M157.808 67.2368C157.393 67.4385 157.031 67.7361 156.753 68.105C156.515 68.4154 156.341 68.7698 156.241 69.1478C156.141 69.5258 156.116 69.9198 156.169 70.3072L158.229 85.4739C158.314 86.092 158.591 86.6679 159.022 87.1199C159.452 87.5719 160.014 87.8772 160.628 87.9926L157.808 67.2368Z" fill="white"/>
        <path d="M169.292 79.4822L168.4 72.8982C168.18 71.2355 167.379 69.7041 166.137 68.5752L168.188 83.665C168.218 83.9072 168.281 84.1444 168.373 84.3704C169.221 82.8908 169.545 81.1684 169.292 79.4822Z" fill="#3F3D56"/>
        <path d="M162.244 84.226C162.864 84.1421 163.175 82.6698 162.94 80.9374C162.704 79.2051 162.012 77.8688 161.392 77.9528C160.773 78.0367 160.462 79.5091 160.697 81.2414C160.932 82.9737 161.625 84.31 162.244 84.226Z" fill="#3F3D56"/>
        <path d="M160.886 76.0866C161.506 76.0027 161.817 74.5304 161.582 72.798C161.347 71.0657 160.654 69.7294 160.034 69.8134C159.415 69.8973 159.104 71.3697 159.339 73.102C159.574 74.8343 160.267 76.1706 160.886 76.0866Z" fill="#3F3D56"/>
        <path d="M169.487 79.2519C170.106 79.168 170.417 77.6956 170.182 75.9633C169.947 74.231 169.254 72.8947 168.635 72.9786C168.015 73.0626 167.704 74.5349 167.939 76.2673C168.175 77.9996 168.867 79.3359 169.487 79.2519Z" fill="#3F3D56"/>
        <path d="M129.241 49.9268C126.756 49.9195 124.277 50.1604 121.84 50.6458C119.097 51.1929 116.25 51.8486 113.452 52.7033C109.084 52.4907 105.87 51.3603 105.223 49.6193C110.316 46.68 116.53 44.7853 123.651 43.8628C126.614 43.4691 129.609 43.3782 132.591 43.5915C132.906 43.7764 133.179 44.0258 133.391 44.3236C133.604 44.6213 133.75 44.9605 133.822 45.3189C134.035 46.8926 132.238 48.5657 129.241 49.9268Z" fill="#3F3D56"/>
        <path d="M100.344 93.921L96.8582 79.4462C96.7339 78.924 96.4579 78.4501 96.0649 78.084C95.6719 77.718 95.1794 77.4761 94.6492 77.3887C94.4995 77.3654 94.3482 77.3533 94.1966 77.3525C93.9831 77.3533 93.7704 77.3791 93.5629 77.4294L92.214 77.755C90.4772 78.1746 88.978 79.2654 88.0454 80.788C87.1127 82.3106 86.8228 84.1406 87.2393 85.8764L88.8009 92.37C89.1575 93.8987 90.0067 95.2682 91.2181 96.2679C91.4144 96.4262 91.62 96.5727 91.8337 96.7065C92.5925 97.1816 93.4388 97.5 94.3228 97.6429C95.2067 97.7858 96.1104 97.7503 96.9804 97.5386L98.3248 97.213C98.6803 97.1301 99.0147 96.9746 99.307 96.7563C99.7418 96.4396 100.072 96.001 100.257 95.4961C100.442 94.9913 100.472 94.443 100.344 93.921Z" fill="#00FF7A"/>
        <path d="M93.0367 91.2277C93.6444 91.0816 93.8051 89.5854 93.3956 87.8857C92.9862 86.186 92.1617 84.9266 91.5541 85.0727C90.9464 85.2187 90.7858 86.715 91.1952 88.4147C91.6046 90.1143 92.4291 91.3738 93.0367 91.2277Z" fill="#3F3D56"/>
        <path d="M88.5101 92.5841C89.1178 92.4381 89.2785 90.9418 88.869 89.2421C88.4596 87.5425 87.6351 86.283 87.0275 86.4291C86.4198 86.5752 86.2592 88.0715 86.6686 89.7711C87.078 91.4708 87.9025 92.7302 88.5101 92.5841Z" fill="#3F3D56"/>
        <path d="M100.565 93.8666L97.0798 79.3918C96.944 78.8268 96.6444 78.3143 96.2185 77.9186C95.7926 77.5228 95.2592 77.2614 94.6853 77.167L99.4427 96.937C99.9125 96.5933 100.27 96.1182 100.47 95.5717C100.669 95.0253 100.703 94.4319 100.565 93.8666Z" fill="white"/>
        <path d="M88.0269 83.0095C87.9307 82.607 87.7502 82.2294 87.4973 81.9016C87.0073 83.1692 86.9173 84.5562 87.2392 85.8764L88.8009 92.3699C89.1575 93.8987 90.0067 95.2682 91.2181 96.2679L88.0269 83.0095Z" fill="#3F3D56"/>
    </g>
    <defs>
        <clipPath id="clip0_115_6">
            <rect width="385" height="335" fill="white"/>
        </clipPath>
    </defs>
</svg>